<svg width="70" height="70" viewBox="0 0 70 70" fill="none" xmlns="http://www.w3.org/2000/svg">
<path d="M65.297 48.9112C63.7047 50.3115 61.7822 51.2437 59.518 51.7079C58.2053 50.998 56.6441 49.4885 56.5237 46.3096C58.3335 46.2199 59.7044 45.7284 60.6443 44.8469C61.689 43.8639 62.2949 42.2725 62.4658 40.0765H69.4331C69.0603 43.8717 67.6855 46.8166 65.3009 48.9151L65.297 48.9112Z" fill="#D0FF4F"/>
<path d="M55.8711 52.0588C53.0515 52.0588 50.5815 51.3957 48.4493 50.0657C46.3249 48.7395 44.686 46.8282 43.5403 44.3397C42.7519 42.6235 42.2315 40.72 41.9907 38.6254C43.4937 35.4894 46.6318 29.8922 49.2688 28.8819C49.0086 30.1886 48.8843 31.7176 48.8843 33.4728V36.0394C48.9115 39.5538 49.5057 42.1437 50.6592 43.817C51.6107 45.1978 52.9661 46.0091 54.7215 46.2471C54.7953 49.0476 55.7857 50.8575 56.9702 52.0237C56.6129 52.0471 56.2478 52.0549 55.875 52.0549L55.8711 52.0588Z" fill="#D0FF4F"/>
<path d="M60.9394 24.7357C60.8306 24.607 60.718 24.486 60.5937 24.3729C59.5335 23.3861 57.9295 22.8907 55.7779 22.8907C53.3933 22.8907 51.6495 23.7371 50.5427 25.4339C50.2553 25.8746 50.0067 26.3778 49.797 26.9473C49.4747 26.9629 49.1446 27.0214 48.8144 27.1345C46.1657 28.0199 43.5559 31.9048 41.8276 35.0135V33.6406C41.8276 28.527 43.0704 24.5055 45.5521 21.5763C48.0377 18.647 51.4476 17.1804 55.7818 17.1804C59.7432 17.1804 62.9356 18.2296 65.3552 20.3281C65.3862 20.3554 65.4173 20.3827 65.4484 20.41C63.5143 21.666 61.9958 23.3393 60.9394 24.7396V24.7357Z" fill="#D0FF4F"/>
<path d="M61.3676 20.9444C61.3676 20.4763 60.9907 20.094 60.5205 20.094C60.0503 20.094 59.6733 20.4724 59.6733 20.9444C59.6733 21.4163 60.0503 21.7947 60.5205 21.7947C60.9907 21.7947 61.3676 21.4163 61.3676 20.9444Z" fill="#D0FF4F"/>
<path d="M66.2922 42.5767C66.2922 42.1086 65.9152 41.7264 65.445 41.7264C64.9748 41.7264 64.5979 42.1047 64.5979 42.5767C64.5979 43.0487 64.9748 43.427 65.445 43.427C65.9152 43.427 66.2922 43.0487 66.2922 42.5767Z" fill="#D0FF4F"/>
<path d="M69.2272 26.6704C69.2272 26.6704 64.2366 26.487 60.7995 29.9585C57.3624 33.4339 52.9661 34.4519 52.9661 34.4519C52.9661 34.4519 65.5105 37.8298 70 29.3656C70 29.3656 67.4057 29.7128 64.8036 31.5577C64.8036 31.5577 68.5164 27.821 69.2272 26.6704Z" fill="#D0FF4F"/>
<path d="M15.2978 20.3243C16.8901 18.924 18.8125 17.9917 21.0767 17.5276C22.3894 18.2375 23.9507 19.747 24.0711 22.9259C22.2613 23.0156 20.8903 23.5071 19.9505 24.3886C18.9057 25.3715 18.2999 26.9629 18.129 29.1589H11.1616C11.5345 25.3637 12.9093 22.4188 15.2939 20.3204L15.2978 20.3243Z" fill="#D0FF4F"/>
<path d="M24.7236 17.1765C27.5432 17.1765 30.0132 17.8396 32.1454 19.1697C34.2698 20.4958 35.9087 22.4032 37.0544 24.8956C37.8428 26.6119 38.3632 28.5153 38.6079 30.6099C37.1049 33.7459 33.9669 39.3432 31.3298 40.3534C31.59 39.0467 31.7143 37.5177 31.7143 35.7625V33.1959C31.6871 29.6816 31.0929 27.0916 29.9394 25.4183C28.9879 24.0375 27.6325 23.2262 25.8771 22.9883C25.8033 20.1877 24.813 18.3779 23.6284 17.2116C23.9857 17.1882 24.3508 17.1804 24.7236 17.1804V17.1765Z" fill="#D0FF4F"/>
<path d="M19.6555 44.4996C19.7642 44.6283 19.8769 44.7493 20.0011 44.8624C21.0614 45.8492 22.6654 46.3446 24.817 46.3446C27.2016 46.3446 28.9453 45.4982 30.0522 43.8014C30.3396 43.3607 30.5882 42.8575 30.7979 42.288C31.1202 42.2724 31.4503 42.2139 31.7805 42.1008C34.4291 41.2154 37.039 37.3305 38.7672 34.2217V35.5947C38.7672 40.7083 37.5245 44.7298 35.0428 47.659C32.5572 50.5922 29.1512 52.0588 24.817 52.0588C20.8556 52.0588 17.6632 51.0096 15.2436 48.9111C15.2125 48.8838 15.1815 48.8565 15.1504 48.8292C17.0845 47.5732 18.603 45.8999 19.6594 44.4996H19.6555Z" fill="#D0FF4F"/>
<path d="M19.2283 48.2909C19.2283 48.759 19.6052 49.1412 20.0754 49.1412C20.5456 49.1412 20.9225 48.7629 20.9225 48.2909C20.9225 47.819 20.5456 47.4406 20.0754 47.4406C19.6052 47.4406 19.2283 47.819 19.2283 48.2909Z" fill="#D0FF4F"/>
<path d="M4.4585 34.4012C2.98658 34.7327 1.49135 35.1501 0.0660231 35.7234C0.0427208 35.7312 0.0233023 35.7429 0 35.7507V18.998C0 18.3427 0.528185 17.8083 1.18453 17.8083H6.71882C7.37129 17.8083 7.90336 18.3388 7.90336 18.998V32.7707C7.90336 33.3597 7.47226 33.8551 6.89359 33.9448C6.08189 34.0696 5.2702 34.2178 4.46239 34.4012H4.4585Z" fill="#D0FF4F"/>
<path d="M1.32046 38.4929C2.72248 38.0131 4.14392 37.5918 5.57701 37.2915C6.1052 37.1823 6.63726 37.0848 7.16933 36.999C7.55382 36.9366 7.89947 37.2408 7.89947 37.6308V50.7873C7.89947 51.1384 7.61596 51.4231 7.26643 51.4231H0.633045C0.283511 51.4231 0 51.1384 0 50.7873V39.4446C0 39.2028 0.132046 38.9726 0.349534 38.8712C0.667999 38.723 1.002 38.5982 1.32046 38.489V38.4929Z" fill="#D0FF4F"/>
<path d="M11.1655 30.7035C11.1655 30.7035 11.1927 46.6098 13.5346 46.485C15.5153 46.3797 17.6436 44.2851 18.2494 43.6493C18.3582 43.5362 18.4125 43.3841 18.4009 43.2281C18.2766 41.6093 17.5853 32.3183 17.8843 31.5304C18.2145 30.6645 11.3597 30.7074 11.3597 30.7074" fill="#D0FF4F"/>
</svg>
