<svg width="351" height="34" viewBox="0 0 351 34" fill="none" xmlns="http://www.w3.org/2000/svg">
<path d="M287.411 24.5323C286.961 25.0267 286.495 25.4143 286.006 25.7851C281.765 28.9647 276.04 29.1725 271.406 26.3188C266.726 23.4369 264.277 18.072 265.153 12.6117C266.013 7.25242 270.176 2.79761 275.512 1.6179C278.967 0.853902 282.225 1.4269 285.236 3.29758C285.332 3.35376 285.427 3.41555 285.512 3.48297C285.63 3.57847 285.63 3.70205 285.568 3.82002C285.506 3.93238 285.394 3.96609 285.281 3.92676C285.152 3.88182 285.023 3.82003 284.899 3.76385C278.057 0.595489 269.968 4.02788 267.67 11.078C265.423 17.9709 269.788 25.3525 276.95 26.7625C280.574 27.476 283.905 26.7625 286.955 24.6952C287.062 24.6222 287.152 24.493 287.411 24.5323Z" fill="black"/>
<path d="M286.102 21.1392C287.265 19.4764 287.883 17.6394 287.933 15.6283C288.057 10.8926 284.686 6.92095 280.018 6.28616C275.754 5.70192 271.501 8.51637 270.26 12.7521C269.608 14.9823 269.794 17.1619 270.692 19.291C270.726 19.3697 270.76 19.4427 270.794 19.5214C270.861 19.6787 270.872 19.8247 270.698 19.9146C270.524 20.0045 270.406 19.9146 270.31 19.7742C269.878 19.1562 269.53 18.4877 269.26 17.7855C267.294 12.606 269.895 6.89848 275.159 4.8368C281.186 2.47738 287.961 6.21313 289.068 12.5836C289.613 15.7463 288.776 18.5776 286.534 20.9426C286.366 21.1224 286.36 21.1168 286.102 21.1449V21.1392Z" fill="black"/>
<path d="M274.546 10.0107C277.192 6.93218 281.877 6.96589 284.613 10.1118C286.399 12.1735 286.894 14.5666 285.995 17.1451C285.107 19.6787 283.276 21.2628 280.624 21.7853C278.861 22.1336 277.215 21.7572 275.726 20.7235C275.557 20.6056 275.333 20.482 275.484 20.2292C275.625 19.9989 275.827 20.1337 276.007 20.2011C278.855 21.2347 281.843 20.2966 283.388 17.8866C285.613 14.4205 283.534 9.79157 279.45 9.10622C277.889 8.84219 276.422 9.10622 275.035 9.85898C274.894 9.93201 274.771 10.0781 274.546 10.0107Z" fill="black"/>
<path d="M311.134 9.10623C312.583 7.32544 314.808 7.94338 315.544 9.40959C315.628 9.40959 315.645 9.34218 315.679 9.286C316.218 8.30853 317.072 7.92091 318.162 8.02203C319.223 8.11753 319.875 8.73547 320.229 9.71294C320.431 10.2691 320.482 10.8533 320.521 11.4376C320.572 12.1454 320.611 12.8532 320.633 13.5667C320.645 13.9206 320.701 14.2295 321.015 14.443C321.133 14.5217 321.19 14.6228 321.15 14.7632C321.111 14.9261 320.971 14.9261 320.847 14.9261C320.302 14.9261 319.757 14.9261 319.212 14.9261C319.089 14.9261 318.948 14.9205 318.898 14.7688C318.847 14.6228 318.931 14.5217 319.038 14.4486C319.336 14.2576 319.398 13.9824 319.369 13.6509C319.274 12.5162 319.319 11.3645 319.122 10.2354C319.083 10.0051 319.01 9.77474 318.92 9.55565C318.69 9.00512 318.296 8.63997 317.667 8.58941C317.016 8.53885 316.527 8.81973 316.184 9.34779C315.926 9.74103 315.847 10.1736 315.87 10.6567C315.915 11.6173 315.903 12.5779 315.898 13.5386C315.898 13.8981 315.909 14.2352 316.263 14.4542C316.37 14.5217 316.437 14.6396 316.375 14.7801C316.319 14.9037 316.201 14.9149 316.089 14.9149C315.544 14.9149 314.999 14.9149 314.454 14.9149C314.33 14.9149 314.196 14.9037 314.156 14.7464C314.123 14.6003 314.196 14.4992 314.308 14.4262C314.589 14.2408 314.634 13.9711 314.628 13.6622C314.617 12.7689 314.623 11.8757 314.628 10.9882C314.628 10.5668 314.578 10.1567 314.42 9.75788C314.106 8.94332 313.482 8.51076 312.735 8.58941C312.005 8.66806 311.387 9.28038 311.241 10.0725C311.168 10.4713 311.179 10.8758 311.185 11.2803C311.19 12.0724 311.218 12.8701 311.213 13.6622C311.213 13.9767 311.269 14.2408 311.561 14.4093C311.69 14.4823 311.791 14.5891 311.746 14.7464C311.696 14.9261 311.533 14.9093 311.398 14.9093C310.853 14.9149 310.308 14.9093 309.763 14.9093C309.623 14.9093 309.466 14.9093 309.421 14.7351C309.376 14.5722 309.488 14.4767 309.612 14.3981C309.864 14.2408 309.937 14.0105 309.937 13.724C309.932 12.415 309.932 11.1061 309.937 9.79159C309.937 9.48824 309.848 9.26353 309.595 9.07815C309.275 8.83659 309.297 8.69053 309.662 8.51638C309.988 8.35909 310.319 8.20741 310.651 8.06697C310.988 7.92091 311.106 7.99956 311.128 8.37032C311.14 8.57256 311.128 8.78041 311.128 9.08938L311.134 9.10623Z" fill="black"/>
<path d="M295.208 9.22979C295.219 10.3589 295.517 11.4038 296.185 12.3251C297.814 14.5778 300.64 14.3643 301.921 11.9038C302.039 11.6735 302.095 11.2746 302.471 11.4375C302.803 11.5836 302.595 11.9038 302.533 12.1397C301.865 14.5722 299.258 15.735 296.921 14.6508C293.781 13.1959 292.888 8.74668 295.219 6.19626C296.91 4.34805 300.106 4.31996 301.82 6.1457C302.101 6.44344 302.32 6.7805 302.409 7.18497C302.477 7.49956 302.432 7.78606 302.123 7.93773C301.82 8.08941 301.499 8.04447 301.292 7.7692C300.988 7.37035 300.747 6.92656 300.455 6.52208C299.601 5.33676 298.106 5.03902 296.859 5.80864C296.028 6.31985 295.567 7.09508 295.331 8.01638C295.23 8.40962 295.208 8.81409 295.213 9.21856L295.208 9.22979Z" fill="black"/>
<path d="M295.208 21.3134C295.242 22.701 295.635 23.9481 296.64 24.948C298.236 26.5378 300.455 26.2963 301.674 24.4143C301.803 24.2177 301.91 24.0043 302.017 23.7908C302.112 23.5998 302.23 23.4369 302.46 23.5099C302.691 23.5885 302.646 23.802 302.606 23.9762C302.37 25.0267 301.854 25.9086 300.938 26.4873C299.623 27.3243 298.225 27.3861 296.831 26.7007C293.865 25.2514 292.955 21.1055 295.011 18.5327C296.73 16.3867 300.309 16.3305 301.966 18.4203C302.185 18.6956 302.354 18.9989 302.415 19.3528C302.466 19.6337 302.399 19.8921 302.14 20.0382C301.876 20.1899 301.595 20.1618 301.365 19.9539C301.241 19.8416 301.14 19.7067 301.045 19.5719C300.904 19.3641 300.775 19.1506 300.651 18.9315C299.522 16.9148 296.854 17.1114 295.747 19.0663C295.354 19.7629 295.18 20.5157 295.208 21.3134Z" fill="black"/>
<path d="M276.535 12.6172C276.54 12.9149 276.383 13.1733 276.327 13.4542C276.041 14.8249 276.67 16.1956 277.844 16.7237C279.596 17.5102 281.506 16.235 281.563 14.2407C281.574 13.9598 281.523 13.6845 281.484 13.4093C281.462 13.2576 281.428 13.0947 281.608 13.0048C281.804 12.9093 281.922 13.0441 282.029 13.1733C282.894 14.2351 283.034 15.4148 282.535 16.6675C281.9 18.2629 280.226 19.2292 278.462 19.0494C276.81 18.8809 275.4 17.6113 275.086 15.9653C274.895 14.9541 275.108 14.0216 275.76 13.2127C275.967 12.9542 276.198 12.7071 276.54 12.6172V12.6116L276.535 12.6172Z" fill="black"/>
<path d="M326.335 14.1902C325.352 15.1733 323.695 15.3306 322.588 14.5947C321.897 14.1397 321.662 13.4768 321.723 12.6847C321.785 11.9319 322.19 11.3983 322.869 11.1174C323.914 10.6792 324.953 10.7073 325.993 11.2972C325.942 10.5725 325.863 9.88712 325.538 9.25794C325.274 8.75235 324.847 8.50518 324.285 8.49956C323.729 8.49394 323.33 8.75235 323.066 9.23547C322.954 9.44333 322.852 9.6568 322.723 9.85342C322.577 10.0781 322.369 10.1568 322.105 10.0557C321.841 9.95453 321.746 9.7523 321.768 9.49389C321.819 8.96583 322.161 8.64562 322.588 8.40406C324.555 7.28053 326.841 8.3535 327.172 10.5781C327.324 11.6117 327.408 12.651 327.509 13.6903C327.543 14.061 327.672 14.3363 328.049 14.4487C328.178 14.488 328.29 14.5385 328.285 14.6958C328.279 14.8531 328.15 14.8981 328.026 14.9262C327.656 15.016 327.279 15.0217 326.903 14.943C326.543 14.8644 326.414 14.561 326.335 14.1959V14.1902ZM324.639 14.5498C325.526 14.5498 326.167 13.9262 326.161 13.078C326.15 11.9376 325.588 11.3028 324.577 11.2972C323.65 11.2915 322.982 11.8926 322.976 12.7409C322.965 13.7745 323.673 14.5442 324.639 14.5442" fill="black"/>
<path d="M310.151 23.6784C310.151 25.6895 308.758 27.1389 306.814 27.1445C304.718 27.1445 303.123 25.5828 303.123 23.5267C303.123 21.583 304.64 20.0775 306.578 20.0887C308.612 20.0999 310.14 21.6392 310.145 23.6728M304.432 23.1672C304.432 24.3244 304.842 25.3805 305.556 26.049C306.651 27.0883 308.117 26.7625 308.662 25.3637C308.774 25.0772 308.842 24.7738 308.859 24.4705C308.926 23.2627 308.724 22.1223 307.836 21.2235C306.769 20.1449 305.157 20.5156 304.623 21.9369C304.477 22.3357 304.426 22.7458 304.432 23.1672Z" fill="black"/>
<path d="M333.105 11.505C333.082 9.05572 335.296 7.38727 337.526 8.17936C338.245 8.43778 338.784 8.89281 338.998 9.65681C339.194 10.3702 338.998 10.7354 338.295 10.9713C337.161 11.3477 336.026 11.7353 334.88 12.0836C334.531 12.1904 334.526 12.3364 334.655 12.6173C335.048 13.4824 335.683 14.0442 336.655 14.106C337.559 14.1622 338.29 13.8251 338.745 13.0049C338.835 12.8476 338.947 12.7072 339.138 12.8139C339.318 12.9094 339.228 13.078 339.189 13.224C338.885 14.2127 337.885 14.943 336.706 15.0385C334.633 15.2071 333.127 13.7296 333.105 11.5106M334.408 11.7073C335.419 11.3477 336.391 10.9994 337.352 10.6511C337.818 10.4826 337.925 10.2523 337.79 9.7804C337.593 9.11751 336.998 8.5726 336.38 8.50519C335.7 8.43216 335.082 8.78607 334.717 9.46581C334.346 10.1568 334.307 10.8983 334.408 11.7129V11.7073Z" fill="black"/>
<path d="M344.857 23.566C344.863 21.1055 347.138 19.4651 349.368 20.319C350.087 20.5943 350.593 21.0886 350.778 21.8527C350.93 22.4706 350.722 22.847 350.115 23.0548C348.98 23.4368 347.84 23.8245 346.694 24.1671C346.289 24.2907 346.278 24.4424 346.436 24.7794C346.823 25.5772 347.402 26.1108 348.306 26.1951C349.244 26.2794 350.008 25.9816 350.491 25.1221C350.576 24.9705 350.688 24.8188 350.885 24.9143C351.07 25.0042 350.986 25.1839 350.946 25.3244C350.66 26.3412 349.536 27.1108 348.295 27.1501C346.273 27.2175 344.846 25.7345 344.851 23.5717L344.857 23.566ZM346.127 23.1279V23.5042C346.127 23.7289 346.216 23.802 346.441 23.7177C347.368 23.3807 348.301 23.0492 349.233 22.7122C349.497 22.6167 349.638 22.4257 349.61 22.1335C349.553 21.4931 348.958 20.7965 348.317 20.628C347.711 20.4651 347.048 20.7291 346.643 21.3077C346.261 21.8526 346.121 22.4706 346.127 23.1222V23.1279Z" fill="black"/>
<path d="M316.864 23.5998C316.853 21.201 318.954 19.5607 321.178 20.246C321.954 20.4876 322.532 20.9538 322.763 21.7684C322.954 22.4481 322.751 22.8414 322.088 23.0661C320.914 23.4593 319.735 23.8526 318.549 24.2233C318.302 24.302 318.285 24.3918 318.37 24.5997C318.712 25.4423 319.268 26.0547 320.207 26.1783C321.184 26.3075 321.999 26.021 322.504 25.1053C322.583 24.9592 322.684 24.83 322.864 24.9031C323.088 24.9929 323.004 25.1896 322.948 25.3356C322.555 26.3693 321.774 26.9479 320.701 27.1052C318.521 27.431 316.864 25.9142 316.853 23.6054L316.864 23.5998ZM318.128 23.1223V23.538C318.128 23.7571 318.235 23.7908 318.426 23.7233C319.37 23.3807 320.313 23.0436 321.257 22.7009C321.532 22.5998 321.628 22.392 321.594 22.1055C321.521 21.4707 320.948 20.8022 320.325 20.6336C319.723 20.4707 319.055 20.7291 318.645 21.3021C318.257 21.8414 318.122 22.465 318.134 23.1166L318.128 23.1223Z" fill="black"/>
<path d="M324.746 23.1054C324.734 23.7122 324.847 24.2964 325.133 24.8357C325.594 25.712 326.319 26.1952 327.307 26.2232C328.206 26.2513 328.841 25.7963 329.257 25.0211C329.341 24.8638 329.442 24.7121 329.644 24.8132C329.83 24.9031 329.745 25.0716 329.712 25.2177C329.386 26.4592 328.189 27.2344 326.74 27.1389C324.785 27.0041 323.409 25.4368 323.471 23.4032C323.527 21.4876 324.998 20.0719 326.953 20.0944C327.824 20.1056 328.633 20.3528 329.268 20.9932C329.459 21.1842 329.605 21.4033 329.667 21.6673C329.717 21.892 329.706 22.128 329.487 22.2684C329.274 22.4032 329.038 22.3976 328.813 22.2628C328.599 22.1336 328.487 21.9201 328.358 21.7235C327.706 20.7292 327.122 20.4258 326.279 20.6393C325.454 20.8471 324.836 21.6729 324.751 22.6785C324.74 22.8189 324.751 22.9538 324.751 23.0942L324.746 23.1054Z" fill="black"/>
<path d="M315.662 21.4258C315.662 22.8751 315.667 24.3245 315.662 25.7739C315.662 26.0941 315.712 26.3469 316.016 26.5098C316.145 26.5772 316.241 26.6895 316.184 26.8524C316.134 26.9985 315.999 27.0097 315.87 27.0097C315.325 27.0097 314.78 27.0097 314.235 27.0097C314.089 27.0097 313.943 26.9985 313.898 26.83C313.853 26.6671 313.954 26.5659 314.078 26.4873C314.319 26.3356 314.381 26.1109 314.381 25.8413C314.381 23.3189 314.381 20.7966 314.381 18.2687C314.381 17.9709 314.297 17.7238 314.061 17.5328C313.758 17.2912 313.87 17.117 314.162 16.9766C314.448 16.8362 314.741 16.6957 315.027 16.5553C315.516 16.3193 315.662 16.4092 315.662 16.9429C315.662 18.2968 315.662 19.645 315.662 20.9988V21.4146V21.4258Z" fill="black"/>
<path d="M329.195 11.1791C329.195 10.387 329.172 9.74658 329.2 9.10616C329.217 8.78034 329.105 8.68484 328.802 8.72416C328.667 8.74102 328.521 8.72416 328.386 8.72416C328.189 8.72978 328.077 8.6736 328.071 8.44328C328.066 8.19049 328.184 8.15116 328.403 8.13993C329.47 8.10061 329.639 7.94893 329.835 6.86472C329.88 6.6344 329.964 6.51642 330.212 6.52204C330.476 6.53328 330.487 6.72428 330.492 6.90404C330.504 7.21301 330.515 7.51637 330.492 7.82534C330.476 8.08937 330.582 8.1624 330.83 8.15116C331.29 8.13431 331.751 8.15116 332.211 8.15116C332.431 8.15116 332.644 8.13431 332.638 8.45452C332.638 8.75225 332.425 8.72978 332.228 8.72978C331.756 8.72978 331.279 8.74102 330.807 8.72978C330.577 8.72416 330.487 8.79157 330.492 9.03313C330.504 10.3589 330.481 11.6791 330.504 13.0048C330.521 13.8362 330.992 14.2239 331.689 14.0385C332.026 13.9486 332.256 13.7351 332.346 13.4037C332.397 13.2183 332.464 13.0666 332.678 13.1284C332.897 13.1902 332.846 13.3812 332.824 13.5441C332.7 14.4261 332.009 15.0272 331.094 15.0496C330.122 15.0777 329.448 14.5609 329.268 13.6228C329.105 12.7689 329.234 11.8981 329.195 11.1847V11.1791Z" fill="black"/>
<path d="M332.363 23.1785C332.363 23.8357 332.357 24.4874 332.363 25.1447C332.369 25.6952 332.638 26.0884 333.048 26.1671C333.571 26.2682 334.003 26.0154 334.211 25.4593C334.273 25.302 334.335 25.1615 334.532 25.2177C334.734 25.2739 334.7 25.4536 334.683 25.5997C334.616 26.3918 333.981 27.0266 333.15 27.1277C332.223 27.24 331.498 26.8356 331.206 26.0323C331.071 25.6615 331.037 25.2739 331.037 24.8806C331.037 23.656 331.026 22.4257 331.043 21.2011C331.043 20.9146 330.97 20.791 330.672 20.8303C330.521 20.8472 330.363 20.8303 330.212 20.8303C329.998 20.8359 329.914 20.7292 329.914 20.5213C329.914 20.3022 330.021 20.2236 330.223 20.2292H330.262C331.335 20.173 331.476 20.0494 331.683 18.9484C331.723 18.7349 331.801 18.6226 332.032 18.6226C332.29 18.6226 332.335 18.7742 332.335 18.9765C332.335 19.2686 332.346 19.5607 332.335 19.8528C332.318 20.1337 332.408 20.2517 332.711 20.2348C333.183 20.2124 333.661 20.2348 334.133 20.2292C334.346 20.2292 334.481 20.291 334.481 20.5326C334.481 20.7797 334.352 20.8359 334.133 20.8303C333.689 20.8247 333.239 20.8584 332.796 20.8191C332.402 20.7854 332.329 20.937 332.346 21.2853C332.374 21.9089 332.352 22.5381 332.352 23.1672L332.363 23.1785Z" fill="black"/>
<path d="M341.666 26.0492C342.334 24.4088 342.952 22.892 343.57 21.3753C343.694 21.0663 343.548 20.8697 343.301 20.7124C343.183 20.6393 343.048 20.5551 343.104 20.3866C343.16 20.2124 343.323 20.2405 343.458 20.2405C343.851 20.2405 344.239 20.2405 344.632 20.2405C344.756 20.2405 344.896 20.2293 344.947 20.3809C344.992 20.5214 344.919 20.6337 344.801 20.6955C344.351 20.9315 344.199 21.3584 344.025 21.791C343.391 23.3808 342.739 24.9649 342.104 26.5491C341.992 26.83 341.863 27.0266 341.509 27.021C341.155 27.021 340.913 26.9592 340.75 26.5884C339.997 24.8975 339.205 23.2235 338.441 21.5382C338.307 21.2404 338.16 20.9652 337.896 20.7629C337.773 20.6674 337.661 20.5438 337.722 20.3697C337.784 20.2068 337.947 20.2349 338.082 20.2349C338.627 20.2349 339.172 20.2349 339.717 20.2349C339.857 20.2349 340.009 20.2124 340.076 20.3753C340.138 20.5214 340.031 20.6169 339.936 20.6955C339.66 20.9146 339.672 21.1562 339.801 21.4708C340.424 22.9538 341.02 24.4481 341.677 26.0548L341.666 26.0492Z" fill="black"/>
<path d="M312.611 21.364C312.611 22.8021 312.617 24.2346 312.611 25.6727C312.611 26.0267 312.645 26.3412 312.999 26.5266C313.111 26.5884 313.201 26.6895 313.156 26.8356C313.111 26.9817 312.988 27.0097 312.859 27.0097C312.302 27.0097 311.741 27.0097 311.185 27.0097C311.055 27.0097 310.926 26.9985 310.881 26.8412C310.848 26.7232 310.887 26.6053 310.988 26.5491C311.353 26.3356 311.347 25.9986 311.347 25.639C311.342 23.2291 311.342 20.8135 311.347 18.4035C311.347 18.0552 311.308 17.7462 311.005 17.5103C310.786 17.3418 310.814 17.1508 311.072 17.0215C311.421 16.8474 311.769 16.662 312.123 16.5103C312.465 16.3587 312.606 16.4598 312.611 16.853C312.611 18.3586 312.611 19.8641 312.611 21.3696V21.364Z" fill="black"/>
<path d="M304.966 9.30845C304.966 10.7578 304.972 12.2072 304.966 13.6621C304.966 13.9823 305.017 14.2351 305.326 14.398C305.455 14.4655 305.556 14.5722 305.505 14.7407C305.455 14.9205 305.292 14.8924 305.157 14.898C304.623 14.898 304.095 14.898 303.562 14.898C303.438 14.898 303.292 14.9149 303.236 14.7688C303.18 14.6171 303.247 14.4935 303.382 14.4149C303.668 14.2351 303.713 13.9711 303.713 13.6565C303.708 11.2016 303.708 8.74668 303.713 6.29177C303.713 5.93785 303.651 5.64012 303.354 5.40418C303.123 5.21879 303.191 5.04465 303.432 4.92106C303.758 4.75814 304.078 4.59523 304.41 4.44356C304.831 4.25256 304.966 4.33682 304.972 4.79747C304.972 6.303 304.972 7.80853 304.972 9.31407L304.966 9.30845Z" fill="black"/>
<path d="M336.902 23.2122C336.902 24.0604 336.913 24.9143 336.902 25.7626C336.897 26.0828 336.958 26.3356 337.262 26.4929C337.391 26.5603 337.492 26.667 337.447 26.8299C337.397 26.9928 337.25 27.0097 337.104 27.0097C336.576 27.0097 336.043 27.0097 335.515 27.0097C335.374 27.0097 335.222 27.0097 335.161 26.8524C335.104 26.6951 335.194 26.5827 335.318 26.5041C335.588 26.3356 335.649 26.0884 335.649 25.7907C335.638 24.5492 335.638 23.3133 335.649 22.0718C335.649 21.7179 335.593 21.4145 335.301 21.1786C335.076 20.9988 335.093 20.8303 335.352 20.7011C335.711 20.5213 336.071 20.3303 336.442 20.1674C336.762 20.0269 336.902 20.1337 336.908 20.4988C336.913 21.4033 336.908 22.3077 336.908 23.2178L336.902 23.2122Z" fill="black"/>
<path d="M308.067 11.0837C308.067 11.9488 308.078 12.8139 308.067 13.6734C308.067 13.9824 308.134 14.2183 308.409 14.3756C308.544 14.4543 308.685 14.5441 308.623 14.7351C308.567 14.898 308.415 14.8924 308.269 14.8924C307.724 14.8924 307.179 14.8924 306.634 14.8924C306.505 14.8924 306.37 14.8924 306.325 14.7408C306.286 14.6059 306.342 14.488 306.46 14.4149C306.786 14.2239 306.825 13.9262 306.82 13.5891C306.808 12.3926 306.808 11.1904 306.82 9.99383C306.82 9.62868 306.769 9.30848 306.454 9.06692C306.252 8.90962 306.252 8.73547 306.494 8.61189C306.865 8.42089 307.235 8.22989 307.617 8.06136C307.909 7.93215 308.067 8.03889 308.067 8.37033C308.067 9.27477 308.067 10.1792 308.067 11.0893V11.0837Z" fill="black"/>
<path d="M337.155 18.044C337.161 18.6057 336.824 18.9372 336.239 18.9428C335.655 18.9428 335.29 18.617 335.29 18.0721C335.29 17.5272 335.644 17.1732 336.211 17.162C336.773 17.1508 337.15 17.4991 337.155 18.044Z" fill="black"/>
<path d="M307.387 5.06152C307.96 5.06152 308.331 5.4042 308.331 5.94911C308.331 6.49965 307.983 6.84232 307.398 6.84232C306.814 6.84232 306.449 6.49965 306.449 5.96035C306.449 5.42105 306.82 5.06714 307.387 5.06152Z" fill="black"/>
<path d="M276.541 12.6228C276.541 12.6228 276.546 12.5947 276.558 12.5891C276.558 12.5891 276.574 12.5891 276.586 12.5891C276.569 12.6003 276.552 12.6059 276.541 12.6171V12.6228Z" fill="black"/>
<path d="M132.807 17.7181C132.684 17.8754 132.566 18.0158 132.448 18.145C132.532 18.1675 132.599 18.1843 132.667 18.2012C132.61 18.2574 132.566 18.3304 132.498 18.3585C132.408 18.3978 132.302 18.4091 132.189 18.4315C132.313 18.4596 132.431 18.4877 132.571 18.5214C132.391 18.7012 132.178 18.6675 131.976 18.6787C132.088 18.7349 132.189 18.7854 132.29 18.8304C132.285 18.8528 132.273 18.8753 132.268 18.8978C132.049 18.8753 131.83 18.8472 131.611 18.8248C131.611 18.8416 131.611 18.8528 131.611 18.8697C131.706 18.9203 131.802 18.9652 131.886 19.027C131.936 19.0663 131.964 19.1281 132.004 19.1843C131.931 19.2011 131.858 19.2461 131.79 19.2348C131.582 19.2011 131.38 19.1506 131.167 19.145C131.363 19.2236 131.56 19.3079 131.757 19.3865C131.751 19.4146 131.74 19.4483 131.734 19.4764C131.582 19.4764 131.425 19.4933 131.274 19.4764C131.122 19.4539 130.97 19.3865 130.824 19.3416C130.813 19.3641 130.802 19.3865 130.79 19.4034C130.925 19.4764 131.06 19.5494 131.2 19.6168C131.257 19.6449 131.335 19.6337 131.386 19.6674C131.436 19.7011 131.493 19.7629 131.498 19.8135C131.498 19.8472 131.42 19.9258 131.375 19.9258C131.217 19.9258 131.054 19.909 130.897 19.8753C130.723 19.8359 130.554 19.7573 130.38 19.718C130.313 19.7011 130.234 19.7573 130.161 19.7798C130.195 19.8416 130.212 19.9314 130.262 19.9595C130.392 20.0382 130.532 20.0887 130.667 20.1618C130.774 20.2179 130.886 20.2685 130.987 20.3415C131.032 20.3752 131.071 20.4707 131.054 20.5101C131.032 20.5606 130.948 20.6056 130.886 20.6112C130.487 20.6449 130.116 20.5662 129.779 20.3471C129.633 20.2516 129.476 20.1056 129.296 20.291C129.251 20.3359 129.217 20.3977 129.178 20.4539C129.234 20.4932 129.29 20.5494 129.352 20.5718C129.628 20.6561 129.908 20.7235 130.184 20.8022C130.324 20.8415 130.465 20.8977 130.425 21.0831C130.392 21.2572 130.245 21.2516 130.111 21.2516C129.751 21.2516 129.431 21.1392 129.122 20.9651C128.903 20.8415 128.673 20.7235 128.358 20.9201C129.071 21.1786 129.734 21.4201 130.397 21.6617C130.397 21.6841 130.397 21.7066 130.397 21.7291C130.319 21.7628 130.234 21.8246 130.15 21.8302C129.56 21.8695 128.965 21.892 128.414 21.6336C128.302 21.583 128.184 21.5156 128.116 21.4201C127.993 21.2404 127.908 21.2965 127.807 21.4201C127.791 21.4426 127.768 21.4651 127.712 21.5212C128.504 21.8134 129.274 22.0942 130.049 22.3807C129.695 22.7964 127.532 22.5942 127.319 21.9313C127.212 22.0437 127.111 22.156 126.998 22.274C127.341 22.4201 127.689 22.5886 128.055 22.7234C128.431 22.8639 128.824 22.965 129.206 23.0942C129.279 23.1166 129.335 23.1953 129.397 23.2459C129.33 23.2852 129.262 23.347 129.189 23.3582C128.341 23.5043 127.521 23.4706 126.763 23.0043C126.667 22.9425 126.566 22.8863 126.47 22.8245C126.493 22.7908 126.51 22.7627 126.532 22.729C126.442 22.8358 126.352 22.9481 126.291 23.0268C126.521 23.1335 126.751 23.2515 126.993 23.3526C127.616 23.6166 128.246 23.8638 128.869 24.1278C128.981 24.1728 129.071 24.2627 129.172 24.3357C129.054 24.3862 128.937 24.4705 128.813 24.4761C128.56 24.4874 128.307 24.4761 128.06 24.4368C127.689 24.3806 127.313 24.3132 126.954 24.2065C126.667 24.1222 126.397 23.9705 126.116 23.8469C126.094 24.0436 126.291 24.1334 126.414 24.2009C126.942 24.493 127.493 24.7514 128.032 25.021C128.296 25.1502 128.56 25.2738 128.847 25.4087C128.611 25.6671 128.352 25.6277 128.122 25.5997C127.667 25.5435 127.212 25.4424 126.74 25.3581C126.785 25.4929 126.824 25.5884 127.004 25.6334C127.453 25.7513 127.897 25.9086 128.341 26.0603C128.42 26.0884 128.476 26.167 128.543 26.2232C128.465 26.2738 128.386 26.358 128.302 26.3637C127.982 26.3805 127.661 26.3693 127.341 26.3637C127.307 26.3637 127.268 26.3468 127.251 26.3243C127.24 26.3075 127.251 26.2682 127.251 26.2513H128.234C127.852 26.1783 127.487 26.1052 127.1 26.0154C127.06 25.9873 127.049 25.9817 127.032 25.976C127.043 26.0041 127.055 26.0266 127.066 26.0547C127.279 26.5715 127.493 27.0883 127.695 27.5771C127.774 27.5434 127.841 27.4928 127.897 27.4984C127.965 27.5097 128.071 27.6108 128.066 27.6164C128.01 27.7175 127.937 27.8074 127.852 27.9254C127.903 28.0377 127.97 28.2062 128.043 28.3804H126.105C125.864 27.7905 125.622 27.1951 125.381 26.594H121.92C121.679 27.1895 121.437 27.7849 121.195 28.3804H119.308C120.482 25.6165 121.65 22.8751 122.825 20.1112C123.341 20.1112 123.881 20.1112 124.42 20.1112C124.476 20.1112 124.56 20.1674 124.577 20.2123C124.892 20.9539 125.201 21.701 125.515 22.4425C125.543 22.5156 125.594 22.5774 125.633 22.6504C125.712 22.8077 125.785 22.965 125.864 23.1335C125.937 23.0549 126.038 22.9481 126.15 22.8245C125.734 22.7234 125.622 22.392 125.521 22.083C125.319 21.4707 125.302 20.8471 125.454 20.2179C125.47 20.1449 125.521 20.0775 125.555 20.0101C125.583 20.0101 125.611 19.9988 125.633 19.9932C125.706 20.1898 125.779 20.3809 125.852 20.5775C126.038 21.0774 126.218 21.5774 126.403 22.0718C126.442 22.1729 126.476 22.274 126.504 22.3526C126.588 22.2684 126.695 22.156 126.796 22.0493C126.381 21.7572 126.279 21.2797 126.263 20.7741C126.246 20.3696 126.24 19.9651 126.397 19.5775C126.425 19.5101 126.465 19.4427 126.504 19.3809C126.527 19.3809 126.549 19.3809 126.572 19.3809C126.616 19.5045 126.684 19.6225 126.712 19.7461C126.841 20.3415 126.948 20.937 127.246 21.4819C127.268 21.5212 127.262 21.5774 127.268 21.6167C127.375 21.51 127.476 21.4033 127.583 21.2965C127.229 21.1842 127.212 20.8415 127.178 20.5381C127.122 20.0775 127.195 19.6168 127.352 19.1731C127.386 19.0719 127.482 18.9933 127.577 18.8641C127.701 19.6225 127.819 20.3078 127.931 21.0044C128.026 20.937 128.105 20.8808 128.184 20.819C128.302 20.7179 128.324 20.6168 128.313 20.4426C128.279 19.9258 128.184 19.3921 128.482 18.909C128.549 18.8023 128.639 18.7068 128.746 18.5776C128.981 19.145 128.835 19.6786 128.824 20.2123C129.111 20.1449 129.156 19.9988 129.083 19.6225C128.998 19.1899 129.032 18.763 129.347 18.4034C129.363 18.381 129.392 18.3697 129.448 18.3248C129.487 18.4259 129.543 18.5102 129.543 18.5944C129.538 18.8304 129.498 19.0607 129.487 19.2966C129.487 19.3865 129.504 19.4764 129.515 19.5607C129.549 19.5607 129.577 19.5607 129.611 19.5607C129.633 19.4539 129.672 19.3528 129.684 19.2405C129.706 19.0495 129.695 18.8585 129.74 18.6731C129.768 18.5495 129.858 18.4371 129.931 18.2967C130.234 18.5944 129.976 18.9652 130.212 19.2348C130.212 19.1225 130.217 19.0101 130.229 18.9034C130.24 18.763 130.245 18.6281 130.274 18.4877C130.285 18.4315 130.341 18.3922 130.375 18.3416C130.431 18.3922 130.515 18.4315 130.538 18.4933C130.583 18.6225 130.588 18.763 130.616 18.9315C130.633 18.6675 130.65 18.4371 130.672 18.1956C130.759 18.2255 130.85 18.3941 130.948 18.7012C131.015 18.4821 131.088 18.2686 131.156 18.0495C131.189 18.0495 131.229 18.0495 131.262 18.0551C131.296 18.1787 131.324 18.2967 131.358 18.4203C131.375 18.4203 131.391 18.4203 131.414 18.4203C131.448 18.2742 131.487 18.1225 131.521 17.9765C131.538 17.9709 131.549 17.9653 131.566 17.9596C131.594 18.0439 131.627 18.1282 131.672 18.2518C131.723 18.1338 131.762 18.0214 131.818 17.9259C131.858 17.8585 131.925 17.808 131.981 17.7462C132.026 17.808 132.077 17.8754 132.133 17.9484C132.167 17.8698 132.212 17.7799 132.257 17.6844C132.335 17.5158 132.386 17.5158 132.498 17.6675C132.611 17.6338 132.712 17.6001 132.835 17.5664C132.852 17.6001 132.852 17.6338 132.852 17.6844M123.993 23.2459C123.881 22.965 123.763 22.6841 123.633 22.3639C123.268 23.2515 122.931 24.0829 122.583 24.9312H124.69C124.454 24.3694 124.223 23.8301 123.993 23.2515M126.757 22.8189C126.841 22.8807 126.914 22.9481 127.004 22.9987C127.375 23.2121 127.791 23.2796 128.212 23.3133C128.465 23.3301 128.717 23.3076 129.021 23.2964C128.504 23.1279 128.06 22.9706 127.611 22.8302C127.414 22.7684 127.212 22.7009 127.01 22.6785C126.925 22.6672 126.83 22.7571 126.763 22.8245M128.071 22.3189C128.566 22.4987 129.083 22.4538 129.594 22.4369C129.054 22.2628 128.51 22.0999 127.965 21.9482C127.807 21.9032 127.639 21.8864 127.476 21.8583L127.453 21.9426C127.588 22.156 127.824 22.2066 128.071 22.3189ZM127.139 23.8245C127.06 23.7908 126.982 23.7514 126.897 23.7234C126.633 23.6335 126.375 23.4818 126.066 23.5492C126.454 24.0885 127.942 24.3582 128.431 24.3188C128.055 24.1784 127.611 24.0099 127.139 23.8189M127.1 24.9536C126.909 24.8806 126.718 24.8132 126.498 24.7289C126.572 25.0267 126.65 25.2008 126.97 25.257C127.465 25.3412 127.953 25.4817 128.47 25.4367C128.026 25.2794 127.577 25.1222 127.1 24.948M125.881 21.9931C125.763 21.437 125.65 20.8752 125.532 20.3247C125.437 20.9258 125.42 21.5381 125.661 22.1279C125.746 22.3302 125.785 22.583 126.072 22.6785C125.999 22.4425 125.942 22.2347 125.875 21.9931M126.42 19.9989C126.291 20.6336 126.386 21.7684 126.892 21.9145C126.762 21.1449 126.437 20.4258 126.476 19.6393C126.459 19.7461 126.442 19.8528 126.425 19.9989M129.465 21.7347H129.908C129.51 21.5999 129.116 21.4482 128.717 21.3359C128.538 21.2853 128.358 21.0831 128.122 21.2741C128.212 21.3415 128.291 21.4033 128.375 21.4594C128.695 21.6504 129.06 21.6898 129.459 21.7347M126.577 23.2627C126.425 23.2852 126.268 23.3077 126.116 23.3301C127.032 23.5099 127.779 24.1278 128.746 24.2065C127.982 23.9312 127.251 23.7009 126.577 23.2627ZM127.498 20.7629C127.47 20.2741 127.442 19.7798 127.42 19.3247C127.15 19.9932 127.223 20.9932 127.56 21.1336C127.538 21.0156 127.515 20.9089 127.498 20.7572M126.195 22.0212C126.066 21.6954 125.931 21.3639 125.802 21.0381C125.791 21.0381 125.774 21.0437 125.763 21.0493C125.897 21.5606 126.032 22.0718 126.173 22.5942C126.431 22.3976 126.341 22.2234 126.195 22.0212ZM129.701 20.0269C129.661 20.0438 129.622 20.0606 129.56 20.0831C129.942 20.2797 130.274 20.5381 130.717 20.4595C130.605 20.3977 130.504 20.3359 130.392 20.2853C130.172 20.1898 129.953 20.1112 129.701 20.0213M128.493 20.0045C128.521 19.673 128.549 19.3472 128.577 18.9933C128.397 19.2966 128.335 19.982 128.448 20.4932C128.465 20.3415 128.476 20.1955 128.493 19.9989M129.167 20.7741C129.043 20.7291 128.925 20.6842 128.802 20.6393C129.262 20.8359 129.672 21.201 130.274 21.0831C129.886 20.9763 129.543 20.8808 129.167 20.7741ZM126.673 24.5267C126.566 24.4649 126.459 24.4031 126.352 24.3357C126.341 24.3469 126.324 24.3638 126.313 24.375C126.352 24.4424 126.38 24.5435 126.437 24.566C126.729 24.6896 127.032 24.7907 127.336 24.8974C127.336 24.8862 127.347 24.8694 127.352 24.8581C127.139 24.7458 126.92 24.6334 126.673 24.5211M129.296 18.8809V18.6562C129.088 19.0888 129.167 19.4764 129.234 19.8696C129.262 19.7123 129.29 19.5494 129.29 19.3921C129.29 19.2348 129.274 19.0719 129.29 18.8809M127.633 20.6393L127.689 21.0493C127.689 21.0493 127.734 21.0437 127.762 21.0381C127.796 20.6505 127.555 20.2966 127.588 19.909C127.566 19.909 127.543 19.909 127.526 19.9146C127.56 20.1449 127.594 20.3696 127.633 20.6393ZM127.083 21.6392C127.083 21.583 127.094 21.5156 127.071 21.4707C126.982 21.2516 126.886 21.0381 126.791 20.819C126.836 21.0999 126.914 21.3752 126.993 21.6504C126.993 21.6617 127.032 21.6617 127.083 21.6392ZM127.712 26.0547H127.88C127.88 26.0547 127.88 26.0378 127.88 26.0322C127.566 25.9367 127.246 25.8412 126.931 25.7457L126.909 25.8075C127.133 25.976 127.425 25.9536 127.712 26.0547ZM128.628 19.9146C128.622 20.0831 128.611 20.2516 128.605 20.4202C128.622 20.4202 128.639 20.4202 128.656 20.4202C128.678 20.0101 128.706 19.6056 128.729 19.1955H128.678C128.661 19.4146 128.644 19.6393 128.628 19.909V19.9146Z" fill="black"/>
<path d="M103.101 0.0112356C103.421 0.713443 103.725 1.41565 104.022 2.11786C104.298 2.76951 104.578 3.41554 104.854 4.06719C105.18 4.83119 105.494 5.59519 105.82 6.35357C106.05 6.89287 106.281 7.42655 106.511 7.96584C106.55 8.05011 106.584 8.13999 106.629 8.24672C106.005 8.24672 105.404 8.24672 104.803 8.24672C104.753 8.24672 104.68 8.18493 104.657 8.13437C104.421 7.57822 104.196 7.01646 103.966 6.45469C102.848 6.45469 101.742 6.45469 100.635 6.45469C100.584 6.45469 100.5 6.49401 100.483 6.53895C100.264 7.05578 100.062 7.57822 99.8428 8.09505C99.8147 8.15684 99.7361 8.24111 99.6799 8.24111C99.0956 8.25234 98.5114 8.24672 97.9047 8.24672C98.0395 7.93213 98.1631 7.64002 98.298 7.31419C96.8767 7.65687 95.8037 6.9996 94.7251 6.18504C94.9723 6.2356 95.1689 6.2974 95.3599 6.30301C95.6633 6.30863 95.9722 6.30863 96.2644 6.25246C96.798 6.14572 97.3261 5.99966 97.8541 5.86484C97.6631 5.54463 97.4047 5.40981 97.0508 5.49969C96.3711 5.66822 95.7251 5.57833 95.0903 5.30307C94.9273 5.23004 94.7476 5.19072 94.5622 5.13454C94.5453 5.11207 94.5453 5.09522 94.5622 5.06151C95.27 5.10083 95.8711 4.81995 96.4441 4.55592C96.3599 4.39301 96.2868 4.24133 96.2025 4.08965C96.1745 4.0391 96.1295 3.9773 96.079 3.96045C95.4049 3.68518 95.1521 3.03915 94.7869 2.48862C95.0341 2.63468 95.2476 2.85377 95.506 2.95489C95.7756 3.06162 96.0846 3.05039 96.3542 3.0841C96.7643 2.58412 96.6745 2.01674 96.5846 1.44374C96.6408 1.47744 96.6744 1.51677 96.6969 1.56171C96.7587 1.69091 96.8093 1.82574 96.8655 1.96056C97.1688 2.65154 97.4328 3.34251 97.1576 4.11774C97.1126 4.24695 97.1239 4.4548 97.2025 4.56154C97.3654 4.78063 97.5957 4.94916 97.7867 5.12892C97.8822 4.5166 98.1575 3.96045 98.6069 3.46048C98.9327 3.09533 99.2979 2.7358 99.4046 2.20774C99.4383 2.26953 99.4439 2.33133 99.4439 2.38751C99.4439 2.7358 99.4552 3.08971 99.4439 3.43801C99.4159 4.02224 99.2698 4.57277 98.8934 5.03342C98.7418 5.2188 98.5788 5.38733 98.4159 5.55586C98.2867 5.69069 98.2811 5.83113 98.3822 5.97157C98.4721 6.09516 98.5901 6.2019 98.7137 6.34234C98.8597 5.99404 98.9833 5.69631 99.1125 5.39857C99.3878 4.75816 99.6687 4.11774 99.9383 3.47171C100.309 2.59536 100.68 1.719 101.051 0.842649C101.169 0.561766 101.27 0.280883 101.382 0C101.955 0 102.522 0 103.118 0M103.118 4.35369C102.826 3.64586 102.534 2.93804 102.236 2.20774C101.882 3.07286 101.539 3.91551 101.191 4.76939H103.292C103.236 4.63457 103.18 4.51098 103.124 4.35369H103.118Z" fill="black"/>
<path d="M117.269 0.0112305C117.291 2.74703 117.291 5.48283 117.291 8.22987H115.454V2.94365C115.235 3.26947 115.044 3.54474 114.859 3.82562C114.325 4.63456 113.797 5.44912 113.263 6.26369C113.173 6.40413 113.112 6.47154 112.982 6.26369C112.275 5.16824 111.55 4.08965 110.814 2.97735V8.22987H109.005V0.0337016C109.668 0.011231 110.325 0.011231 111.011 0.0337016C111.05 0.0954959 111.067 0.146053 111.095 0.185377C111.556 0.932525 112.016 1.67406 112.477 2.41559C112.69 2.76388 112.921 3.10094 113.151 3.45486C113.673 2.61782 114.173 1.80888 114.679 0.994321C114.881 0.668497 115.072 0.337055 115.263 0.0112305C115.926 0.0112305 116.583 0.0112305 117.269 0.0112305Z" fill="black"/>
<path d="M124.375 0.0112305C124.566 0.432555 124.735 0.84826 124.915 1.26958C125.235 2.03359 125.561 2.79759 125.881 3.56159C126.156 4.20762 126.431 4.84803 126.701 5.48845C127.027 6.25807 127.353 7.02769 127.678 7.79731C127.735 7.93775 127.802 8.07257 127.881 8.2411H126.381C125.915 8.2411 125.915 8.2411 125.746 7.81416C125.583 7.39283 125.415 6.97151 125.24 6.55018C125.218 6.49963 125.134 6.44907 125.083 6.44907C123.976 6.44345 122.864 6.44907 121.757 6.44907C121.527 7.01083 121.297 7.56136 121.061 8.11189C121.033 8.17369 120.943 8.2411 120.887 8.2411C120.308 8.25233 119.735 8.24672 119.14 8.24672C119.398 7.63439 119.645 7.02769 119.904 6.4266C120.229 5.65136 120.555 4.87051 120.892 4.09527C121.218 3.3425 121.55 2.58973 121.875 1.83135C122.111 1.28082 122.33 0.724674 122.561 0.174143C122.578 0.129202 122.611 0.0842593 122.639 0.0280828C123.212 0.0112298 123.785 0.0112305 124.375 0.0112305ZM123.027 3.33688C122.83 3.81438 122.628 4.29189 122.432 4.76939H124.533C124.179 3.90989 123.836 3.06724 123.482 2.20212C123.33 2.58973 123.19 2.94926 123.027 3.33688Z" fill="black"/>
<path d="M103.449 27.2176C102.837 26.4255 102.236 25.6446 101.641 24.8581C101.264 24.3638 100.888 23.8694 100.517 23.3807C100.495 23.3526 100.478 23.3189 100.433 23.2571V28.386H98.5901V20.1618C99.135 20.1618 99.6743 20.1393 100.208 20.1786C100.343 20.1899 100.483 20.3977 100.59 20.5382C101.287 21.4482 101.972 22.3639 102.663 23.274C103.135 23.8975 103.607 24.5155 104.107 25.1671V20.1674H105.904V28.3917C105.41 28.3917 104.916 28.3917 104.427 28.3917C104.376 28.3917 104.314 28.3523 104.286 28.3074C104.011 27.9479 103.742 27.5883 103.461 27.2176H103.449Z" fill="black"/>
<path d="M115.864 10.887C116.392 11.2914 116.786 11.7914 117.061 12.3757C117.33 12.9318 117.46 13.5329 117.46 14.1452C117.46 15.8979 116.505 17.4765 114.78 18.1562C114.319 18.336 113.853 18.4259 113.359 18.4596C112.488 18.5214 111.662 18.3641 110.898 17.954C109.758 17.336 109.05 16.3867 108.786 15.1058C108.595 14.1789 108.685 13.2857 109.084 12.4318C109.623 11.2634 110.539 10.4994 111.775 10.1398C112.364 9.96568 112.977 9.92074 113.6 9.98815C114.387 10.0724 115.083 10.3533 115.741 10.769C115.786 10.7971 115.819 10.842 115.87 10.887M115.016 15.8024C115.067 15.7294 115.134 15.6676 115.173 15.589C115.46 15.0328 115.6 14.4542 115.499 13.8194C115.387 13.1397 115.089 12.5779 114.55 12.1566C113.971 11.7128 113.314 11.5667 112.589 11.7015C111.786 11.8588 111.213 12.3251 110.87 13.0442C110.617 13.5778 110.567 14.1508 110.685 14.7351C110.814 15.3811 111.123 15.9148 111.668 16.3024C112.19 16.6788 112.769 16.8248 113.415 16.7406C114.078 16.6507 114.612 16.3586 115.027 15.7912L115.016 15.8024Z" fill="black"/>
<path d="M103.208 10.0892H105.23C105.23 10.5555 105.264 11.0105 105.213 11.4599C105.197 11.6229 104.989 11.7689 104.859 11.9206C104.438 12.4206 104.017 12.9205 103.59 13.4149C103.281 13.7744 102.966 14.1227 102.657 14.4822C102.23 14.9766 101.809 15.4822 101.382 15.9765C101.186 16.2069 100.978 16.4372 100.747 16.6956H102.702C103.466 16.6956 104.23 16.6956 104.994 16.6956C105.163 16.6956 105.236 16.7293 105.23 16.9203C105.219 17.3753 105.23 17.836 105.23 18.3079H98.3486C98.3486 17.8697 98.3093 17.4203 98.3654 16.9821C98.3879 16.7967 98.607 16.6282 98.7474 16.4597C99.1912 15.9372 99.635 15.4148 100.084 14.898C100.489 14.4317 100.899 13.9654 101.303 13.4935C101.719 13.0104 102.129 12.5161 102.545 12.0329C102.624 11.9374 102.73 11.8644 102.826 11.7801C102.815 11.7633 102.809 11.7464 102.798 11.724H98.4946V10.0892H103.202H103.208Z" fill="black"/>
<path d="M113.196 20.1617H113.859V28.3804H112.039V20.1617H113.196Z" fill="black"/>
<path d="M111.488 9.36465H110.707C110.853 9.18488 110.971 9.02759 111.106 8.87591C111.443 8.48829 111.786 8.09506 112.134 7.71868C112.19 7.65688 112.297 7.61756 112.381 7.61756C112.853 7.60632 113.325 7.60632 113.797 7.61756C113.887 7.61756 113.988 7.69059 114.055 7.76362C114.28 8.00517 114.488 8.26359 114.707 8.51077C114.949 8.78603 115.196 9.06129 115.471 9.36465C114.954 9.36465 114.471 9.3815 113.988 9.35341C113.853 9.34218 113.718 9.19612 113.595 9.10062C113.46 9.00512 113.336 8.88715 113.19 8.80288C113.14 8.76918 113.027 8.78041 112.971 8.81412C112.718 8.97141 112.482 9.15118 112.235 9.31409C112.19 9.34218 112.129 9.35903 112.072 9.36465C111.887 9.37027 111.696 9.36465 111.488 9.36465Z" fill="black"/>
<path d="M127.813 26.7288C127.97 26.7737 128.105 26.8074 128.24 26.8636C128.296 26.8861 128.341 26.9366 128.392 26.976C128.347 27.0265 128.308 27.0995 128.251 27.1164C128.043 27.1726 127.83 27.2063 127.622 27.2512C127.611 27.2288 127.594 27.2119 127.583 27.1894C127.617 27.1557 127.645 27.1108 127.684 27.0939C127.735 27.0715 127.802 27.0658 127.864 27.0265C127.617 27.049 127.487 26.9535 127.459 26.6782C127.577 26.6951 127.684 26.7175 127.813 26.7344V26.7288Z" fill="black"/>
<path d="M122.768 30.2399C122.768 30.0657 122.684 29.9814 122.431 29.9814H122.066V30.5095H122.431C122.65 30.5095 122.774 30.4196 122.774 30.2399H122.768Z" fill="black"/>
<path d="M127.364 29.1163H127.296C117.797 29.1163 108.303 29.1163 98.8036 29.1163C98.6238 29.1163 98.5732 29.1669 98.5732 29.3467C98.5845 30.2286 98.5732 31.1162 98.5957 31.9982C107.809 31.9982 116.999 31.9982 126.195 31.9813C126.223 31.9476 126.246 31.9195 126.274 31.9083C126.824 31.7735 127.251 31.4308 127.341 30.8971C127.442 30.3241 127.364 29.7174 127.364 29.1163ZM112.219 31.3578C111.775 31.3578 111.589 31.1443 111.55 30.8466L111.775 30.796C111.814 31.0376 111.96 31.1612 112.23 31.1612C112.477 31.1612 112.584 31.0657 112.584 30.9196C112.584 30.7735 112.488 30.6949 112.179 30.6443C111.758 30.5657 111.617 30.414 111.617 30.1781C111.617 29.9197 111.808 29.7455 112.185 29.7455C112.561 29.7455 112.724 29.9309 112.78 30.2062L112.544 30.2511C112.494 30.0432 112.415 29.9365 112.174 29.9365C111.955 29.9365 111.848 30.0264 111.848 30.1612C111.848 30.2904 111.915 30.3803 112.258 30.4421C112.707 30.532 112.82 30.6837 112.82 30.9027C112.82 31.1724 112.645 31.3522 112.224 31.3522L112.219 31.3578ZM113.994 31.3241H113.758V29.7792H113.994V31.3241ZM116.089 29.9871H115.252V30.4365H116.005V30.6443H115.252V31.1162H116.089V31.3241H115.016V29.7792H116.089V29.9871ZM118.769 31.3241H118.533V30.5601C118.533 30.3859 118.538 30.15 118.544 29.9758H118.493C118.432 30.1612 118.359 30.3972 118.28 30.605L118.022 31.2342H117.78L117.527 30.5938C117.443 30.3747 117.376 30.1556 117.319 29.9758H117.274C117.274 30.1219 117.274 30.3017 117.274 30.4646V31.3241H117.055V29.7792H117.449L117.724 30.4983C117.763 30.605 117.836 30.8241 117.892 30.9926H117.937C117.988 30.8185 118.061 30.6106 118.106 30.4927L118.387 29.7792H118.757V31.3241H118.769ZM120.398 30.7735H120.027V31.3241H119.791V29.7792H120.392C120.757 29.7792 120.937 29.9421 120.937 30.2792C120.937 30.5657 120.746 30.7792 120.398 30.7792V30.7735ZM123.094 31.3241H122.819L122.392 30.7118H122.066V31.3241H121.83V29.7792H122.454C122.836 29.7792 123.004 29.9421 123.004 30.2343C123.004 30.4814 122.875 30.6387 122.634 30.6949L123.094 31.3016V31.3297V31.3241ZM125.089 29.9871H124.252V30.4365H125.004V30.6443H124.252V31.1162H125.089V31.3241H124.016V29.7792H125.089V29.9871Z" fill="black"/>
<path d="M120.37 29.9814H120.027V30.5769H120.37C120.605 30.5769 120.701 30.4814 120.701 30.2792C120.701 30.0769 120.617 29.9814 120.364 29.9814H120.37Z" fill="black"/>
<path d="M61.8729 11.741V12.7971H60.3281V17.1676H59.1315V12.7971H57.5867V11.741H61.8729Z" fill="black"/>
<path d="M17.1619 31.5376C17.3024 31.5376 17.426 31.6443 17.3642 31.9196L16.7013 32.0712C16.8193 31.7623 17.0103 31.5376 17.1619 31.5376ZM17.5271 32.6049H17.3979C17.2294 32.8015 17.0552 32.9588 16.8754 32.9588C16.6957 32.9588 16.6002 32.8521 16.6002 32.6049C16.6002 32.5038 16.6114 32.4027 16.6283 32.3128L17.6956 31.9589C17.9035 31.4645 17.6507 31.2511 17.3586 31.2511C16.853 31.2511 16.28 32.0993 16.28 32.8352C16.28 33.1667 16.4373 33.3465 16.6844 33.3465C16.9766 33.3465 17.2743 33.0656 17.5215 32.5993M17.3136 31.0545L18.0664 30.3522V30.268H17.6619L17.1956 31.0545H17.3136ZM15.0048 31.5488H15.3587L14.7969 33.088C14.7463 33.2172 14.8138 33.3521 14.9486 33.3521C15.2688 33.3521 15.7856 33.0375 15.9654 32.6049H15.8643C15.7238 32.7566 15.4485 32.9588 15.2126 32.9982L15.7294 31.5488H16.2575L16.3249 31.3297H15.8137L16.0103 30.7736H15.8081L15.4429 31.3297L15.0048 31.3915V31.5488ZM14.5273 31.4758C14.5722 31.3353 14.4711 31.2511 14.3981 31.2511C14.0891 31.2511 13.7239 31.5263 13.5779 31.9196H13.679C13.7801 31.7791 13.9486 31.6162 14.1059 31.5937L13.5161 33.133C13.4599 33.2734 13.5723 33.3577 13.6453 33.3577C13.9374 33.3577 14.2801 33.0768 14.4318 32.6892H14.3306C14.2295 32.8296 14.061 32.9925 13.9037 33.015L14.5329 31.4758H14.5273ZM14.634 30.7005C14.7744 30.7005 14.8868 30.5882 14.8868 30.4477C14.8868 30.3073 14.7688 30.1949 14.634 30.1949C14.4992 30.1949 14.3812 30.3129 14.3812 30.4477C14.3812 30.5826 14.4935 30.7005 14.634 30.7005ZM11.2353 33.0656C11.1567 33.2397 11.2353 33.3521 11.4095 33.3521C11.5106 33.3521 11.5611 33.324 11.6005 33.2116L12.0106 32.1274C12.2016 31.8971 12.5892 31.6499 12.7465 31.6499C12.8588 31.6499 12.842 31.7398 12.7689 31.8802L12.1397 33.088C12.078 33.206 12.1566 33.3521 12.2914 33.3521C12.6004 33.3521 12.9655 33.0768 13.1116 32.6836H13.0105C12.9094 32.824 12.7408 32.9869 12.5835 33.0094L13.1228 31.9196C13.1902 31.7791 13.224 31.6499 13.224 31.5432C13.224 31.3634 13.1228 31.2511 12.9375 31.2511C12.6734 31.2511 12.3982 31.5544 12.0836 31.9252V31.6387C12.0836 31.4365 12.0162 31.2511 11.8308 31.2511C11.7128 31.2511 11.6005 31.3522 11.4993 31.4926V31.532C11.7016 31.5207 11.7915 31.8241 11.6454 32.1387L11.2297 33.0656H11.2353ZM11.2241 31.723C11.2971 31.4702 11.2578 31.2511 11.0668 31.2511C10.8365 31.2511 10.7803 31.4252 10.55 31.9252V31.6387C10.55 31.4365 10.4825 31.2511 10.2972 31.2511C10.0837 31.2511 9.88707 31.5881 9.73539 31.9196H9.83652C9.93764 31.7679 10.0388 31.678 10.1118 31.678C10.2017 31.678 10.2522 31.8185 10.1118 32.1387L9.69608 33.0656C9.61743 33.2397 9.69608 33.3521 9.87022 33.3521C9.97134 33.3521 10.0219 33.324 10.0612 33.2116L10.4713 32.1274C10.5893 31.987 10.6904 31.8634 10.8252 31.723H11.2297H11.2241ZM8.85343 31.5376C8.99387 31.5376 9.11745 31.6443 9.05566 31.9196L8.39278 32.0712C8.50513 31.7623 8.70175 31.5376 8.85343 31.5376ZM9.2242 32.6049H9.09499C8.92646 32.8015 8.75231 32.9588 8.57255 32.9588C8.39278 32.9588 8.29727 32.8521 8.29727 32.6049C8.29727 32.5038 8.30852 32.4027 8.32537 32.3128L9.39272 31.9589C9.60057 31.4645 9.34778 31.2511 9.05566 31.2511C8.55007 31.2511 7.97708 32.0993 7.97708 32.8352C7.97708 33.1667 8.13437 33.3465 8.38155 33.3465C8.67367 33.3465 8.9714 33.0656 9.21857 32.5993M6.70186 31.5488H7.05577L6.49401 33.088C6.44345 33.2172 6.51085 33.3521 6.64568 33.3521C6.96588 33.3521 7.48271 33.0375 7.66247 32.6049H7.56136C7.42092 32.7566 7.14565 32.9588 6.90971 32.9982L7.42654 31.5488H7.9546L8.02201 31.3297H7.50518L7.7018 30.7736H7.49957L7.13443 31.3297L6.69625 31.3915V31.5488H6.70186ZM4.75253 32.751C4.75253 32.2791 5.28059 31.6331 5.57832 31.6331C5.64574 31.6331 5.70754 31.6387 5.75809 31.6555L5.44913 32.4757C5.26936 32.6892 4.9941 32.9532 4.87051 32.9532C4.79748 32.9532 4.75253 32.8914 4.75253 32.751ZM6.37604 31.1612L6.21312 31.15L6.03335 31.3297H5.99404C5.11207 31.3297 4.35368 32.3184 4.35368 33.0375C4.35368 33.2397 4.47727 33.3521 4.66827 33.3521C4.89859 33.3521 5.1233 33.0262 5.37047 32.678L5.35924 32.8015C5.33116 33.1555 5.43789 33.3521 5.62328 33.3521C5.83675 33.3521 6.03336 33.015 6.18504 32.6836H6.08391C5.98279 32.8352 5.88168 32.9251 5.80865 32.9251C5.72439 32.9251 5.66821 32.7791 5.80865 32.4645L6.37604 31.1612ZM4.49974 31.723C4.57277 31.4702 4.53345 31.2511 4.34245 31.2511C4.11213 31.2511 4.05594 31.4252 3.82562 31.9252V31.6387C3.82562 31.4365 3.7582 31.2511 3.57282 31.2511C3.35935 31.2511 3.16273 31.5881 3.01105 31.9196H3.11218C3.2133 31.7679 3.31441 31.678 3.38744 31.678C3.47732 31.678 3.52788 31.8185 3.38744 32.1387L2.97174 33.0656C2.89309 33.2397 2.97174 33.3521 3.14589 33.3521C3.247 33.3521 3.29756 33.324 3.33688 33.2116L3.74698 32.1274C3.86495 31.987 3.96605 31.8634 4.10088 31.723H4.50535H4.49974ZM1.54485 33.2734L1.58418 33.1555C1.07297 33.06 1.00555 33.06 1.20779 32.4982L1.41564 31.9252H1.98303C2.23582 31.9252 2.24145 32.0263 2.20212 32.3072H2.34817L2.69086 31.3747H2.54479C2.41559 31.5937 2.31447 31.7567 2.03921 31.7567H1.47744L1.77518 30.9421C1.86506 30.6837 1.92124 30.6275 2.26953 30.6275H2.51671C2.87624 30.6275 2.92118 30.723 2.92118 31.0882H3.06162L3.17959 30.4534H1.04487L1.00556 30.5713C1.41565 30.6556 1.46058 30.6949 1.26397 31.2286L0.797709 32.4926C0.606708 33.0206 0.522434 33.0656 0.0505503 33.1498L0.0168457 33.2678H1.53923L1.54485 33.2734Z" fill="black"/>
<path d="M11.9881 26.712C12.1285 26.712 12.2521 26.8187 12.1903 27.094L11.5274 27.2457C11.6398 26.9367 11.8364 26.712 11.9881 26.712ZM12.3588 27.7793H12.2296C12.0611 27.976 11.887 28.1333 11.7072 28.1333C11.5274 28.1333 11.4319 28.0265 11.4319 27.7793C11.4319 27.6782 11.4432 27.5771 11.46 27.4872L12.5274 27.1333C12.7352 26.639 12.4824 26.4255 12.1903 26.4255C11.6847 26.4255 11.1117 27.2738 11.1117 28.0097C11.1117 28.3411 11.269 28.5209 11.5162 28.5209C11.8083 28.5209 12.106 28.24 12.3532 27.7737M12.1454 26.2289L12.8981 25.5267V25.4424H12.4937L12.0274 26.2289H12.1454ZM9.83651 26.7232H10.1904L9.62864 28.2625C9.57808 28.3917 9.64551 28.5265 9.78033 28.5265C10.1005 28.5265 10.6174 28.2119 10.7971 27.7793H10.696C10.5556 27.931 10.2803 28.1333 10.0444 28.1726L10.5612 26.7232H11.0892L11.1566 26.5041H10.6455L10.8421 25.948H10.6398L10.2747 26.5041L9.83651 26.5659V26.7232ZM9.35901 26.6502C9.40395 26.5098 9.30282 26.4255 9.2298 26.4255C8.92082 26.4255 8.55568 26.7008 8.40962 27.094H8.51074C8.61185 26.9535 8.78039 26.7906 8.93768 26.7682L8.34782 28.3074C8.29164 28.4478 8.404 28.5321 8.47703 28.5321C8.76915 28.5321 9.11182 28.2512 9.2635 27.8636H9.16239C9.06127 28.0041 8.89273 28.167 8.73544 28.1894L9.36463 26.6502H9.35901ZM9.46574 25.875C9.60619 25.875 9.71853 25.7626 9.71853 25.6222C9.71853 25.4817 9.60057 25.3694 9.46574 25.3694C9.33092 25.3694 9.21294 25.4873 9.21294 25.6222C9.21294 25.757 9.3253 25.875 9.46574 25.875ZM7.40968 28.1838L8.48826 25.3638L8.45456 25.3188L7.78045 25.3975V25.4817L7.90964 25.5828C8.02761 25.6727 7.99391 25.7626 7.88156 26.0491L7.03891 28.2681C6.97712 28.3861 7.05576 28.5321 7.19058 28.5321C7.49955 28.5321 7.82539 28.2568 7.97707 27.8636H7.87594C7.77482 28.0041 7.56697 28.167 7.40968 28.1894M5.36484 27.9254C5.36484 27.4535 5.8929 26.8075 6.19064 26.8075C6.25805 26.8075 6.31985 26.8131 6.37041 26.83L6.06144 27.6501C5.88168 27.8636 5.60641 28.1276 5.48283 28.1276C5.4098 28.1276 5.36484 28.0658 5.36484 27.9254ZM6.98835 26.3356L6.82544 26.3244L6.64567 26.5041H6.60636C5.72439 26.5041 4.96599 27.4928 4.96599 28.2119C4.96599 28.4141 5.08958 28.5265 5.28058 28.5265C5.51091 28.5265 5.73561 28.2007 5.98279 27.8524L5.97156 27.976C5.94347 28.3299 6.05021 28.5265 6.23559 28.5265C6.44906 28.5265 6.64568 28.1894 6.79736 27.858H6.69624C6.59512 28.0097 6.494 28.0996 6.42097 28.0996C6.3367 28.0996 6.28052 27.9535 6.42097 27.6389L6.98835 26.3356ZM3.06162 28.8973C3.06162 28.695 3.25822 28.5658 3.5391 28.4535C3.62899 28.4984 3.76944 28.549 3.95482 28.6108C4.24694 28.7063 4.35929 28.7456 4.35929 28.8355C4.35929 29.0265 4.03908 29.1669 3.60091 29.1669C3.23576 29.1669 3.05599 29.0883 3.05599 28.8973M3.85931 27.6501C3.73011 27.6501 3.67955 27.5434 3.67955 27.4198C3.67955 27.0771 3.86493 26.5715 4.15143 26.5715C4.28063 26.5715 4.3312 26.6783 4.3312 26.8019C4.3312 27.1446 4.14582 27.6501 3.85931 27.6501ZM4.69634 28.7119C4.69634 28.4647 4.47725 28.3748 4.11772 28.2681C3.80875 28.1782 3.66832 28.1501 3.66832 28.049C3.66832 27.9647 3.73573 27.8692 3.86494 27.8018C4.37053 27.7737 4.69634 27.3187 4.69634 26.9367C4.69634 26.8524 4.67949 26.785 4.65141 26.7232H5.07835L5.14576 26.5041H4.46603C4.38177 26.4536 4.28625 26.4255 4.19075 26.4255C3.65146 26.4255 3.30878 26.8974 3.30878 27.2794C3.30878 27.5715 3.49417 27.7513 3.71887 27.7906C3.46608 27.9029 3.33125 28.0321 3.33125 28.1894C3.33125 28.2793 3.35934 28.3411 3.43237 28.3973C2.85375 28.5658 2.62344 28.7624 2.62344 29.0321C2.62344 29.3017 2.97735 29.4085 3.39306 29.4085C4.10088 29.4085 4.69073 29.0265 4.69073 28.7063M1.99987 27.0603C2.25267 27.0603 2.25829 27.1614 2.21897 27.4423H2.36502L2.7077 26.5098H2.56164C2.43243 26.7288 2.33132 26.8918 2.05605 26.8918H1.49428L1.77517 26.1165C1.86505 25.8581 1.92123 25.8075 2.26952 25.8075H2.5167C2.87623 25.8075 2.92118 25.903 2.92118 26.2626H3.06162L3.17958 25.6278H1.05049L1.01116 25.7458C1.42125 25.83 1.4662 25.8693 1.26958 26.403L0.803307 27.667C0.612306 28.1951 0.528049 28.24 0.0561655 28.3243L0.0224609 28.4422H2.39311L2.81444 27.7681H2.65152C2.38187 28.0209 2.0392 28.2681 1.56732 28.2681C0.938139 28.2681 0.994302 28.24 1.20216 27.667L1.42688 27.0547H1.99425L1.99987 27.0603ZM2.30884 25.4424L3.06162 24.9256V24.8413H2.60657L2.19087 25.4424H2.30884Z" fill="black"/>
<path d="M11.7409 21.8863C11.8813 21.8863 12.0049 21.9931 11.9431 22.2683L11.2802 22.42C11.3926 22.1111 11.5892 21.8863 11.7409 21.8863ZM12.106 22.9537H11.9768C11.8083 23.1503 11.6342 23.3076 11.4544 23.3076C11.2746 23.3076 11.1791 23.2009 11.1791 22.9537C11.1791 22.8526 11.1904 22.7515 11.2072 22.6616L12.2746 22.3077C12.4824 21.8133 12.2296 21.5998 11.9375 21.5998C11.4319 21.5998 10.8589 22.4481 10.8589 23.184C10.8589 23.5155 11.0162 23.6952 11.2634 23.6952C11.5555 23.6952 11.8533 23.4143 12.1004 22.9481M11.8926 21.4032L12.6453 20.701V20.6168H12.2409L11.7746 21.4032H11.8926ZM9.68483 21.8976H9.96571L9.40395 23.4368C9.35339 23.566 9.42081 23.7008 9.55564 23.7008C9.87584 23.7008 10.3927 23.3863 10.5724 22.9537H10.4713C10.3309 23.1054 10.0556 23.3076 9.81967 23.3469L10.3365 21.8976H10.8645L10.932 21.6785H10.4207L10.6174 21.1223H10.4151L10.05 21.6785L9.68483 21.7403V21.8976ZM9.40395 22.0717C9.47698 21.8189 9.43766 21.5998 9.24665 21.5998C9.01633 21.5998 8.96016 21.774 8.72984 22.274V21.9875C8.72984 21.7852 8.66242 21.5998 8.47704 21.5998C8.26357 21.5998 8.06695 21.9369 7.91527 22.2683H8.01639C8.1175 22.1167 8.21863 22.0268 8.29166 22.0268C8.38155 22.0268 8.43211 22.1672 8.29166 22.4874L7.87595 23.4143C7.7973 23.5885 7.87594 23.7008 8.05009 23.7008C8.15121 23.7008 8.20178 23.6728 8.24111 23.5604L8.65118 22.4762C8.76916 22.3358 8.87028 22.2122 9.0051 22.0717H9.40957H9.40395ZM7.0333 21.8863C7.17374 21.8863 7.29734 21.9931 7.23554 22.2683L6.57266 22.42C6.68501 22.1111 6.88162 21.8863 7.0333 21.8863ZM7.39846 22.9537H7.26925C7.10072 23.1503 6.92657 23.3076 6.74681 23.3076C6.56704 23.3076 6.47153 23.2009 6.47153 22.9537C6.47153 22.8526 6.48278 22.7515 6.49963 22.6616L7.56698 22.3077C7.77483 21.8133 7.52204 21.5998 7.22992 21.5998C6.72433 21.5998 6.15134 22.4481 6.15134 23.184C6.15134 23.5155 6.30863 23.6952 6.55581 23.6952C6.84793 23.6952 7.14566 23.4143 7.39283 22.9481M4.78063 23.3863C4.67951 23.3863 4.52783 23.2908 4.52783 23.2065C4.52783 23.1784 4.57276 23.0604 4.62894 22.9088L4.80309 22.4481C4.98847 22.229 5.26936 21.9931 5.42665 21.9931C5.52215 21.9931 5.59518 22.0549 5.59518 22.1953C5.59518 22.6166 5.20195 23.3863 4.775 23.3863M5.99404 22.0268C5.99404 21.7122 5.87606 21.5998 5.66259 21.5998C5.39294 21.5998 5.14015 21.8863 4.88174 22.2346L5.52777 20.5381L5.49406 20.4932L4.81994 20.5718V20.6561L4.94915 20.7572C5.06712 20.8471 5.03342 20.9482 4.92107 21.2235L4.22447 23.0155C4.17391 23.1447 4.11212 23.302 4.11212 23.3413C4.11212 23.5267 4.36492 23.7008 4.58963 23.7008C5.11207 23.7008 5.98842 22.7571 5.98842 22.0268M3.89303 21.8246C3.93797 21.6841 3.83686 21.5998 3.76383 21.5998C3.45486 21.5998 3.0897 21.8751 2.94364 22.2683H3.04477C3.14589 22.1279 3.31441 21.965 3.4717 21.9425L2.88186 23.4818C2.82568 23.6222 2.93802 23.7065 3.01105 23.7065C3.30317 23.7065 3.64586 23.4256 3.79754 23.038H3.69641C3.59529 23.1784 3.42677 23.3413 3.26948 23.3638L3.89865 21.8246H3.89303ZM4.00539 21.0493C4.14583 21.0493 4.25817 20.937 4.25817 20.7965C4.25817 20.6561 4.14021 20.5437 4.00539 20.5437C3.87056 20.5437 3.75259 20.6617 3.75259 20.7965C3.75259 20.9313 3.86495 21.0493 4.00539 21.0493ZM2.44929 20.8021H1.04487L1.00556 20.9201C1.41565 21.0044 1.46059 21.0437 1.26397 21.5774L0.808939 22.8413C0.617938 23.3694 0.533664 23.4143 0.0617807 23.4986L0.0280762 23.6166H2.1684L2.63468 22.7908H2.47176C2.20773 23.0829 1.89877 23.4424 1.42688 23.4424C1.06735 23.4424 1.02242 23.3806 1.21903 22.8413L1.67406 21.5774C1.86506 21.0493 1.94932 21.0044 2.4212 20.9201L2.45491 20.7965L2.44929 20.8021Z" fill="black"/>
<path d="M12.1621 3.49983C12.2126 3.51107 12.2969 3.51107 12.2969 3.53916C12.2688 3.64589 12.1115 3.67398 12.0329 3.7751H11.9936C11.9542 3.80319 11.9655 3.86498 11.9261 3.86498C11.8868 3.85375 11.8475 3.86498 11.8082 3.87622C11.8587 3.92678 11.9261 3.9661 12.0048 3.95486C12.016 3.95486 12.0441 3.98295 12.0441 4.00542C12.0441 4.00542 12.0553 4.00542 12.0722 3.99419C12.0834 3.99419 12.1003 3.99419 12.1003 4.00542V4.05598C12.061 4.10654 11.9936 4.08407 11.943 4.0953C12.0497 4.12339 12.1565 4.12339 12.2463 4.0953C12.325 4.06722 12.2463 3.93801 12.2969 3.8706C12.2688 3.8706 12.2969 3.83127 12.2688 3.83127C12.2969 3.80319 12.3194 3.76386 12.3475 3.75263C12.3756 3.75263 12.4149 3.74139 12.4261 3.7133C12.4261 3.68522 12.3755 3.67398 12.3868 3.64589C12.4654 3.59533 12.5329 3.51107 12.5048 3.43242C12.4935 3.3931 12.3868 3.3931 12.3194 3.36501C12.252 3.33692 12.1733 3.36501 12.0947 3.37624C12.0273 3.37624 11.9598 3.41557 11.898 3.4268C11.8082 3.45489 11.7239 3.50545 11.6453 3.56163C11.7351 3.5223 11.8306 3.51107 11.9374 3.48298C12.016 3.48298 12.0834 3.46613 12.1621 3.48298V3.49983Z" fill="white"/>
<path d="M2.96612 15.2295V14.3082H5.58958V14.5553C5.58958 15.0048 5.51654 15.4092 5.36486 15.7631C5.21318 16.117 5.01095 16.4035 4.75254 16.617C4.36492 16.9428 4.20764 16.9934 3.88743 17.1058C3.56722 17.2181 3.22454 17.2743 2.86501 17.2743C2.47177 17.2743 2.101 17.2069 1.75271 17.0664C1.40441 16.926 1.10106 16.735 0.84265 16.4934C0.589856 16.2463 0.38201 15.9485 0.235951 15.5946C0.0842737 15.2407 0.0112305 14.8587 0.0112305 14.4542C0.0112305 14.1284 0.0617949 13.8194 0.157295 13.5217C0.252795 13.224 0.393243 12.9655 0.56739 12.7408C0.741538 12.5161 0.949377 12.3139 1.18532 12.151C1.42126 11.9825 1.6853 11.8589 1.97181 11.769C2.25831 11.6791 2.55604 11.6342 2.86501 11.6342C3.59531 11.6342 4.19077 11.8027 4.6458 12.1454C5.10083 12.488 5.38171 12.9543 5.48845 13.5498H4.26943C4.18516 13.2857 4.02225 13.0779 3.77507 12.9262C3.52789 12.7745 3.22453 12.7015 2.87062 12.7015C2.40435 12.7015 2.01673 12.8644 1.69653 13.1959C1.37632 13.5273 1.21904 13.943 1.21904 14.4542C1.21904 14.9654 1.37632 15.3811 1.69653 15.7126C2.01673 16.044 2.40997 16.2069 2.87062 16.2069C3.25262 16.2069 3.57283 16.1227 3.82563 15.9541C4.07842 15.7856 4.25256 15.544 4.34806 15.2295H2.97175H2.96612Z" fill="black"/>
<path d="M9.7239 17.072C9.36999 17.2125 8.99361 17.2799 8.606 17.2799C8.21838 17.2799 7.84199 17.2069 7.48246 17.072C7.12293 16.9372 6.81958 16.7406 6.55555 16.499C6.29152 16.2575 6.08366 15.9541 5.92636 15.6002C5.76907 15.2463 5.69043 14.8643 5.69043 14.4598C5.69043 14.0554 5.76907 13.6734 5.92636 13.3194C6.08366 12.9655 6.29152 12.6678 6.55555 12.4206C6.81958 12.1791 7.12855 11.9881 7.48246 11.8476C7.83638 11.7072 8.21276 11.6398 8.606 11.6398C8.99923 11.6398 9.36999 11.7072 9.7239 11.8476C10.0778 11.9881 10.3868 12.1791 10.6508 12.4206C10.9148 12.6622 11.1227 12.9655 11.28 13.3194C11.4317 13.6734 11.5103 14.0554 11.5103 14.4598C11.5103 14.8643 11.4317 15.2463 11.28 15.6002C11.1283 15.9541 10.9148 16.2519 10.6508 16.499C10.3868 16.7406 10.0778 16.9316 9.7239 17.072ZM7.38696 15.7182C7.71278 16.044 8.11726 16.2125 8.606 16.2125C9.09473 16.2125 9.49919 16.0496 9.82502 15.7182C10.1508 15.3924 10.3138 14.971 10.3138 14.4598C10.3138 13.9486 10.1508 13.5273 9.82502 13.2015C9.49919 12.8757 9.09473 12.7071 8.606 12.7071C8.11726 12.7071 7.71278 12.87 7.38696 13.2015C7.06113 13.5273 6.89822 13.9486 6.89822 14.4598C6.89822 14.971 7.06113 15.3924 7.38696 15.7182Z" fill="black"/>
<path d="M15.061 17.0328C14.7352 17.1957 14.3644 17.28 13.9431 17.28C13.5218 17.28 13.151 17.1957 12.8252 17.0328C12.4993 16.8699 12.2409 16.6227 12.0499 16.2913C11.8589 15.9598 11.7634 15.5666 11.7634 15.1116V11.7466H12.96V15.2127C12.96 15.516 13.0499 15.7632 13.2296 15.9486C13.4094 16.134 13.6453 16.2295 13.9375 16.2295C14.2296 16.2295 14.4655 16.1396 14.6453 15.9486C14.8251 15.7632 14.9149 15.516 14.9149 15.2127V11.7466H16.1115V15.1116C16.1115 15.5666 16.016 15.9598 15.825 16.2913C15.634 16.6227 15.3756 16.8699 15.0498 17.0328" fill="black"/>
<path d="M20.0215 17.1676H18.6115L16.5891 11.741H17.8531L19.1564 15.4542C19.2407 15.7239 19.2968 15.8924 19.3193 15.9598C19.3418 15.8924 19.3923 15.7239 19.4822 15.4542L20.7799 11.741H22.0439L20.0215 17.1676Z" fill="black"/>
<path d="M26.1331 17.1676H22.5715V11.741H26.0376V12.7971H23.7681V13.8026H25.6781V14.8588H23.7681V16.1115H26.1331V17.1676Z" fill="black"/>
<path d="M29.8073 15.1228L30.8578 17.1676H29.5713L28.6332 15.3531H27.813V17.1676H26.6165V11.741H28.6557C29.2848 11.741 29.796 11.8983 30.1724 12.2129C30.5488 12.5274 30.7454 12.9712 30.7454 13.5499C30.7454 13.9262 30.6612 14.2464 30.4983 14.5105C30.3353 14.7745 30.0994 14.9767 29.8073 15.1228ZM28.6107 12.7521H27.8186V14.3476H28.6107C28.9029 14.3476 29.1332 14.2801 29.3017 14.1397C29.4702 13.9993 29.5545 13.8026 29.5545 13.5499C29.5545 13.2971 29.4702 13.0948 29.3017 12.96C29.1332 12.8252 28.9029 12.7521 28.6107 12.7521Z" fill="black"/>
<path d="M32.6836 17.1676H31.4871V11.741H32.6836L35.1273 15.2576C35.1161 15.0554 35.1104 14.8307 35.1104 14.5779V11.741H36.307V17.1676H35.1104L32.6668 13.651C32.678 13.8532 32.6836 14.0779 32.6836 14.3307V17.1676Z" fill="black"/>
<path d="M40.9866 17.1676H37.425V11.741H40.8911V12.7971H38.6216V13.8026H40.5316V14.8588H38.6216V16.1115H40.9866V17.1676Z" fill="black"/>
<path d="M44.5201 14.3813L45.4695 11.741H46.9582V17.1676H45.8009V14.4262C45.8009 14.2352 45.8178 13.9487 45.8459 13.5667L44.6381 17.1676H43.7786L42.5708 13.5667C42.6045 13.9487 42.6157 14.2352 42.6157 14.4262V17.1676H41.4585V11.741H42.9472L43.8965 14.3813C43.8965 14.3813 43.919 14.4374 43.9527 14.5273C43.9864 14.6172 44.0089 14.679 44.0201 14.7071C44.0314 14.7352 44.0482 14.7914 44.0763 14.8756C44.1044 14.9599 44.1212 15.0217 44.1381 15.0722C44.1549 15.1228 44.1606 15.179 44.1774 15.252C44.1943 15.325 44.1999 15.3868 44.2055 15.4486C44.2055 15.3868 44.2224 15.325 44.2336 15.252C44.2449 15.179 44.2617 15.1228 44.2729 15.0666C44.2898 15.0161 44.3066 14.9486 44.3347 14.8756C44.3628 14.797 44.3797 14.7408 44.3965 14.7015C44.4134 14.6621 44.4302 14.606 44.4639 14.5273C44.4976 14.4487 44.5089 14.3981 44.5201 14.3756V14.3813Z" fill="black"/>
<path d="M51.4691 17.1676H47.9075V11.741H51.3736V12.7971H49.104V13.8026H51.0141V14.8588H49.104V16.1115H51.4691V17.1676Z" fill="black"/>
<path d="M53.2161 17.1676H52.0195V11.741H53.2161L55.6598 15.2576C55.6485 15.0554 55.6429 14.8307 55.6429 14.5779V11.741H56.8395V17.1676H55.6429L53.1992 13.651C53.2105 13.8532 53.2161 14.0779 53.2161 14.3307V17.1676Z" fill="black"/>
<path d="M7.95464 7.2187L8.17934 6.98838C8.31417 6.82546 8.46585 6.67379 8.62314 6.53335L8.76919 6.40414C8.76919 6.40414 8.79166 6.37044 8.79166 6.35358L8.61752 6.4547C8.61752 6.4547 8.59505 6.4547 8.61752 6.42661L8.74111 6.32549H8.71863C8.55572 6.31987 8.39843 6.3929 8.29731 6.52773H8.24675C8.05013 6.60638 7.89846 6.78052 7.70184 6.85917L7.45466 6.96029C7.34792 6.97152 7.2412 6.97152 7.13447 6.96029L6.64011 7.06141L6.39293 7.16252H6.37045C6.37045 7.16252 6.35921 7.19061 6.34798 7.19061L6.27496 7.26926C6.19632 7.31982 6.12327 7.38161 6.05024 7.44902H6.02779L5.80307 7.67935H5.78061C5.78061 7.67935 5.80308 7.65126 5.83116 7.62879C5.83116 7.61194 5.8424 7.58947 5.85364 7.57823C5.88173 7.55014 5.89858 7.51644 5.9042 7.47711L6.1289 7.32544C6.1289 7.32544 6.10642 7.3142 6.10642 7.29735H6.05587C6.0334 7.34791 6.00531 7.39847 5.95475 7.39847C5.95475 7.39847 5.96598 7.37038 5.97721 7.37038L6.07834 7.29173L6.22439 7.19061H6.24687L6.02216 7.29173H5.99969C5.99969 7.29173 5.99968 7.31982 5.97721 7.29173L6.05024 7.21308H6.07272C6.49404 6.88164 7.08389 6.96029 7.57825 6.78052L7.70184 6.70188C7.7524 6.67379 7.80296 6.60076 7.89846 6.57267C7.99958 6.48279 8.07822 6.37043 8.12316 6.24123H8.1007C7.92094 6.31426 7.72993 6.35358 7.53331 6.37043C7.25243 6.48279 6.94907 6.53335 6.64571 6.52211H6.71875C6.71875 6.52211 6.74122 6.47155 6.7693 6.44346H6.81986C6.81986 6.44346 6.8311 6.41537 6.84234 6.41537H6.89289C6.84233 6.36482 6.76932 6.46593 6.69629 6.41537C6.62326 6.36482 6.71876 6.36482 6.74685 6.33673H6.7974C6.7974 6.33673 6.80863 6.2974 6.81986 6.28617C7.01648 6.15696 7.2131 6.08393 7.38725 5.95473C7.5614 5.82552 7.33669 6.00529 7.28614 5.98282C7.23558 5.96035 7.28614 5.93226 7.30861 5.93226C7.45467 5.8817 7.59511 5.82552 7.72994 5.75249C7.67938 5.75249 7.62881 5.80305 7.58387 5.75249H7.6569V5.70193C7.6569 5.70193 7.66814 5.67384 7.67938 5.67384H7.6569L7.72994 5.62328H7.70746C7.74678 5.56711 7.81419 5.53902 7.88161 5.54464C7.85914 5.51655 7.80857 5.54464 7.80857 5.51655C7.80857 5.48846 7.83104 5.48846 7.85913 5.48846H7.80857C7.80857 5.48846 7.7861 5.47723 7.7861 5.46037C7.7861 5.44352 7.79734 5.43228 7.80857 5.43228C7.85913 5.32555 7.90408 5.21881 7.93216 5.10084H7.90969C7.75239 5.23567 7.56701 5.32555 7.36477 5.38173H7.29176C7.21873 5.40981 7.13445 5.39858 7.06704 5.35364L6.94345 5.25252L6.59516 5.07275C6.27495 4.93793 5.93228 4.85367 5.58399 4.81996C5.73566 4.76378 5.89295 4.71884 6.05024 4.69075C6.2581 4.59525 6.48842 4.55593 6.71875 4.56155C6.66819 4.53346 6.61763 4.56155 6.59516 4.56155C6.40416 4.55031 6.20755 4.57278 6.02779 4.64019L5.63454 4.74131C5.56151 4.7694 5.51095 4.87052 5.43792 4.84243V4.79187C5.55589 4.61772 5.73004 4.49975 5.93228 4.46043C6.1626 4.43234 6.39855 4.43796 6.62326 4.48852L7.14007 4.58964C7.19063 4.58964 7.2131 4.69076 7.26366 4.71884C7.31422 4.74693 7.40972 4.71884 7.51084 4.7694C7.61196 4.81996 7.48837 4.71884 7.51084 4.69075C7.53331 4.66267 7.61196 4.69075 7.68498 4.66267C7.75801 4.63458 7.58388 4.4829 7.53894 4.38178C7.63444 4.47728 7.74116 4.56717 7.85913 4.63458C7.93216 4.68514 8.08384 4.71323 8.05575 4.63458C7.97149 4.48852 7.87037 4.35369 7.75802 4.23011V4.17955H7.70746V4.05034C7.6569 4.02225 7.68499 3.97169 7.63443 3.94922C7.58387 3.92675 7.63442 3.76946 7.61195 3.69643C7.58386 3.6234 7.56701 3.54475 7.5614 3.4661C7.51084 3.24701 7.46589 3.02793 7.43781 2.80884C7.41534 2.55604 7.58387 2.35381 7.70746 2.12348C7.78049 1.94372 7.9097 1.79204 8.07823 1.69092C8.12317 1.52801 8.20744 1.37634 8.32541 1.25837C8.42652 1.12916 8.56696 1.02804 8.71863 0.977483L9.0894 0.825806H11.7297L11.7803 0.876365L11.9769 0.977483C12.0724 1.02242 12.1567 1.09545 12.2241 1.17972C12.2465 1.23028 12.2971 1.30892 12.2746 1.35948C12.2521 1.41004 12.2241 1.53925 12.1735 1.56172C12.078 1.60104 11.9769 1.62351 11.8758 1.61228L11.7297 1.56172C11.9376 1.63475 12.1173 1.76395 12.2465 1.94372L12.3701 1.99428C12.3701 1.99428 12.3196 2.04484 12.3477 2.07292H12.3701C12.4431 2.04484 12.4207 1.92125 12.5162 1.97181C12.578 1.99428 12.6117 2.06731 12.5892 2.13472C12.5892 2.15157 12.578 2.16281 12.5667 2.17404L12.4207 2.30325C12.3982 2.33134 12.3982 2.37628 12.4207 2.40437L12.4937 2.55604L12.5667 2.8594C12.6341 3.05602 12.6678 3.25825 12.6678 3.4661C12.6678 3.56722 12.6173 3.66834 12.6454 3.76946C12.6903 3.87058 12.7409 3.97731 12.7914 4.07281C12.8532 4.12899 12.9094 4.1964 12.9375 4.27505C13.0105 4.40425 13.1622 4.55593 13.1116 4.70761C13.0611 4.85928 12.915 4.78626 12.8139 4.85928C12.7128 4.93231 12.8139 5.03905 12.8645 5.08961C12.915 5.14017 12.7634 5.29184 12.6903 5.3424C12.6173 5.39296 12.7634 5.37049 12.7634 5.39296C12.7634 5.41543 12.8645 5.49408 12.8139 5.57273C12.7634 5.65137 12.5892 5.70193 12.6903 5.82552C12.7914 5.94911 12.6903 6.02776 12.6678 6.1064C12.6285 6.21314 12.533 6.29179 12.4207 6.30864C12.3476 6.35358 12.2578 6.36482 12.1735 6.33673H12.1005C11.8814 6.29179 11.6567 6.25808 11.432 6.23561L11.2353 6.28617L11.0893 6.43785H11.0163L10.9151 6.58952C10.9151 6.58952 10.9151 6.61761 10.8927 6.61761L10.7915 6.87041C10.7185 7.17376 10.741 7.45464 10.814 7.5052C10.8871 7.55576 11.2578 7.65688 11.5275 7.80856L11.8477 7.96023H6.41541C6.69629 7.7917 6.98278 7.64003 7.28051 7.5052C7.52207 7.4097 7.74678 7.27488 7.94902 7.10073M5.93228 6.17943C5.93228 6.17943 5.85925 6.20752 5.85925 6.17943C5.85925 6.15135 5.96036 6.10079 6.03339 6.07832C6.10642 6.05585 6.08395 6.02776 6.10642 6.05023L6.20754 6.10079C6.13451 6.17943 6.0334 6.15135 5.9379 6.17943M3.90431 5.87608H3.88184C4.05037 5.66261 4.20205 5.4379 4.32564 5.19073C4.48293 5.09523 4.63459 4.98287 4.76942 4.85928C4.97727 4.60649 5.22445 4.40425 5.51095 4.25258C5.62331 4.22449 5.74689 4.23011 5.85925 4.28066C5.80869 4.33122 5.73566 4.33122 5.6851 4.35931H5.66262V4.30875C5.53904 4.46043 5.34242 4.53908 5.2413 4.71322C5.14018 4.88737 5.11771 5.01658 4.94356 5.04467C4.76942 5.07275 4.94358 5.01658 4.92111 5.01658C4.55034 5.28623 4.20765 5.60081 3.90992 5.95473M4.99412 5.06152C4.99412 5.06152 4.97166 5.08961 4.97166 5.11208C4.97166 5.13455 4.94919 5.16264 4.92111 5.16264H4.89863C4.89863 5.11208 4.94919 5.03343 4.99974 5.03343M5.61207 7.06702C5.61207 7.06702 5.58961 7.09511 5.58961 7.11758C5.58961 7.14005 5.61207 7.11758 5.61207 7.14567L5.51095 7.19623C5.51095 7.19623 5.48848 7.20747 5.48848 7.22432H5.43792C5.43792 7.22432 5.3368 7.25241 5.36489 7.22432L5.46602 7.1232C5.46602 7.1232 5.51658 7.09511 5.51658 7.07264H5.61769M5.38736 6.96591L5.21322 7.06702L5.03907 7.14567H5.0166L4.89301 7.24679H4.81998C4.81998 7.24679 4.80875 7.27488 4.79752 7.27488H4.77504C4.77504 7.27488 4.77504 7.30297 4.75257 7.30297H4.73011C4.73011 7.30297 4.67953 7.33105 4.67953 7.35353L4.60652 7.43217H4.53349L4.58404 7.38161H4.6346C4.6346 7.38161 4.65707 7.33105 4.68516 7.33105C4.68516 7.33105 4.6964 7.30297 4.70763 7.30297C4.70763 7.30297 4.73011 7.27488 4.73011 7.25241C4.73011 7.25241 4.78066 7.20185 4.78066 7.17376L4.73011 7.22432C4.73011 7.22432 4.70763 7.21308 4.70763 7.19623C4.71887 7.19623 4.73011 7.18499 4.73011 7.16814H4.75257L4.80312 7.08949H4.85368V7.03894C4.99974 6.90973 5.20198 6.93782 5.37051 6.8367C5.53904 6.73558 5.51657 6.86479 5.56713 6.8367H5.69072L5.37051 7.06702M5.63454 6.12888C5.63454 6.12888 5.65701 6.12887 5.6851 6.07832H5.58399L5.35928 6.15696L5.08963 6.25808C4.95481 6.34235 4.81436 6.42099 4.6683 6.4884C4.6683 6.4884 4.66081 6.47904 4.64583 6.46032L4.74696 6.38167C4.8537 6.24685 4.97727 6.12326 5.11771 6.02776V5.9772C5.17389 5.93226 5.22445 5.8817 5.26378 5.82552C5.28625 5.76373 5.33119 5.71879 5.38736 5.69632H5.33681C5.28625 5.69632 5.23568 5.7244 5.19074 5.66823L5.26378 5.61767H5.2413C5.21883 5.56711 5.26377 5.53902 5.31433 5.53902L5.4604 5.48846C5.35928 5.46037 5.26378 5.51655 5.16266 5.46037C5.21884 5.28623 5.34804 5.14017 5.51095 5.0559H5.53343C5.53343 5.13455 5.51096 5.18511 5.43232 5.18511L5.75251 5.28623C5.75251 5.28623 5.74129 5.31431 5.73005 5.31431C5.71882 5.31431 5.70758 5.30308 5.70758 5.28623C5.75813 5.33679 5.85364 5.31431 5.9042 5.36487C5.95476 5.41543 5.83115 5.36487 5.80307 5.36487C6.1963 5.49408 6.64011 5.56711 6.9884 5.84799C6.69066 5.93787 6.38169 5.98282 6.07272 5.9772H5.94913C5.89857 5.9772 5.84801 5.9772 5.82554 6.02776H5.6514" fill="white"/>
<path d="M7.95461 7.2187L8.17931 6.98837C8.31413 6.82546 8.46582 6.67379 8.62311 6.53335L8.76916 6.40414C8.76916 6.40414 8.79163 6.37043 8.79163 6.35358L8.61749 6.4547C8.61749 6.4547 8.59502 6.4547 8.61749 6.42661L8.74108 6.32549H8.7186C8.55569 6.31987 8.39839 6.3929 8.29728 6.52773H8.24672C8.0501 6.60637 7.89842 6.78052 7.70181 6.85917L7.45463 6.96029C7.34789 6.97152 7.24117 6.97152 7.13443 6.96029L6.64008 7.06141L6.3929 7.16252H6.37042C6.37042 7.16252 6.35918 7.19061 6.34795 7.19061L6.27493 7.26926L6.05021 7.44902C6.05021 7.44902 6.02775 7.46026 6.02775 7.47711L5.80303 7.67935H5.78058C5.78058 7.67935 5.80304 7.65126 5.83113 7.62879C5.83113 7.61193 5.84237 7.58947 5.85361 7.57823C5.8817 7.55014 5.89855 7.51644 5.90417 7.47711L6.12887 7.32544C6.12887 7.32544 6.10639 7.3142 6.10639 7.29735H6.05584C6.03337 7.34791 6.00528 7.39846 5.95472 7.39846C5.95472 7.39846 5.96595 7.37038 5.97718 7.37038L6.07831 7.29173L6.22436 7.19061H6.24683L6.02213 7.29173H5.99966C5.99966 7.29173 5.99965 7.31982 5.97718 7.29173L6.05021 7.21308H6.07269C6.49401 6.88164 7.08386 6.96029 7.57822 6.78052L7.70181 6.70188C7.75236 6.67379 7.80293 6.60076 7.89843 6.57267C7.99955 6.48279 8.07819 6.37043 8.12313 6.24123H8.10067C7.92091 6.31426 7.7299 6.35358 7.53328 6.37043C7.2524 6.48279 6.94904 6.53335 6.64568 6.52211H6.71872C6.71872 6.52211 6.74118 6.47155 6.76927 6.44346H6.81983C6.81983 6.44346 6.83107 6.41537 6.8423 6.41537H6.89286C6.8423 6.36481 6.76929 6.46593 6.69626 6.41537C6.62323 6.36481 6.71873 6.36481 6.74681 6.33673H6.79737C6.79737 6.33673 6.80859 6.2974 6.81983 6.28617C7.01645 6.15696 7.21307 6.08393 7.38722 5.95473C7.56137 5.82552 7.33666 6.00529 7.2861 5.98282C7.23555 5.96035 7.28611 5.93226 7.30858 5.93226C7.45464 5.8817 7.59508 5.82552 7.7299 5.75249C7.67935 5.75249 7.62878 5.80305 7.58384 5.75249H7.65687V5.70193C7.65687 5.70193 7.66811 5.67384 7.67935 5.67384H7.65687L7.7299 5.62328H7.70743C7.74675 5.56711 7.81416 5.53902 7.88158 5.54464C7.8591 5.51655 7.80854 5.54464 7.80854 5.51655C7.80854 5.48846 7.83101 5.48846 7.8591 5.48846H7.80854C7.80854 5.48846 7.78607 5.47723 7.78607 5.46037C7.78607 5.44352 7.79731 5.43228 7.80854 5.43228C7.8591 5.32555 7.90404 5.21881 7.93213 5.10084H7.90966C7.75236 5.23567 7.56698 5.32555 7.36474 5.38172H7.29173C7.2187 5.40981 7.13442 5.39858 7.06701 5.35364L6.94342 5.25252L6.59513 5.07275C6.27492 4.93793 5.93225 4.85366 5.58395 4.81996C5.73563 4.76378 5.89292 4.71884 6.05021 4.69075C6.25807 4.59525 6.48839 4.55593 6.71872 4.56155C6.66816 4.53346 6.6176 4.56155 6.59513 4.56155C6.40413 4.55031 6.20752 4.57278 6.02775 4.64019L5.63451 4.74131C5.56148 4.7694 5.51092 4.87052 5.43789 4.84243V4.79187C5.55586 4.61772 5.73001 4.49975 5.93225 4.46043C6.16257 4.43234 6.39852 4.43796 6.62322 4.48852L7.14004 4.58963C7.1906 4.58963 7.21307 4.69075 7.26363 4.71884C7.31419 4.74693 7.40969 4.71884 7.51081 4.7694C7.61193 4.81996 7.48834 4.71884 7.51081 4.69075C7.53328 4.66266 7.61192 4.69075 7.68495 4.66266C7.75798 4.63458 7.58385 4.4829 7.53891 4.38178C7.66249 4.46043 7.73551 4.58402 7.8591 4.63458C7.98269 4.68514 8.08381 4.71322 8.05572 4.63458C7.97146 4.48852 7.87034 4.35369 7.75799 4.2301V4.17955H7.70743V4.05034C7.65687 4.02225 7.68496 3.97169 7.65687 3.94922C7.62878 3.92675 7.6344 3.76946 7.60632 3.69643C7.57823 3.6234 7.56138 3.54475 7.55576 3.4661C7.5052 3.24701 7.46026 3.02793 7.43217 2.80884C7.4097 2.55604 7.57822 2.35381 7.70181 2.12348C7.77484 1.94372 7.90404 1.79204 8.07257 1.69092C8.11751 1.52801 8.20178 1.37634 8.31975 1.25837C8.42087 1.12916 8.56132 1.02804 8.71299 0.977483L9.08376 0.825806H0V8.01641H6.41537C6.69626 7.84788 6.98275 7.6962 7.28048 7.56138C7.52204 7.46588 7.74675 7.33105 7.94898 7.15691M5.93225 6.25246C5.93225 6.25246 5.85921 6.28055 5.85921 6.25246C5.85921 6.22437 5.96033 6.17382 6.03336 6.15135C6.10639 6.12887 6.08392 6.10079 6.10639 6.12326L6.20751 6.17382C6.13448 6.25246 6.03337 6.22437 5.93787 6.25246M3.90428 5.94911H3.8818C4.05033 5.73564 4.20202 5.51093 4.3256 5.26375C4.49413 5.1514 4.64018 5.01658 4.76939 4.85928C4.97724 4.60649 5.22442 4.40425 5.51092 4.25258C5.62328 4.22449 5.74686 4.23011 5.85921 4.28066C5.80866 4.33122 5.73563 4.33122 5.68507 4.35931H5.66259V4.30875C5.539 4.46043 5.34239 4.53908 5.24127 4.71322C5.14015 4.88737 5.11768 5.01658 4.94353 5.04467C4.76939 5.07275 4.94355 5.01658 4.92107 5.01658C4.55031 5.28623 4.20762 5.60081 3.90989 5.95473M4.99409 5.06152C4.99409 5.06152 4.97163 5.08961 4.97163 5.11208C4.97163 5.13455 4.94916 5.16264 4.92107 5.16264H4.8986C4.8986 5.11208 4.94915 5.03343 4.99971 5.03343M5.61204 7.06702C5.61204 7.06702 5.58958 7.09511 5.58958 7.11758C5.58958 7.14005 5.61204 7.11758 5.61204 7.14567L5.51092 7.19623H5.43789C5.43789 7.19623 5.33677 7.22432 5.36486 7.19623L5.46599 7.09511C5.46599 7.09511 5.51655 7.06702 5.51655 7.04455C5.52778 7.04455 5.539 7.03332 5.539 7.01646H5.61204M5.38733 6.90973L5.21319 7.01085L5.03904 7.08949H5.01657L4.89298 7.19061H4.81994C4.81994 7.19061 4.80872 7.2187 4.79749 7.2187H4.77501C4.77501 7.2187 4.77501 7.24679 4.75253 7.24679H4.73008C4.73008 7.24679 4.6795 7.27488 4.6795 7.29735L4.60649 7.37599H4.53345L4.58401 7.32544H4.63457C4.63457 7.32544 4.65704 7.27488 4.68513 7.27488C4.68513 7.27488 4.69637 7.24679 4.7076 7.24679C4.7076 7.24679 4.73008 7.2187 4.73008 7.19623C4.73008 7.19623 4.78063 7.14567 4.78063 7.11758L4.73008 7.16814C4.73008 7.16814 4.7076 7.1569 4.7076 7.14005C4.71884 7.14005 4.73008 7.12882 4.73008 7.11196H4.75253L4.80309 7.03332H4.85365V6.98276C4.99971 6.85355 5.20195 6.88164 5.37048 6.78052C5.53901 6.6794 5.51654 6.80861 5.5671 6.78052H5.69069L5.37048 7.01085M5.63451 6.07831C5.63451 6.07831 5.65698 6.07831 5.68507 6.02776H5.58395L5.35925 6.1064L5.0896 6.20752C4.95477 6.29179 4.81433 6.37043 4.66827 6.43784C4.66827 6.43784 4.66078 6.42848 4.6458 6.40976L4.74693 6.33111C4.85366 6.19629 4.97724 6.0727 5.11768 5.9772V5.92664C5.17386 5.8817 5.22442 5.83114 5.26374 5.77496C5.28621 5.71317 5.33116 5.66823 5.38733 5.64575H5.33678C5.28622 5.64575 5.23565 5.67384 5.19071 5.61767L5.26374 5.56711H5.24127C5.2188 5.51655 5.26374 5.48846 5.3143 5.48846L5.46037 5.4379C5.35925 5.40981 5.26375 5.46599 5.16263 5.40981C5.21881 5.23567 5.34801 5.08961 5.51092 5.00534H5.5334C5.5334 5.08399 5.51093 5.13455 5.43228 5.13455L5.75248 5.23567C5.75248 5.23567 5.74125 5.26375 5.73002 5.26375C5.71878 5.26375 5.70754 5.25252 5.70754 5.23567C5.7581 5.28623 5.85361 5.26375 5.90417 5.31431C5.95472 5.36487 5.83112 5.31431 5.80303 5.31431C6.19627 5.44352 6.64007 5.51655 6.98837 5.79743C6.69625 5.90417 6.38728 5.96596 6.07269 5.9772H5.9491C5.89854 5.9772 5.84798 5.9772 5.82551 6.02776H5.65136" fill="#293273"/>
<path d="M19.2347 0.881958H11.7296L11.7801 0.932517L11.9767 1.03364C12.0722 1.07858 12.1565 1.15161 12.2239 1.23587C12.2464 1.28643 12.2969 1.36508 12.2745 1.41564C12.252 1.4662 12.2239 1.5954 12.1733 1.61787C12.0778 1.6572 11.9767 1.67967 11.8756 1.66843L11.7296 1.61787C11.9374 1.6909 12.1172 1.82011 12.2464 1.99987L12.37 2.05043C12.37 2.05043 12.3194 2.10099 12.3475 2.12908H12.37C12.443 2.10099 12.4205 1.9774 12.516 2.02796C12.5778 2.05043 12.6115 2.12346 12.5891 2.19087C12.5891 2.20773 12.5778 2.21896 12.5666 2.2302L12.4205 2.3594C12.398 2.38749 12.398 2.43243 12.4205 2.46052L12.4935 2.6122L12.5666 2.91555C12.634 3.11217 12.6677 3.3144 12.6677 3.52226C12.6677 3.62338 12.6171 3.72449 12.6677 3.82561C12.6958 3.93235 12.7351 4.03346 12.7913 4.12896C12.8531 4.18514 12.9093 4.25255 12.9373 4.3312C13.0385 4.46041 13.162 4.61208 13.1115 4.76376C13.0609 4.91544 12.9149 4.84241 12.8138 4.91544C12.7126 4.98847 12.8138 5.0952 12.8643 5.14576C12.9149 5.19632 12.7632 5.348 12.6902 5.39856C12.6171 5.44912 12.7632 5.42665 12.7632 5.44912C12.7632 5.47159 12.8643 5.55023 12.8138 5.62888C12.7632 5.70753 12.589 5.75809 12.6902 5.88168C12.7913 6.00526 12.6902 6.08391 12.6677 6.16256C12.6284 6.26929 12.5329 6.34794 12.4205 6.36479C12.3475 6.40973 12.2576 6.42097 12.1733 6.39288H12.1003C11.8812 6.34794 11.6565 6.31424 11.4318 6.29176L11.2352 6.34232L11.0891 6.494H11.0161L10.915 6.64568C10.915 6.64568 10.915 6.67377 10.8925 6.67377L10.7914 6.92656C10.7184 7.22991 10.7408 7.5108 10.8139 7.56136C10.8869 7.61191 11.2577 7.71303 11.5273 7.86471L11.8475 8.01639H19.2291V0.89881L19.2347 0.881958Z" fill="#E00814"/>
<path d="M12.1736 3.51659H12.2971C12.2747 3.6458 12.123 3.66827 12.0275 3.76938H12.005C11.9545 3.79747 11.9826 3.8705 11.932 3.8705H11.8084C11.8534 3.93791 11.9264 3.97724 12.005 3.97162L12.0556 4.02218H12.1061V4.10083C12.0556 4.15138 12.005 4.12891 11.9601 4.15138H12.2578C12.3309 4.10083 12.2578 3.97162 12.3084 3.89859C12.3589 3.82556 12.3084 3.8705 12.2859 3.8705C12.2634 3.8705 12.3365 3.79186 12.3589 3.79186C12.3814 3.79186 12.432 3.76377 12.432 3.7413C12.432 3.71883 12.3814 3.69074 12.4095 3.66265C12.4376 3.63456 12.5556 3.53344 12.5331 3.46041C12.5106 3.38738 12.4095 3.40985 12.3365 3.38177C12.2634 3.36491 12.1848 3.37615 12.1118 3.40985L11.9151 3.46041L11.668 3.58962C11.7635 3.5503 11.8646 3.52221 11.9657 3.51097C12.0387 3.49974 12.1118 3.49974 12.1904 3.51097" fill="#9C9B9B"/>
<path d="M199.927 8.53317C199.197 8.24105 198.635 7.80287 198.635 6.87034C198.635 5.65693 199.573 4.93225 200.753 4.93225C201.932 4.93225 202.747 5.69064 202.764 6.94337L201.831 7.16246C201.736 6.29734 201.337 5.90972 200.73 5.90972C200.197 5.90972 199.685 6.20184 199.685 6.77484C199.685 7.34785 200.197 7.5557 200.607 7.71299L201.567 8.09499C202.41 8.42644 202.989 8.88147 202.989 9.85332C202.989 11.1061 202 11.8083 200.758 11.8083C199.421 11.8083 198.444 10.9937 198.433 9.623L199.365 9.432C199.477 10.3027 199.904 10.8252 200.741 10.8252C201.32 10.8252 201.927 10.578 201.927 9.91512C201.927 9.29717 201.404 9.11741 200.843 8.89832L199.921 8.52755L199.927 8.53317Z" fill="black"/>
<path d="M206.427 11.7521L206.41 11.3982C206.028 11.6341 205.64 11.8083 205.241 11.8083C204.444 11.8083 203.522 11.2858 203.522 9.80275V6.93774H204.528V9.71849C204.528 10.6679 204.994 10.8589 205.354 10.8589C205.764 10.8589 206.247 10.6229 206.376 9.85331V6.93774H207.37V11.7521H206.421H206.427Z" fill="black"/>
<path d="M208.994 9.67357C209.106 10.6679 209.656 10.8589 210.106 10.8589C210.555 10.8589 210.949 10.6679 211.224 10.2634L212.095 10.4937C211.836 11.3027 211.1 11.8139 210.123 11.8139C209.01 11.8139 207.949 11.1566 207.949 9.36459C207.949 7.57256 209.039 6.88721 210.095 6.88721C211.151 6.88721 212.229 7.54447 212.229 9.35336V9.67357H208.994ZM211.168 8.86462C211.027 7.9995 210.522 7.83097 210.123 7.83097C209.656 7.83097 209.173 8.07815 209.005 8.86462H211.168Z" fill="black"/>
<path d="M216.623 10.4881C216.387 11.3252 215.752 11.8083 214.831 11.8083C213.746 11.8083 212.685 11.151 212.685 9.34774C212.685 7.54448 213.758 6.88159 214.842 6.88159C215.712 6.88159 216.398 7.30853 216.634 8.16242C216.319 8.24106 216.066 8.32533 215.763 8.39836C215.527 8.01636 215.213 7.83098 214.802 7.83098C214.319 7.83098 213.701 8.09501 213.701 9.34774C213.701 10.6005 214.308 10.8589 214.791 10.8589C215.207 10.8589 215.521 10.6623 215.757 10.2634L216.623 10.4937V10.4881Z" fill="black"/>
<path d="M216.976 11.7522V10.8309H217.943V7.85914H216.976V6.93784H218.931V10.8309H219.897V11.7522H216.976ZM218.426 6.33114C218.044 6.33114 217.763 6.02779 217.763 5.66825C217.763 5.30872 218.049 5.00537 218.426 5.00537C218.802 5.00537 219.1 5.30872 219.1 5.66825C219.1 6.02779 218.796 6.33114 218.426 6.33114Z" fill="black"/>
<path d="M223.117 11.7521L223.1 11.3982C222.712 11.6735 222.291 11.8083 221.858 11.8083C220.948 11.8083 220.19 11.3645 220.19 10.387C220.19 9.40954 220.881 8.95451 221.909 8.88709L223.066 8.80845V8.66801C223.066 8.11748 222.763 7.83097 222.212 7.83097C221.824 7.83097 221.482 7.97142 221.223 8.26915L220.409 8.03321C220.628 7.35909 221.358 6.88721 222.257 6.88721C223.375 6.88721 224.072 7.6175 224.072 8.57812V11.7577H223.122L223.117 11.7521ZM223.06 9.62301L221.92 9.70166C221.414 9.74098 221.201 9.96007 221.201 10.3477C221.201 10.5949 221.296 10.8589 221.942 10.8589C222.291 10.8589 222.701 10.7802 223.06 10.3926V9.62301Z" fill="black"/>
<path d="M200.612 22.274C199.416 21.7909 198.5 21.0775 198.5 19.5607C198.5 17.5777 200.039 16.3979 201.961 16.3979C203.882 16.3979 205.219 17.6395 205.247 19.6843L203.725 20.0382C203.567 18.6282 202.916 17.9934 201.927 17.9934C201.056 17.9934 200.219 18.4765 200.219 19.4034C200.219 20.3303 201.056 20.673 201.725 20.937L203.292 21.555C204.674 22.0999 205.618 22.8414 205.618 24.4256C205.618 26.4704 204.005 27.622 201.972 27.622C199.787 27.622 198.186 26.2906 198.169 24.0548L199.691 23.7458C199.876 25.1727 200.573 26.0266 201.944 26.0266C202.888 26.0266 203.882 25.6221 203.882 24.5379C203.882 23.5268 203.028 23.2346 202.112 22.8751L200.607 22.2684L200.612 22.274Z" fill="black"/>
<path d="M214.723 24.1334C214.909 25.7626 215.808 26.0715 216.538 26.0715C217.268 26.0715 217.92 25.7626 218.369 25.0941L219.796 25.4648C219.375 26.785 218.167 27.622 216.572 27.622C214.757 27.622 213.021 26.5546 213.021 23.6222C213.021 20.6898 214.808 19.5719 216.527 19.5719C218.246 19.5719 220.015 20.6449 220.015 23.6054V24.1334H214.723ZM218.274 22.8189C218.043 21.4089 217.218 21.128 216.566 21.128C215.808 21.128 215.016 21.5325 214.735 22.8189H218.274Z" fill="black"/>
<path d="M225.897 27.5322V26.0266H227.481V21.173H225.897V19.6674H229.094V26.0266H230.678V27.5322H225.897ZM228.268 18.6619C227.661 18.6619 227.184 18.1507 227.184 17.5159C227.184 16.8811 227.667 16.353 228.268 16.353C228.869 16.353 229.386 16.8642 229.386 17.5159C229.386 18.1675 228.891 18.6619 228.268 18.6619Z" fill="black"/>
<path d="M236.234 26.8525C235.503 27.4873 234.897 27.6277 234.324 27.6277C232.756 27.6277 230.925 26.5604 230.925 23.5943C230.925 20.6281 232.756 19.5776 234.307 19.5776C235.003 19.5776 235.576 19.7967 236.279 20.3978L236.324 19.6675H237.874V27.5322C237.874 29.4085 236.543 30.8073 234.447 30.8073C232.835 30.8073 231.639 29.9984 231.251 28.6502L232.678 28.2794C233.127 28.9479 233.779 29.2569 234.509 29.2569C235.61 29.2569 236.234 28.5771 236.234 27.5322V26.8525ZM236.234 23.0662C236.032 21.7011 235.239 21.1281 234.357 21.1281C233.599 21.1281 232.605 21.5607 232.605 23.6111C232.605 25.6616 233.582 26.0773 234.391 26.0773C235.133 26.0773 236.037 25.7065 236.239 24.4481V23.0662H236.234Z" fill="black"/>
<path d="M240.593 24.1334C240.778 25.7626 241.677 26.0715 242.407 26.0715C243.138 26.0715 243.789 25.7626 244.239 25.0941L245.666 25.4648C245.244 26.785 244.036 27.622 242.441 27.622C240.626 27.622 238.891 26.5546 238.891 23.6222C238.891 20.6898 240.677 19.5719 242.396 19.5719C244.115 19.5719 245.885 20.6449 245.885 23.6054V24.1334H240.593ZM244.149 22.8189C243.918 21.4089 243.093 21.128 242.441 21.128C241.683 21.128 240.891 21.5325 240.61 22.8189H244.149Z" fill="black"/>
<path d="M225.217 19.6844C224.925 19.6057 224.628 19.5776 224.459 19.5776C223.841 19.5776 223.173 19.9821 222.583 20.572L222.521 19.6731H220.987V27.5379H222.633V22.9932C222.852 21.7348 223.611 21.3191 224.307 21.3191C224.543 21.3191 224.819 21.3641 225.223 21.4427V19.69L225.217 19.6844Z" fill="black"/>
<path d="M208.606 27.5322L205.814 19.6675H207.516L209.409 25.2739L211.308 19.6675H213.01L210.218 27.5322H208.606Z" fill="black"/>
<path d="M173.715 4.99402H169.21V14.0104H157.941V18.5157H169.21V27.5321H173.715V18.5157H194.006V14.0104H173.715V4.99402Z" fill="#FFD600"/>
<path d="M169.21 4.99402H157.941V14.0104H169.21V4.99402Z" fill="#005694"/>
<path d="M194 4.99402H173.715V14.0104H194V4.99402Z" fill="#005694"/>
<path d="M169.21 18.5157H157.941V27.5321H169.21V18.5157Z" fill="#005694"/>
<path d="M194 18.5157H173.715V27.5321H194V18.5157Z" fill="#005694"/>
</svg>
