<svg width="351" height="34" viewBox="0 0 351 34" fill="none" xmlns="http://www.w3.org/2000/svg">
<path d="M287.411 24.5324C286.961 25.0267 286.495 25.4144 286.006 25.7851C281.765 28.9647 276.04 29.1726 271.406 26.3188C266.726 23.437 264.277 18.0721 265.153 12.6117C266.013 7.25248 270.176 2.79767 275.512 1.61796C278.967 0.853963 282.225 1.42696 285.236 3.29764C285.332 3.35382 285.427 3.41562 285.512 3.48303C285.63 3.57853 285.63 3.70211 285.568 3.82009C285.506 3.93244 285.394 3.96615 285.281 3.92682C285.152 3.88188 285.023 3.82009 284.899 3.76391C278.057 0.59555 269.968 4.02794 267.67 11.0781C265.423 17.971 269.788 25.3526 276.95 26.7626C280.574 27.476 283.905 26.7626 286.955 24.6953C287.062 24.6223 287.152 24.4931 287.411 24.5324Z" fill="black"/>
<path d="M286.102 21.1393C287.264 19.4765 287.882 17.6395 287.933 15.6284C288.057 10.8927 284.686 6.92101 280.018 6.28622C275.754 5.70198 271.501 8.51643 270.26 12.7521C269.608 14.9824 269.794 17.162 270.692 19.2911C270.726 19.3697 270.76 19.4428 270.793 19.5214C270.861 19.6787 270.872 19.8248 270.698 19.9147C270.524 20.0045 270.406 19.9147 270.31 19.7742C269.878 19.1563 269.529 18.4878 269.26 17.7856C267.294 12.6061 269.895 6.89854 275.158 4.83686C281.186 2.47745 287.961 6.21319 289.068 12.5836C289.613 15.7464 288.776 18.5777 286.534 20.9427C286.366 21.1225 286.36 21.1168 286.102 21.1449V21.1393Z" fill="black"/>
<path d="M274.546 10.0107C277.192 6.93224 281.877 6.96595 284.613 10.1118C286.399 12.1735 286.894 14.5666 285.995 17.1451C285.107 19.6787 283.276 21.2629 280.624 21.7853C278.86 22.1336 277.214 21.7572 275.726 20.7236C275.557 20.6056 275.332 20.482 275.484 20.2292C275.625 19.9989 275.827 20.1337 276.007 20.2012C278.855 21.2348 281.843 20.2967 283.388 17.8867C285.613 14.4206 283.534 9.79163 279.45 9.10628C277.889 8.84225 276.422 9.10628 275.035 9.85904C274.894 9.93207 274.771 10.0781 274.546 10.0107Z" fill="black"/>
<path d="M311.134 9.10623C312.583 7.32544 314.808 7.94338 315.544 9.40959C315.628 9.40959 315.645 9.34218 315.679 9.286C316.218 8.30853 317.072 7.92091 318.162 8.02203C319.223 8.11753 319.875 8.73547 320.229 9.71294C320.431 10.2691 320.482 10.8533 320.521 11.4376C320.572 12.1454 320.611 12.8532 320.633 13.5667C320.645 13.9206 320.701 14.2295 321.015 14.443C321.133 14.5217 321.19 14.6228 321.15 14.7632C321.111 14.9261 320.971 14.9261 320.847 14.9261C320.302 14.9261 319.757 14.9261 319.212 14.9261C319.089 14.9261 318.948 14.9205 318.898 14.7688C318.847 14.6228 318.931 14.5217 319.038 14.4486C319.336 14.2576 319.398 13.9824 319.369 13.6509C319.274 12.5162 319.319 11.3645 319.122 10.2354C319.083 10.0051 319.01 9.77474 318.92 9.55565C318.69 9.00512 318.296 8.63997 317.667 8.58941C317.016 8.53885 316.527 8.81973 316.184 9.34779C315.926 9.74103 315.847 10.1736 315.87 10.6567C315.915 11.6173 315.903 12.5779 315.898 13.5386C315.898 13.8981 315.909 14.2352 316.263 14.4542C316.37 14.5217 316.437 14.6396 316.375 14.7801C316.319 14.9037 316.201 14.9149 316.089 14.9149C315.544 14.9149 314.999 14.9149 314.454 14.9149C314.33 14.9149 314.196 14.9037 314.156 14.7464C314.123 14.6003 314.196 14.4992 314.308 14.4262C314.589 14.2408 314.634 13.9711 314.628 13.6622C314.617 12.7689 314.623 11.8757 314.628 10.9882C314.628 10.5668 314.578 10.1567 314.42 9.75788C314.106 8.94332 313.482 8.51076 312.735 8.58941C312.005 8.66806 311.387 9.28038 311.241 10.0725C311.168 10.4713 311.179 10.8758 311.185 11.2803C311.19 12.0724 311.218 12.8701 311.213 13.6622C311.213 13.9767 311.269 14.2408 311.561 14.4093C311.69 14.4823 311.791 14.5891 311.746 14.7464C311.696 14.9261 311.533 14.9093 311.398 14.9093C310.853 14.9149 310.308 14.9093 309.763 14.9093C309.623 14.9093 309.466 14.9093 309.421 14.7351C309.376 14.5722 309.488 14.4767 309.612 14.3981C309.864 14.2408 309.937 14.0105 309.937 13.724C309.932 12.415 309.932 11.1061 309.937 9.79159C309.937 9.48824 309.848 9.26353 309.595 9.07815C309.275 8.83659 309.297 8.69053 309.662 8.51638C309.988 8.35909 310.319 8.20741 310.651 8.06697C310.988 7.92091 311.106 7.99956 311.128 8.37032C311.14 8.57256 311.128 8.78041 311.128 9.08938L311.134 9.10623Z" fill="black"/>
<path d="M295.208 9.22989C295.219 10.359 295.517 11.4039 296.185 12.3252C297.814 14.5779 300.64 14.3644 301.921 11.9039C302.039 11.6736 302.095 11.2747 302.471 11.4376C302.803 11.5837 302.595 11.9039 302.533 12.1398C301.865 14.5723 299.258 15.7351 296.921 14.6509C293.781 13.196 292.888 8.74677 295.219 6.19635C296.91 4.34814 300.106 4.32005 301.82 6.14579C302.101 6.44353 302.32 6.78059 302.409 7.18506C302.477 7.49965 302.432 7.78615 302.123 7.93783C301.82 8.0895 301.499 8.04456 301.292 7.76929C300.988 7.37044 300.747 6.92665 300.455 6.52218C299.601 5.33685 298.106 5.03911 296.859 5.80873C296.028 6.31994 295.567 7.09518 295.331 8.01647C295.23 8.40971 295.208 8.81418 295.213 9.21865L295.208 9.22989Z" fill="black"/>
<path d="M295.208 21.3135C295.242 22.701 295.635 23.9481 296.641 24.9481C298.236 26.5379 300.455 26.2963 301.674 24.4144C301.803 24.2178 301.91 24.0043 302.017 23.7908C302.112 23.5998 302.23 23.4369 302.46 23.51C302.691 23.5886 302.646 23.8021 302.607 23.9762C302.371 25.0267 301.854 25.9087 300.938 26.4873C299.624 27.3243 298.225 27.3861 296.832 26.7008C293.865 25.2514 292.955 21.1056 295.011 18.5327C296.73 16.3868 300.309 16.3306 301.966 18.4204C302.185 18.6956 302.354 18.999 302.416 19.3529C302.466 19.6338 302.399 19.8922 302.14 20.0382C301.876 20.1899 301.595 20.1618 301.365 19.954C301.241 19.8416 301.14 19.7068 301.045 19.572C300.904 19.3641 300.775 19.1507 300.652 18.9316C299.522 16.9148 296.854 17.1114 295.747 19.0664C295.354 19.763 295.18 20.5157 295.208 21.3135Z" fill="black"/>
<path d="M276.535 12.6173C276.54 12.915 276.383 13.1734 276.327 13.4543C276.04 14.825 276.67 16.1957 277.844 16.7238C279.596 17.5103 281.506 16.2351 281.563 14.2408C281.574 13.9599 281.523 13.6846 281.484 13.4094C281.461 13.2577 281.428 13.0948 281.607 13.0049C281.804 12.9094 281.922 13.0442 282.029 13.1734C282.894 14.2352 283.034 15.4149 282.534 16.6676C281.9 18.263 280.226 19.2293 278.462 19.0495C276.81 18.881 275.4 17.6114 275.085 15.9654C274.894 14.9542 275.108 14.0217 275.759 13.2128C275.967 12.9543 276.198 12.7072 276.54 12.6173V12.6117L276.535 12.6173Z" fill="black"/>
<path d="M326.335 14.1902C325.352 15.1733 323.695 15.3306 322.588 14.5947C321.897 14.1397 321.662 13.4768 321.723 12.6847C321.785 11.9319 322.19 11.3983 322.869 11.1174C323.914 10.6792 324.953 10.7073 325.993 11.2972C325.942 10.5725 325.863 9.88712 325.538 9.25794C325.274 8.75235 324.847 8.50518 324.285 8.49956C323.729 8.49394 323.33 8.75235 323.066 9.23547C322.954 9.44333 322.852 9.6568 322.723 9.85342C322.577 10.0781 322.369 10.1568 322.105 10.0557C321.841 9.95453 321.746 9.7523 321.768 9.49389C321.819 8.96583 322.161 8.64562 322.588 8.40406C324.555 7.28053 326.841 8.3535 327.172 10.5781C327.324 11.6117 327.408 12.651 327.509 13.6903C327.543 14.061 327.672 14.3363 328.049 14.4487C328.178 14.488 328.29 14.5385 328.285 14.6958C328.279 14.8531 328.15 14.8981 328.026 14.9262C327.656 15.016 327.279 15.0217 326.903 14.943C326.543 14.8644 326.414 14.561 326.335 14.1959V14.1902ZM324.639 14.5498C325.526 14.5498 326.167 13.9262 326.161 13.078C326.15 11.9376 325.588 11.3028 324.577 11.2972C323.65 11.2915 322.982 11.8926 322.976 12.7409C322.965 13.7745 323.673 14.5442 324.639 14.5442" fill="black"/>
<path d="M310.151 23.6785C310.151 25.6896 308.758 27.1389 306.814 27.1446C304.718 27.1446 303.123 25.5828 303.123 23.5268C303.123 21.5831 304.64 20.0775 306.578 20.0888C308.612 20.1 310.14 21.6393 310.145 23.6728M304.432 23.1673C304.432 24.3245 304.842 25.3806 305.556 26.0491C306.651 27.0884 308.117 26.7626 308.662 25.3638C308.774 25.0773 308.842 24.7739 308.859 24.4706C308.926 23.2628 308.724 22.1224 307.836 21.2235C306.769 20.145 305.157 20.5157 304.623 21.937C304.477 22.3358 304.426 22.7459 304.432 23.1673Z" fill="black"/>
<path d="M333.105 11.505C333.082 9.05575 335.296 7.3873 337.526 8.17939C338.245 8.43781 338.784 8.89284 338.998 9.65684C339.194 10.3703 338.998 10.7354 338.295 10.9714C337.161 11.3478 336.026 11.7354 334.88 12.0837C334.532 12.1904 334.526 12.3365 334.655 12.6173C335.048 13.4825 335.683 14.0442 336.655 14.106C337.56 14.1622 338.29 13.8251 338.745 13.005C338.835 12.8477 338.947 12.7072 339.138 12.814C339.318 12.9095 339.228 13.078 339.189 13.2241C338.885 14.2128 337.885 14.9431 336.706 15.0386C334.633 15.2071 333.127 13.7296 333.105 11.5107M334.408 11.7073C335.419 11.3478 336.391 10.9995 337.352 10.6512C337.818 10.4826 337.925 10.2523 337.79 9.78043C337.593 9.11754 336.998 8.57263 336.38 8.50522C335.7 8.43219 335.082 8.7861 334.717 9.46584C334.346 10.1568 334.307 10.8983 334.408 11.7129V11.7073Z" fill="black"/>
<path d="M344.857 23.5661C344.863 21.1056 347.138 19.4652 349.368 20.3191C350.087 20.5944 350.593 21.0887 350.778 21.8527C350.93 22.4707 350.722 22.8471 350.115 23.0549C348.98 23.4369 347.84 23.8245 346.694 24.1672C346.289 24.2908 346.278 24.4425 346.436 24.7795C346.823 25.5772 347.402 26.1109 348.306 26.1952C349.244 26.2795 350.008 25.9817 350.491 25.1222C350.576 24.9705 350.688 24.8189 350.885 24.9144C351.07 25.0043 350.986 25.184 350.946 25.3245C350.66 26.3413 349.536 27.1109 348.295 27.1502C346.273 27.2176 344.846 25.7345 344.851 23.5717L344.857 23.5661ZM346.127 23.128V23.5043C346.127 23.729 346.216 23.8021 346.441 23.7178C347.368 23.3807 348.301 23.0493 349.233 22.7122C349.497 22.6167 349.638 22.4257 349.61 22.1336C349.553 21.4932 348.958 20.7966 348.317 20.6281C347.711 20.4652 347.048 20.7292 346.643 21.3078C346.261 21.8527 346.121 22.4707 346.127 23.1223V23.128Z" fill="black"/>
<path d="M316.864 23.5998C316.853 21.2011 318.954 19.5608 321.178 20.2461C321.954 20.4877 322.532 20.9539 322.763 21.7685C322.954 22.4482 322.751 22.8415 322.088 23.0662C320.914 23.4594 319.735 23.8526 318.549 24.2234C318.302 24.3021 318.285 24.3919 318.37 24.5998C318.712 25.4424 319.268 26.0548 320.207 26.1784C321.184 26.3076 321.999 26.0211 322.504 25.1054C322.583 24.9593 322.684 24.8301 322.864 24.9031C323.088 24.993 323.004 25.1896 322.948 25.3357C322.555 26.3694 321.774 26.948 320.701 27.1053C318.521 27.4311 316.864 25.9143 316.853 23.6055L316.864 23.5998ZM318.128 23.1223V23.5381C318.128 23.7571 318.235 23.7908 318.426 23.7234C319.37 23.3808 320.313 23.0437 321.257 22.701C321.532 22.5999 321.628 22.3921 321.594 22.1056C321.521 21.4708 320.948 20.8023 320.325 20.6337C319.723 20.4708 319.055 20.7292 318.645 21.3022C318.257 21.8415 318.122 22.4651 318.134 23.1167L318.128 23.1223Z" fill="black"/>
<path d="M324.746 23.1055C324.734 23.7122 324.847 24.2964 325.133 24.8357C325.594 25.7121 326.319 26.1952 327.307 26.2233C328.206 26.2514 328.841 25.7963 329.257 25.0211C329.341 24.8638 329.442 24.7121 329.644 24.8132C329.83 24.9031 329.745 25.0717 329.712 25.2177C329.386 26.4592 328.189 27.2345 326.74 27.139C324.785 27.0041 323.409 25.4368 323.47 23.4032C323.527 21.4876 324.998 20.0719 326.953 20.0944C327.824 20.1056 328.633 20.3528 329.268 20.9932C329.459 21.1842 329.605 21.4033 329.667 21.6674C329.717 21.8921 329.706 22.128 329.487 22.2684C329.273 22.4033 329.037 22.3977 328.813 22.2628C328.599 22.1336 328.487 21.9202 328.358 21.7235C327.706 20.7292 327.122 20.4259 326.279 20.6393C325.453 20.8472 324.835 21.673 324.751 22.6785C324.74 22.819 324.751 22.9538 324.751 23.0942L324.746 23.1055Z" fill="black"/>
<path d="M315.662 21.4258C315.662 22.8752 315.667 24.3245 315.662 25.7739C315.662 26.0941 315.712 26.3469 316.016 26.5098C316.145 26.5772 316.241 26.6896 316.184 26.8525C316.134 26.9985 315.999 27.0098 315.87 27.0098C315.325 27.0098 314.78 27.0098 314.235 27.0098C314.089 27.0098 313.943 26.9985 313.898 26.83C313.853 26.6671 313.954 26.566 314.078 26.4873C314.319 26.3357 314.381 26.1109 314.381 25.8413C314.381 23.319 314.381 20.7966 314.381 18.2687C314.381 17.971 314.297 17.7238 314.061 17.5328C313.758 17.2912 313.87 17.1171 314.162 16.9766C314.448 16.8362 314.741 16.6958 315.027 16.5553C315.516 16.3194 315.662 16.4093 315.662 16.9429C315.662 18.2968 315.662 19.645 315.662 20.9989V21.4146V21.4258Z" fill="black"/>
<path d="M329.195 11.1792C329.195 10.3871 329.172 9.7467 329.201 9.10629C329.217 8.78046 329.105 8.68496 328.802 8.72429C328.667 8.74114 328.521 8.72429 328.386 8.72429C328.189 8.7299 328.077 8.67373 328.071 8.4434C328.066 8.19061 328.184 8.15129 328.403 8.14005C329.47 8.10073 329.639 7.94905 329.835 6.86484C329.88 6.63452 329.965 6.51655 330.212 6.52216C330.476 6.5334 330.487 6.7244 330.493 6.90417C330.504 7.21314 330.515 7.51649 330.493 7.82546C330.476 8.08949 330.582 8.16252 330.83 8.15128C331.29 8.13443 331.751 8.15128 332.212 8.15128C332.431 8.15128 332.644 8.13443 332.639 8.45464C332.639 8.75237 332.425 8.7299 332.228 8.7299C331.757 8.7299 331.279 8.74114 330.807 8.7299C330.577 8.72429 330.487 8.7917 330.493 9.03326C330.504 10.359 330.481 11.6792 330.504 13.0049C330.521 13.8364 330.993 14.224 331.689 14.0386C332.026 13.9487 332.257 13.7352 332.346 13.4038C332.397 13.2184 332.464 13.0667 332.678 13.1285C332.897 13.1903 332.846 13.3813 332.824 13.5442C332.7 14.4262 332.009 15.0273 331.094 15.0498C330.122 15.0779 329.448 14.561 329.268 13.6229C329.105 12.769 329.234 11.8983 329.195 11.1848V11.1792Z" fill="black"/>
<path d="M332.363 23.1785C332.363 23.8358 332.358 24.4875 332.363 25.1447C332.369 25.6953 332.638 26.0885 333.049 26.1671C333.571 26.2683 334.004 26.0155 334.211 25.4593C334.273 25.302 334.335 25.1616 334.532 25.2178C334.734 25.2739 334.7 25.4537 334.683 25.5998C334.616 26.3918 333.981 27.0266 333.15 27.1278C332.223 27.2401 331.498 26.8356 331.206 26.0323C331.071 25.6615 331.037 25.2739 331.037 24.8807C331.037 23.656 331.026 22.4258 331.043 21.2011C331.043 20.9146 330.97 20.791 330.672 20.8304C330.521 20.8472 330.363 20.8304 330.212 20.8304C329.998 20.836 329.914 20.7292 329.914 20.5214C329.914 20.3023 330.021 20.2237 330.223 20.2293H330.262C331.335 20.1731 331.476 20.0495 331.684 18.9484C331.723 18.735 331.801 18.6226 332.032 18.6226C332.29 18.6226 332.335 18.7743 332.335 18.9765C332.335 19.2687 332.346 19.5608 332.335 19.8529C332.318 20.1338 332.408 20.2517 332.712 20.2349C333.183 20.2124 333.661 20.2349 334.133 20.2293C334.346 20.2293 334.481 20.2911 334.481 20.5326C334.481 20.7798 334.352 20.836 334.133 20.8304C333.689 20.8247 333.24 20.8584 332.796 20.8191C332.403 20.7854 332.33 20.9371 332.346 21.2854C332.374 21.909 332.352 22.5381 332.352 23.1673L332.363 23.1785Z" fill="black"/>
<path d="M341.666 26.0492C342.335 24.4088 342.953 22.892 343.57 21.3753C343.694 21.0663 343.548 20.8697 343.301 20.7124C343.183 20.6393 343.048 20.5551 343.104 20.3866C343.16 20.2124 343.323 20.2405 343.458 20.2405C343.851 20.2405 344.239 20.2405 344.632 20.2405C344.756 20.2405 344.896 20.2293 344.947 20.3809C344.992 20.5214 344.919 20.6337 344.801 20.6955C344.351 20.9315 344.2 21.3584 344.025 21.791C343.391 23.3808 342.739 24.9649 342.104 26.5491C341.992 26.83 341.863 27.0266 341.509 27.021C341.155 27.021 340.913 26.9592 340.75 26.5884C339.998 24.8975 339.206 23.2235 338.442 21.5382C338.307 21.2404 338.161 20.9652 337.897 20.7629C337.773 20.6674 337.661 20.5438 337.722 20.3697C337.784 20.2068 337.947 20.2349 338.082 20.2349C338.627 20.2349 339.172 20.2349 339.717 20.2349C339.857 20.2349 340.009 20.2124 340.076 20.3753C340.138 20.5214 340.031 20.6169 339.936 20.6955C339.661 20.9146 339.672 21.1562 339.801 21.4708C340.425 22.9538 341.02 24.4481 341.677 26.0548L341.666 26.0492Z" fill="black"/>
<path d="M312.611 21.364C312.611 22.8022 312.617 24.2347 312.611 25.6728C312.611 26.0267 312.645 26.3413 312.999 26.5267C313.111 26.5885 313.201 26.6896 313.156 26.8356C313.111 26.9817 312.988 27.0098 312.859 27.0098C312.302 27.0098 311.741 27.0098 311.185 27.0098C311.055 27.0098 310.926 26.9985 310.881 26.8412C310.848 26.7233 310.887 26.6053 310.988 26.5491C311.353 26.3357 311.347 25.9986 311.347 25.6391C311.342 23.2291 311.342 20.8135 311.347 18.4035C311.347 18.0552 311.308 17.7463 311.005 17.5103C310.786 17.3418 310.814 17.1508 311.072 17.0216C311.421 16.8474 311.769 16.6621 312.123 16.5104C312.465 16.3587 312.606 16.4598 312.611 16.853C312.611 18.3586 312.611 19.8641 312.611 21.3696V21.364Z" fill="black"/>
<path d="M304.966 9.30851C304.966 10.7579 304.972 12.2072 304.966 13.6622C304.966 13.9824 305.016 14.2352 305.325 14.3981C305.455 14.4655 305.556 14.5723 305.505 14.7408C305.455 14.9206 305.292 14.8925 305.157 14.8981C304.623 14.8981 304.095 14.8981 303.561 14.8981C303.438 14.8981 303.292 14.9149 303.236 14.7689C303.179 14.6172 303.247 14.4936 303.382 14.415C303.668 14.2352 303.713 13.9712 303.713 13.6566C303.708 11.2017 303.708 8.74675 303.713 6.29183C303.713 5.93792 303.651 5.64018 303.354 5.40424C303.123 5.21885 303.191 5.04471 303.432 4.92112C303.758 4.75821 304.078 4.59529 304.41 4.44362C304.831 4.25262 304.966 4.33688 304.971 4.79753C304.971 6.30306 304.971 7.80859 304.971 9.31413L304.966 9.30851Z" fill="black"/>
<path d="M336.902 23.2122C336.902 24.0605 336.913 24.9144 336.902 25.7626C336.897 26.0828 336.958 26.3356 337.262 26.4929C337.391 26.5603 337.492 26.6671 337.447 26.83C337.397 26.9929 337.251 27.0097 337.105 27.0097C336.576 27.0097 336.043 27.0097 335.515 27.0097C335.374 27.0097 335.223 27.0098 335.161 26.8525C335.105 26.6952 335.195 26.5828 335.318 26.5042C335.588 26.3356 335.65 26.0885 335.65 25.7907C335.638 24.5492 335.638 23.3133 335.65 22.0718C335.65 21.7179 335.593 21.4146 335.301 21.1786C335.077 20.9989 335.093 20.8303 335.352 20.7011C335.711 20.5214 336.071 20.3304 336.442 20.1674C336.762 20.027 336.902 20.1337 336.908 20.4989C336.913 21.4033 336.908 22.3078 336.908 23.2178L336.902 23.2122Z" fill="black"/>
<path d="M308.067 11.0837C308.067 11.9488 308.078 12.814 308.067 13.6735C308.067 13.9824 308.134 14.2184 308.409 14.3757C308.544 14.4543 308.685 14.5442 308.623 14.7352C308.567 14.8981 308.415 14.8925 308.269 14.8925C307.724 14.8925 307.179 14.8925 306.634 14.8925C306.505 14.8925 306.37 14.8925 306.325 14.7408C306.286 14.606 306.342 14.488 306.46 14.415C306.786 14.224 306.825 13.9263 306.819 13.5892C306.808 12.3926 306.808 11.1905 306.819 9.99389C306.819 9.62875 306.769 9.30854 306.454 9.06698C306.252 8.90968 306.252 8.73554 306.494 8.61195C306.864 8.42095 307.235 8.22995 307.617 8.06142C307.909 7.93221 308.067 8.03895 308.067 8.37039C308.067 9.27483 308.067 10.1793 308.067 11.0893V11.0837Z" fill="black"/>
<path d="M337.155 18.044C337.161 18.6057 336.824 18.9372 336.239 18.9428C335.655 18.9428 335.29 18.617 335.29 18.0721C335.29 17.5272 335.644 17.1732 336.211 17.162C336.773 17.1508 337.15 17.4991 337.155 18.044Z" fill="black"/>
<path d="M307.387 5.06155C307.96 5.06155 308.331 5.40423 308.331 5.94915C308.331 6.49968 307.982 6.84235 307.398 6.84235C306.814 6.84235 306.449 6.49968 306.449 5.96038C306.449 5.42109 306.82 5.06717 307.387 5.06155Z" fill="black"/>
<path d="M276.541 12.6228C276.541 12.6228 276.546 12.5948 276.557 12.5892C276.557 12.5892 276.574 12.5892 276.586 12.5892C276.569 12.6004 276.552 12.606 276.541 12.6172V12.6228Z" fill="black"/>
<path d="M132.807 17.7181C132.684 17.8754 132.566 18.0158 132.448 18.145C132.532 18.1675 132.599 18.1843 132.667 18.2012C132.61 18.2574 132.566 18.3304 132.498 18.3585C132.408 18.3978 132.302 18.4091 132.189 18.4315C132.313 18.4596 132.431 18.4877 132.571 18.5214C132.391 18.7012 132.178 18.6675 131.976 18.6787C132.088 18.7349 132.189 18.7854 132.29 18.8304C132.285 18.8528 132.273 18.8753 132.268 18.8978C132.049 18.8753 131.83 18.8472 131.611 18.8248C131.611 18.8416 131.611 18.8528 131.611 18.8697C131.706 18.9203 131.802 18.9652 131.886 19.027C131.936 19.0663 131.964 19.1281 132.004 19.1843C131.931 19.2011 131.858 19.2461 131.79 19.2348C131.582 19.2011 131.38 19.1506 131.167 19.145C131.363 19.2236 131.56 19.3079 131.757 19.3865C131.751 19.4146 131.74 19.4483 131.734 19.4764C131.582 19.4764 131.425 19.4933 131.274 19.4764C131.122 19.4539 130.97 19.3865 130.824 19.3416C130.813 19.3641 130.802 19.3865 130.79 19.4034C130.925 19.4764 131.06 19.5494 131.2 19.6168C131.257 19.6449 131.335 19.6337 131.386 19.6674C131.436 19.7011 131.493 19.7629 131.498 19.8135C131.498 19.8472 131.42 19.9258 131.375 19.9258C131.217 19.9258 131.054 19.909 130.897 19.8753C130.723 19.8359 130.554 19.7573 130.38 19.718C130.313 19.7011 130.234 19.7573 130.161 19.7798C130.195 19.8416 130.212 19.9314 130.262 19.9595C130.392 20.0382 130.532 20.0887 130.667 20.1618C130.774 20.2179 130.886 20.2685 130.987 20.3415C131.032 20.3752 131.071 20.4707 131.054 20.5101C131.032 20.5606 130.948 20.6056 130.886 20.6112C130.487 20.6449 130.116 20.5662 129.779 20.3471C129.633 20.2516 129.476 20.1056 129.296 20.291C129.251 20.3359 129.217 20.3977 129.178 20.4539C129.234 20.4932 129.29 20.5494 129.352 20.5718C129.628 20.6561 129.908 20.7235 130.184 20.8022C130.324 20.8415 130.465 20.8977 130.425 21.0831C130.392 21.2572 130.245 21.2516 130.111 21.2516C129.751 21.2516 129.431 21.1392 129.122 20.9651C128.903 20.8415 128.673 20.7235 128.358 20.9201C129.071 21.1786 129.734 21.4201 130.397 21.6617C130.397 21.6841 130.397 21.7066 130.397 21.7291C130.319 21.7628 130.234 21.8246 130.15 21.8302C129.56 21.8695 128.965 21.892 128.414 21.6336C128.302 21.583 128.184 21.5156 128.116 21.4201C127.993 21.2404 127.908 21.2965 127.807 21.4201C127.791 21.4426 127.768 21.4651 127.712 21.5212C128.504 21.8134 129.274 22.0942 130.049 22.3807C129.695 22.7964 127.532 22.5942 127.319 21.9313C127.212 22.0437 127.111 22.156 126.998 22.274C127.341 22.4201 127.689 22.5886 128.055 22.7234C128.431 22.8639 128.824 22.965 129.206 23.0942C129.279 23.1166 129.335 23.1953 129.397 23.2459C129.33 23.2852 129.262 23.347 129.189 23.3582C128.341 23.5043 127.521 23.4706 126.763 23.0043C126.667 22.9425 126.566 22.8863 126.47 22.8245C126.493 22.7908 126.51 22.7627 126.532 22.729C126.442 22.8358 126.352 22.9481 126.291 23.0268C126.521 23.1335 126.751 23.2515 126.993 23.3526C127.616 23.6166 128.246 23.8638 128.869 24.1278C128.981 24.1728 129.071 24.2627 129.172 24.3357C129.054 24.3862 128.937 24.4705 128.813 24.4761C128.56 24.4874 128.307 24.4761 128.06 24.4368C127.689 24.3806 127.313 24.3132 126.954 24.2065C126.667 24.1222 126.397 23.9705 126.116 23.8469C126.094 24.0436 126.291 24.1334 126.414 24.2009C126.942 24.493 127.493 24.7514 128.032 25.021C128.296 25.1502 128.56 25.2738 128.847 25.4087C128.611 25.6671 128.352 25.6277 128.122 25.5997C127.667 25.5435 127.212 25.4424 126.74 25.3581C126.785 25.4929 126.824 25.5884 127.004 25.6334C127.453 25.7513 127.897 25.9086 128.341 26.0603C128.42 26.0884 128.476 26.167 128.543 26.2232C128.465 26.2738 128.386 26.358 128.302 26.3637C127.982 26.3805 127.661 26.3693 127.341 26.3637C127.307 26.3637 127.268 26.3468 127.251 26.3243C127.24 26.3075 127.251 26.2682 127.251 26.2513H128.234C127.852 26.1783 127.487 26.1052 127.1 26.0154C127.06 25.9873 127.049 25.9817 127.032 25.976C127.043 26.0041 127.055 26.0266 127.066 26.0547C127.279 26.5715 127.493 27.0883 127.695 27.5771C127.774 27.5434 127.841 27.4928 127.897 27.4984C127.965 27.5097 128.071 27.6108 128.066 27.6164C128.01 27.7175 127.937 27.8074 127.852 27.9254C127.903 28.0377 127.97 28.2062 128.043 28.3804H126.105C125.864 27.7905 125.622 27.1951 125.381 26.594H121.92C121.679 27.1895 121.437 27.7849 121.195 28.3804H119.308C120.482 25.6165 121.65 22.8751 122.825 20.1112C123.341 20.1112 123.881 20.1112 124.42 20.1112C124.476 20.1112 124.56 20.1674 124.577 20.2123C124.892 20.9539 125.201 21.701 125.515 22.4425C125.543 22.5156 125.594 22.5774 125.633 22.6504C125.712 22.8077 125.785 22.965 125.864 23.1335C125.937 23.0549 126.038 22.9481 126.15 22.8245C125.734 22.7234 125.622 22.392 125.521 22.083C125.319 21.4707 125.302 20.8471 125.454 20.2179C125.47 20.1449 125.521 20.0775 125.555 20.0101C125.583 20.0101 125.611 19.9988 125.633 19.9932C125.706 20.1898 125.779 20.3809 125.852 20.5775C126.038 21.0774 126.218 21.5774 126.403 22.0718C126.442 22.1729 126.476 22.274 126.504 22.3526C126.588 22.2684 126.695 22.156 126.796 22.0493C126.381 21.7572 126.279 21.2797 126.263 20.7741C126.246 20.3696 126.24 19.9651 126.397 19.5775C126.425 19.5101 126.465 19.4427 126.504 19.3809C126.527 19.3809 126.549 19.3809 126.572 19.3809C126.616 19.5045 126.684 19.6225 126.712 19.7461C126.841 20.3415 126.948 20.937 127.246 21.4819C127.268 21.5212 127.262 21.5774 127.268 21.6167C127.375 21.51 127.476 21.4033 127.583 21.2965C127.229 21.1842 127.212 20.8415 127.178 20.5381C127.122 20.0775 127.195 19.6168 127.352 19.1731C127.386 19.0719 127.482 18.9933 127.577 18.8641C127.701 19.6225 127.819 20.3078 127.931 21.0044C128.026 20.937 128.105 20.8808 128.184 20.819C128.302 20.7179 128.324 20.6168 128.313 20.4426C128.279 19.9258 128.184 19.3921 128.482 18.909C128.549 18.8023 128.639 18.7068 128.746 18.5776C128.981 19.145 128.835 19.6786 128.824 20.2123C129.111 20.1449 129.156 19.9988 129.083 19.6225C128.998 19.1899 129.032 18.763 129.347 18.4034C129.363 18.381 129.392 18.3697 129.448 18.3248C129.487 18.4259 129.543 18.5102 129.543 18.5944C129.538 18.8304 129.498 19.0607 129.487 19.2966C129.487 19.3865 129.504 19.4764 129.515 19.5607C129.549 19.5607 129.577 19.5607 129.611 19.5607C129.633 19.4539 129.672 19.3528 129.684 19.2405C129.706 19.0495 129.695 18.8585 129.74 18.6731C129.768 18.5495 129.858 18.4371 129.931 18.2967C130.234 18.5944 129.976 18.9652 130.212 19.2348C130.212 19.1225 130.217 19.0101 130.229 18.9034C130.24 18.763 130.245 18.6281 130.274 18.4877C130.285 18.4315 130.341 18.3922 130.375 18.3416C130.431 18.3922 130.515 18.4315 130.538 18.4933C130.583 18.6225 130.588 18.763 130.616 18.9315C130.633 18.6675 130.65 18.4371 130.672 18.1956C130.759 18.2255 130.85 18.3941 130.948 18.7012C131.015 18.4821 131.088 18.2686 131.156 18.0495C131.189 18.0495 131.229 18.0495 131.262 18.0551C131.296 18.1787 131.324 18.2967 131.358 18.4203C131.375 18.4203 131.391 18.4203 131.414 18.4203C131.448 18.2742 131.487 18.1225 131.521 17.9765C131.538 17.9709 131.549 17.9653 131.566 17.9596C131.594 18.0439 131.627 18.1282 131.672 18.2518C131.723 18.1338 131.762 18.0214 131.818 17.9259C131.858 17.8585 131.925 17.808 131.981 17.7462C132.026 17.808 132.077 17.8754 132.133 17.9484C132.167 17.8698 132.212 17.7799 132.257 17.6844C132.335 17.5158 132.386 17.5158 132.498 17.6675C132.611 17.6338 132.712 17.6001 132.835 17.5664C132.852 17.6001 132.852 17.6338 132.852 17.6844M123.993 23.2459C123.881 22.965 123.763 22.6841 123.633 22.3639C123.268 23.2515 122.931 24.0829 122.583 24.9312H124.69C124.454 24.3694 124.223 23.8301 123.993 23.2515M126.757 22.8189C126.841 22.8807 126.914 22.9481 127.004 22.9987C127.375 23.2121 127.791 23.2796 128.212 23.3133C128.465 23.3301 128.717 23.3076 129.021 23.2964C128.504 23.1279 128.06 22.9706 127.611 22.8302C127.414 22.7684 127.212 22.7009 127.01 22.6785C126.925 22.6672 126.83 22.7571 126.763 22.8245M128.071 22.3189C128.566 22.4987 129.083 22.4538 129.594 22.4369C129.054 22.2628 128.51 22.0999 127.965 21.9482C127.807 21.9032 127.639 21.8864 127.476 21.8583L127.453 21.9426C127.588 22.156 127.824 22.2066 128.071 22.3189ZM127.139 23.8245C127.06 23.7908 126.982 23.7514 126.897 23.7234C126.633 23.6335 126.375 23.4818 126.066 23.5492C126.454 24.0885 127.942 24.3582 128.431 24.3188C128.055 24.1784 127.611 24.0099 127.139 23.8189M127.1 24.9536C126.909 24.8806 126.718 24.8132 126.498 24.7289C126.572 25.0267 126.65 25.2008 126.97 25.257C127.465 25.3412 127.953 25.4817 128.47 25.4367C128.026 25.2794 127.577 25.1222 127.1 24.948M125.881 21.9931C125.763 21.437 125.65 20.8752 125.532 20.3247C125.437 20.9258 125.42 21.5381 125.661 22.1279C125.746 22.3302 125.785 22.583 126.072 22.6785C125.999 22.4425 125.942 22.2347 125.875 21.9931M126.42 19.9989C126.291 20.6336 126.386 21.7684 126.892 21.9145C126.762 21.1449 126.437 20.4258 126.476 19.6393C126.459 19.7461 126.442 19.8528 126.425 19.9989M129.465 21.7347H129.908C129.51 21.5999 129.116 21.4482 128.717 21.3359C128.538 21.2853 128.358 21.0831 128.122 21.2741C128.212 21.3415 128.291 21.4033 128.375 21.4594C128.695 21.6504 129.06 21.6898 129.459 21.7347M126.577 23.2627C126.425 23.2852 126.268 23.3077 126.116 23.3301C127.032 23.5099 127.779 24.1278 128.746 24.2065C127.982 23.9312 127.251 23.7009 126.577 23.2627ZM127.498 20.7629C127.47 20.2741 127.442 19.7798 127.42 19.3247C127.15 19.9932 127.223 20.9932 127.56 21.1336C127.538 21.0156 127.515 20.9089 127.498 20.7572M126.195 22.0212C126.066 21.6954 125.931 21.3639 125.802 21.0381C125.791 21.0381 125.774 21.0437 125.763 21.0493C125.897 21.5606 126.032 22.0718 126.173 22.5942C126.431 22.3976 126.341 22.2234 126.195 22.0212ZM129.701 20.0269C129.661 20.0438 129.622 20.0606 129.56 20.0831C129.942 20.2797 130.274 20.5381 130.717 20.4595C130.605 20.3977 130.504 20.3359 130.392 20.2853C130.172 20.1898 129.953 20.1112 129.701 20.0213M128.493 20.0045C128.521 19.673 128.549 19.3472 128.577 18.9933C128.397 19.2966 128.335 19.982 128.448 20.4932C128.465 20.3415 128.476 20.1955 128.493 19.9989M129.167 20.7741C129.043 20.7291 128.925 20.6842 128.802 20.6393C129.262 20.8359 129.672 21.201 130.274 21.0831C129.886 20.9763 129.543 20.8808 129.167 20.7741ZM126.673 24.5267C126.566 24.4649 126.459 24.4031 126.352 24.3357C126.341 24.3469 126.324 24.3638 126.313 24.375C126.352 24.4424 126.38 24.5435 126.437 24.566C126.729 24.6896 127.032 24.7907 127.336 24.8974C127.336 24.8862 127.347 24.8694 127.352 24.8581C127.139 24.7458 126.92 24.6334 126.673 24.5211M129.296 18.8809V18.6562C129.088 19.0888 129.167 19.4764 129.234 19.8696C129.262 19.7123 129.29 19.5494 129.29 19.3921C129.29 19.2348 129.274 19.0719 129.29 18.8809M127.633 20.6393L127.689 21.0493C127.689 21.0493 127.734 21.0437 127.762 21.0381C127.796 20.6505 127.555 20.2966 127.588 19.909C127.566 19.909 127.543 19.909 127.526 19.9146C127.56 20.1449 127.594 20.3696 127.633 20.6393ZM127.083 21.6392C127.083 21.583 127.094 21.5156 127.071 21.4707C126.982 21.2516 126.886 21.0381 126.791 20.819C126.836 21.0999 126.914 21.3752 126.993 21.6504C126.993 21.6617 127.032 21.6617 127.083 21.6392ZM127.712 26.0547H127.88C127.88 26.0547 127.88 26.0378 127.88 26.0322C127.566 25.9367 127.246 25.8412 126.931 25.7457L126.909 25.8075C127.133 25.976 127.425 25.9536 127.712 26.0547ZM128.628 19.9146C128.622 20.0831 128.611 20.2516 128.605 20.4202C128.622 20.4202 128.639 20.4202 128.656 20.4202C128.678 20.0101 128.706 19.6056 128.729 19.1955H128.678C128.661 19.4146 128.644 19.6393 128.628 19.909V19.9146Z" fill="black"/>
<path d="M103.101 0.0112356C103.421 0.713443 103.724 1.41565 104.022 2.11786C104.297 2.76951 104.578 3.41554 104.854 4.06719C105.179 4.83119 105.494 5.59519 105.82 6.35357C106.05 6.89287 106.281 7.42655 106.511 7.96584C106.55 8.05011 106.584 8.13999 106.629 8.24672C106.005 8.24672 105.404 8.24672 104.803 8.24672C104.753 8.24672 104.679 8.18493 104.657 8.13437C104.421 7.57822 104.196 7.01646 103.966 6.45469C102.848 6.45469 101.741 6.45469 100.635 6.45469C100.584 6.45469 100.5 6.49401 100.483 6.53895C100.264 7.05578 100.062 7.57822 99.8427 8.09505C99.8146 8.15684 99.7359 8.24111 99.6798 8.24111C99.0955 8.25234 98.5113 8.24672 97.9046 8.24672C98.0394 7.93213 98.163 7.64002 98.2978 7.31419C96.8766 7.65687 95.8036 6.9996 94.725 6.18504C94.9722 6.2356 95.1688 6.2974 95.3598 6.30301C95.6631 6.30863 95.9721 6.30863 96.2642 6.25246C96.7979 6.14572 97.326 5.99966 97.854 5.86484C97.663 5.54463 97.4046 5.40981 97.0507 5.49969C96.371 5.66822 95.7249 5.57833 95.0901 5.30307C94.9272 5.23004 94.7475 5.19072 94.5621 5.13454C94.5452 5.11207 94.5452 5.09522 94.5621 5.06151C95.2699 5.10083 95.871 4.81995 96.444 4.55592C96.3597 4.39301 96.2867 4.24133 96.2024 4.08965C96.1743 4.0391 96.1294 3.9773 96.0789 3.96045C95.4047 3.68518 95.1519 3.03915 94.7868 2.48862C95.034 2.63468 95.2474 2.85377 95.5058 2.95489C95.7755 3.06162 96.0845 3.05039 96.3541 3.0841C96.7642 2.58412 96.6743 2.01674 96.5845 1.44374C96.6406 1.47744 96.6743 1.51677 96.6968 1.56171C96.7586 1.69091 96.8092 1.82574 96.8653 1.96056C97.1687 2.65154 97.4327 3.34251 97.1574 4.11774C97.1125 4.24695 97.1237 4.4548 97.2024 4.56154C97.3653 4.78063 97.5956 4.94916 97.7866 5.12892C97.8821 4.5166 98.1574 3.96045 98.6068 3.46048C98.9326 3.09533 99.2978 2.7358 99.4045 2.20774C99.4382 2.26953 99.4438 2.33133 99.4438 2.38751C99.4438 2.7358 99.4551 3.08971 99.4438 3.43801C99.4157 4.02224 99.2697 4.57277 98.8933 5.03342C98.7416 5.2188 98.5787 5.38733 98.4158 5.55586C98.2866 5.69069 98.281 5.83113 98.3821 5.97157C98.472 6.09516 98.5899 6.2019 98.7135 6.34234C98.8596 5.99404 98.9832 5.69631 99.1124 5.39857C99.3877 4.75816 99.6685 4.11774 99.9382 3.47171C100.309 2.59536 100.68 1.719 101.05 0.842649C101.168 0.561766 101.27 0.280883 101.382 0C101.955 0 102.522 0 103.118 0M103.118 4.35369C102.826 3.64586 102.534 2.93804 102.236 2.20774C101.882 3.07286 101.539 3.91551 101.191 4.76939H103.292C103.236 4.63457 103.18 4.51098 103.123 4.35369H103.118Z" fill="black"/>
<path d="M117.269 0.011261C117.291 2.74706 117.291 5.48286 117.291 8.2299H115.454V2.94368C115.235 3.2695 115.044 3.54477 114.859 3.82565C114.325 4.63459 113.797 5.44916 113.263 6.26372C113.173 6.40416 113.112 6.47157 112.982 6.26372C112.275 5.16827 111.55 4.08968 110.814 2.97738V8.2299H109.005V0.0337321C109.668 0.0112615 110.325 0.0112615 111.011 0.0337321C111.05 0.0955264 111.067 0.146083 111.095 0.185407C111.556 0.932556 112.016 1.67409 112.477 2.41562C112.69 2.76391 112.921 3.10097 113.151 3.45489C113.673 2.61786 114.173 1.80891 114.679 0.994351C114.881 0.668527 115.072 0.337085 115.263 0.011261C115.926 0.011261 116.583 0.011261 117.269 0.011261Z" fill="black"/>
<path d="M124.375 0.011261C124.566 0.432585 124.735 0.848291 124.914 1.26962C125.235 2.03362 125.56 2.79762 125.881 3.56162C126.156 4.20765 126.431 4.84806 126.701 5.48848C127.027 6.2581 127.352 7.02772 127.678 7.79734C127.734 7.93778 127.802 8.0726 127.881 8.24113H126.381C125.914 8.24113 125.914 8.24113 125.746 7.81419C125.583 7.39286 125.414 6.97154 125.24 6.55022C125.218 6.49966 125.134 6.4491 125.083 6.4491C123.976 6.44348 122.864 6.4491 121.757 6.4491C121.527 7.01086 121.297 7.56139 121.061 8.11192C121.033 8.17372 120.943 8.24113 120.887 8.24113C120.308 8.25237 119.735 8.24675 119.139 8.24675C119.398 7.63442 119.645 7.02772 119.903 6.42663C120.229 5.65139 120.555 4.87054 120.892 4.0953C121.218 3.34253 121.549 2.58977 121.875 1.83138C122.111 1.28085 122.33 0.724704 122.561 0.174174C122.577 0.129232 122.611 0.0842899 122.639 0.0281133C123.212 0.0112603 123.785 0.011261 124.375 0.011261ZM123.027 3.33691C122.83 3.81441 122.628 4.29192 122.431 4.76942H124.532C124.179 3.90992 123.836 3.06727 123.482 2.20215C123.33 2.58976 123.19 2.9493 123.027 3.33691Z" fill="black"/>
<path d="M103.449 27.2176C102.837 26.4255 102.236 25.6446 101.64 24.8581C101.264 24.3638 100.888 23.8694 100.517 23.3807C100.494 23.3526 100.478 23.3189 100.433 23.2571V28.386H98.59V20.1618C99.1349 20.1618 99.6742 20.1393 100.208 20.1786C100.343 20.1899 100.483 20.3977 100.59 20.5382C101.286 21.4482 101.972 22.3639 102.663 23.274C103.135 23.8975 103.607 24.5155 104.107 25.1671V20.1674H105.904V28.3917C105.41 28.3917 104.915 28.3917 104.427 28.3917C104.376 28.3917 104.314 28.3523 104.286 28.3074C104.011 27.9479 103.741 27.5883 103.461 27.2176H103.449Z" fill="black"/>
<path d="M115.864 10.887C116.392 11.2914 116.786 11.7914 117.061 12.3757C117.33 12.9318 117.46 13.5329 117.46 14.1452C117.46 15.8979 116.505 17.4765 114.78 18.1562C114.319 18.336 113.853 18.4259 113.359 18.4596C112.488 18.5214 111.662 18.3641 110.898 17.954C109.758 17.336 109.05 16.3867 108.786 15.1058C108.595 14.1789 108.685 13.2857 109.084 12.4318C109.623 11.2634 110.539 10.4994 111.775 10.1398C112.364 9.96568 112.977 9.92074 113.6 9.98815C114.387 10.0724 115.083 10.3533 115.741 10.769C115.786 10.7971 115.819 10.842 115.87 10.887M115.016 15.8024C115.067 15.7294 115.134 15.6676 115.173 15.589C115.46 15.0328 115.6 14.4542 115.499 13.8194C115.387 13.1397 115.089 12.5779 114.55 12.1566C113.971 11.7128 113.314 11.5667 112.589 11.7015C111.786 11.8588 111.213 12.3251 110.87 13.0442C110.617 13.5778 110.567 14.1508 110.685 14.7351C110.814 15.3811 111.123 15.9148 111.668 16.3024C112.19 16.6788 112.769 16.8248 113.415 16.7406C114.078 16.6507 114.612 16.3586 115.027 15.7912L115.016 15.8024Z" fill="black"/>
<path d="M103.208 10.0893H105.23C105.23 10.5556 105.264 11.0106 105.213 11.46C105.196 11.6229 104.988 11.769 104.859 11.9207C104.438 12.4206 104.017 12.9206 103.59 13.4149C103.281 13.7745 102.966 14.1228 102.657 14.4823C102.23 14.9767 101.809 15.4822 101.382 15.9766C101.185 16.2069 100.977 16.4372 100.747 16.6957H102.702C103.466 16.6957 104.23 16.6957 104.994 16.6957C105.163 16.6957 105.236 16.7294 105.23 16.9204C105.219 17.3754 105.23 17.836 105.23 18.3079H98.3484C98.3484 17.8698 98.3091 17.4203 98.3653 16.9822C98.3877 16.7968 98.6068 16.6282 98.7473 16.4597C99.1911 15.9373 99.6349 15.4148 100.084 14.898C100.489 14.4317 100.899 13.9655 101.303 13.4936C101.719 13.0105 102.129 12.5161 102.545 12.033C102.623 11.9375 102.73 11.8645 102.826 11.7802C102.814 11.7634 102.809 11.7465 102.798 11.724H98.4945V10.0893H103.202H103.208Z" fill="black"/>
<path d="M113.196 20.1618H113.859V28.3804H112.039V20.1618H113.196Z" fill="black"/>
<path d="M111.488 9.36465H110.707C110.853 9.18488 110.971 9.02759 111.106 8.87591C111.443 8.48829 111.786 8.09506 112.134 7.71868C112.19 7.65688 112.297 7.61756 112.381 7.61756C112.853 7.60632 113.325 7.60632 113.797 7.61756C113.887 7.61756 113.988 7.69059 114.055 7.76362C114.28 8.00517 114.488 8.26359 114.707 8.51077C114.948 8.78603 115.196 9.06129 115.471 9.36465C114.954 9.36465 114.471 9.3815 113.988 9.35341C113.853 9.34218 113.718 9.19612 113.595 9.10062C113.46 9.00512 113.336 8.88715 113.19 8.80288C113.14 8.76918 113.027 8.78041 112.971 8.81412C112.718 8.97141 112.482 9.15118 112.235 9.31409C112.19 9.34218 112.128 9.35903 112.072 9.36465C111.887 9.37027 111.696 9.36465 111.488 9.36465Z" fill="black"/>
<path d="M127.813 26.7288C127.97 26.7738 128.105 26.8075 128.24 26.8637C128.296 26.8861 128.341 26.9367 128.392 26.976C128.347 27.0266 128.307 27.0996 128.251 27.1165C128.043 27.1726 127.83 27.2063 127.622 27.2513C127.611 27.2288 127.594 27.212 127.583 27.1895C127.616 27.1558 127.644 27.1108 127.684 27.094C127.734 27.0715 127.802 27.0659 127.863 27.0266C127.616 27.049 127.487 26.9535 127.459 26.6783C127.577 26.6951 127.684 26.7176 127.813 26.7345V26.7288Z" fill="black"/>
<path d="M122.768 30.2399C122.768 30.0657 122.684 29.9814 122.431 29.9814H122.066V30.5095H122.431C122.65 30.5095 122.774 30.4196 122.774 30.2399H122.768Z" fill="black"/>
<path d="M127.364 29.1163H127.296C117.797 29.1163 108.303 29.1163 98.8035 29.1163C98.6237 29.1163 98.5732 29.1669 98.5732 29.3466C98.5844 30.2286 98.5732 31.1162 98.5956 31.9982C107.809 31.9982 116.999 31.9982 126.195 31.9813C126.223 31.9476 126.246 31.9195 126.274 31.9083C126.824 31.7735 127.251 31.4308 127.341 30.8971C127.442 30.3241 127.364 29.7174 127.364 29.1163ZM112.218 31.3578C111.775 31.3578 111.589 31.1443 111.55 30.8465L111.775 30.796C111.814 31.0375 111.96 31.1611 112.23 31.1611C112.477 31.1611 112.584 31.0656 112.584 30.9196C112.584 30.7735 112.488 30.6949 112.179 30.6443C111.758 30.5657 111.617 30.414 111.617 30.178C111.617 29.9196 111.808 29.7455 112.185 29.7455C112.561 29.7455 112.724 29.9309 112.78 30.2061L112.544 30.2511C112.494 30.0432 112.415 29.9365 112.174 29.9365C111.954 29.9365 111.848 30.0264 111.848 30.1612C111.848 30.2904 111.915 30.3803 112.258 30.4421C112.707 30.532 112.82 30.6836 112.82 30.9027C112.82 31.1724 112.645 31.3521 112.224 31.3521L112.218 31.3578ZM113.994 31.324H113.758V29.7792H113.994V31.324ZM116.089 29.987H115.252V30.4365H116.005V30.6443H115.252V31.1162H116.089V31.324H115.016V29.7792H116.089V29.987ZM118.769 31.324H118.533V30.56C118.533 30.3859 118.538 30.15 118.544 29.9758H118.493C118.432 30.1612 118.359 30.3971 118.28 30.605L118.022 31.2342H117.78L117.527 30.5937C117.443 30.3747 117.375 30.1556 117.319 29.9758H117.274C117.274 30.1219 117.274 30.3016 117.274 30.4645V31.324H117.055V29.7792H117.448L117.724 30.4982C117.763 30.605 117.836 30.8241 117.892 30.9926H117.937C117.988 30.8185 118.061 30.6106 118.106 30.4926L118.387 29.7792H118.757V31.324H118.769ZM120.398 30.7735H120.027V31.324H119.791V29.7792H120.392C120.757 29.7792 120.937 29.9421 120.937 30.2792C120.937 30.5657 120.746 30.7791 120.398 30.7791V30.7735ZM123.094 31.324H122.819L122.392 30.7117H122.066V31.324H121.83V29.7792H122.454C122.836 29.7792 123.004 29.9421 123.004 30.2342C123.004 30.4814 122.875 30.6387 122.634 30.6949L123.094 31.3016V31.3297V31.324ZM125.089 29.987H124.252V30.4365H125.004V30.6443H124.252V31.1162H125.089V31.324H124.016V29.7792H125.089V29.987Z" fill="black"/>
<path d="M120.369 29.9814H120.027V30.5769H120.369C120.605 30.5769 120.701 30.4814 120.701 30.2792C120.701 30.0769 120.617 29.9814 120.364 29.9814H120.369Z" fill="black"/>
<path d="M61.8729 11.7409V12.7971H60.328V17.1676H59.1315V12.7971H57.5866V11.7409H61.8729Z" fill="black"/>
<path d="M17.1619 31.5375C17.3023 31.5375 17.4259 31.6443 17.3641 31.9195L16.7012 32.0712C16.8192 31.7622 17.0102 31.5375 17.1619 31.5375ZM17.527 32.6049H17.3978C17.2293 32.8015 17.0552 32.9588 16.8754 32.9588C16.6956 32.9588 16.6001 32.8521 16.6001 32.6049C16.6001 32.5038 16.6114 32.4027 16.6282 32.3128L17.6956 31.9589C17.9034 31.4645 17.6506 31.251 17.3585 31.251C16.8529 31.251 16.2799 32.0993 16.2799 32.8352C16.2799 33.1667 16.4372 33.3464 16.6844 33.3464C16.9765 33.3464 17.2742 33.0655 17.5214 32.5993M17.3136 31.0544L18.0663 30.3522V30.2679H17.6619L17.1956 31.0544H17.3136ZM15.0047 31.5488H15.3586L14.7968 33.088C14.7463 33.2172 14.8137 33.352 14.9485 33.352C15.2687 33.352 15.7856 33.0375 15.9653 32.6049H15.8642C15.7238 32.7566 15.4485 32.9588 15.2125 32.9981L15.7294 31.5488H16.2574L16.3248 31.3297H15.8136L16.0103 30.7735H15.808L15.4429 31.3297L15.0047 31.3915V31.5488ZM14.5272 31.4757C14.5721 31.3353 14.471 31.251 14.398 31.251C14.089 31.251 13.7239 31.5263 13.5778 31.9195H13.6789C13.7801 31.7791 13.9486 31.6162 14.1059 31.5937L13.516 33.133C13.4598 33.2734 13.5722 33.3577 13.6452 33.3577C13.9373 33.3577 14.28 33.0768 14.4317 32.6892H14.3306C14.2295 32.8296 14.0609 32.9925 13.9036 33.015L14.5328 31.4757H14.5272ZM14.6339 30.7005C14.7744 30.7005 14.8867 30.5882 14.8867 30.4477C14.8867 30.3073 14.7688 30.1949 14.6339 30.1949C14.4991 30.1949 14.3811 30.3129 14.3811 30.4477C14.3811 30.5825 14.4935 30.7005 14.6339 30.7005ZM11.2353 33.0655C11.1566 33.2397 11.2352 33.352 11.4094 33.352C11.5105 33.352 11.5611 33.324 11.6004 33.2116L12.0105 32.1274C12.2015 31.8971 12.5891 31.6499 12.7464 31.6499C12.8588 31.6499 12.8419 31.7398 12.7689 31.8802L12.1397 33.088C12.0779 33.206 12.1565 33.352 12.2914 33.352C12.6003 33.352 12.9655 33.0768 13.1115 32.6835H13.0104C12.9093 32.824 12.7408 32.9869 12.5835 33.0094L13.1228 31.9195C13.1902 31.7791 13.2239 31.6499 13.2239 31.5432C13.2239 31.3634 13.1228 31.251 12.9374 31.251C12.6734 31.251 12.3981 31.5544 12.0835 31.9252V31.6387C12.0835 31.4364 12.0161 31.251 11.8307 31.251C11.7128 31.251 11.6004 31.3522 11.4993 31.4926V31.5319C11.7015 31.5207 11.7914 31.824 11.6453 32.1386L11.2296 33.0655H11.2353ZM11.224 31.7229C11.2971 31.4701 11.2577 31.251 11.0667 31.251C10.8364 31.251 10.7802 31.4252 10.5499 31.9252V31.6387C10.5499 31.4364 10.4825 31.251 10.2971 31.251C10.0836 31.251 9.887 31.5881 9.73533 31.9195H9.83646C9.93758 31.7679 10.0387 31.678 10.1117 31.678C10.2016 31.678 10.2522 31.8184 10.1117 32.1386L9.69602 33.0655C9.61737 33.2397 9.69602 33.352 9.87016 33.352C9.97128 33.352 10.0218 33.324 10.0612 33.2116L10.4712 32.1274C10.5892 31.987 10.6903 31.8634 10.8252 31.7229H11.2296H11.224ZM8.85337 31.5375C8.99381 31.5375 9.11739 31.6443 9.0556 31.9195L8.39272 32.0712C8.50507 31.7622 8.70169 31.5375 8.85337 31.5375ZM9.22414 32.6049H9.09492C8.92639 32.8015 8.75225 32.9588 8.57249 32.9588C8.39272 32.9588 8.29721 32.8521 8.29721 32.6049C8.29721 32.5038 8.30845 32.4027 8.32531 32.3128L9.39266 31.9589C9.60051 31.4645 9.34771 31.251 9.0556 31.251C8.55001 31.251 7.97702 32.0993 7.97702 32.8352C7.97702 33.1667 8.13431 33.3464 8.38149 33.3464C8.67361 33.3464 8.97134 33.0655 9.21851 32.5993M6.7018 31.5488H7.05571L6.49395 33.088C6.44339 33.2172 6.51079 33.352 6.64562 33.352C6.96582 33.352 7.48265 33.0375 7.66241 32.6049H7.5613C7.42086 32.7566 7.14559 32.9588 6.90965 32.9981L7.42648 31.5488H7.95454L8.02195 31.3297H7.50512L7.70174 30.7735H7.49951L7.13437 31.3297L6.69619 31.3915V31.5488H6.7018ZM4.75247 32.751C4.75247 32.2791 5.28053 31.633 5.57826 31.633C5.64568 31.633 5.70747 31.6387 5.75803 31.6555L5.44907 32.4757C5.2693 32.6892 4.99404 32.9532 4.87045 32.9532C4.79742 32.9532 4.75247 32.8914 4.75247 32.751ZM6.37598 31.1612L6.21306 31.1499L6.03329 31.3297H5.99398C5.11201 31.3297 4.35362 32.3184 4.35362 33.0375C4.35362 33.2397 4.47721 33.352 4.66821 33.352C4.89853 33.352 5.12324 33.0262 5.37041 32.6779L5.35918 32.8015C5.3311 33.1554 5.43783 33.352 5.62321 33.352C5.83669 33.352 6.0333 33.015 6.18498 32.6835H6.08385C5.98273 32.8352 5.88162 32.9251 5.80859 32.9251C5.72432 32.9251 5.66815 32.779 5.80859 32.4645L6.37598 31.1612ZM4.49968 31.7229C4.57271 31.4701 4.53339 31.251 4.34239 31.251C4.11206 31.251 4.05588 31.4252 3.82556 31.9252V31.6387C3.82556 31.4364 3.75814 31.251 3.57276 31.251C3.35928 31.251 3.16267 31.5881 3.01099 31.9195H3.11212C3.21324 31.7679 3.31435 31.678 3.38738 31.678C3.47726 31.678 3.52782 31.8184 3.38738 32.1386L2.97168 33.0655C2.89303 33.2397 2.97168 33.352 3.14582 33.352C3.24694 33.352 3.2975 33.324 3.33682 33.2116L3.74692 32.1274C3.86489 31.987 3.96599 31.8634 4.10082 31.7229H4.50529H4.49968ZM1.54479 33.2734L1.58412 33.1554C1.07291 33.0599 1.00549 33.0599 1.20773 32.4982L1.41558 31.9252H1.98297C2.23576 31.9252 2.24139 32.0263 2.20206 32.3072H2.34811L2.6908 31.3746H2.54473C2.41553 31.5937 2.31441 31.7566 2.03915 31.7566H1.47738L1.77511 30.9421C1.865 30.6837 1.92118 30.6275 2.26947 30.6275H2.51665C2.87618 30.6275 2.92112 30.723 2.92112 31.0881H3.06156L3.17953 30.4533H1.04481L1.0055 30.5713C1.41559 30.6556 1.46052 30.6949 1.26391 31.2286L0.797648 32.4925C0.606647 33.0206 0.522373 33.0655 0.0504893 33.1498L0.0167847 33.2678H1.53917L1.54479 33.2734Z" fill="black"/>
<path d="M11.9882 26.712C12.1286 26.712 12.2522 26.8187 12.1904 27.094L11.5275 27.2457C11.6399 26.9367 11.8365 26.712 11.9882 26.712ZM12.359 27.7793H12.2297C12.0612 27.976 11.8871 28.1333 11.7073 28.1333C11.5275 28.1333 11.432 28.0265 11.432 27.7793C11.432 27.6782 11.4433 27.5771 11.4601 27.4872L12.5275 27.1333C12.7353 26.639 12.4826 26.4255 12.1904 26.4255C11.6848 26.4255 11.1118 27.2738 11.1118 28.0097C11.1118 28.3411 11.2691 28.5209 11.5163 28.5209C11.8084 28.5209 12.1062 28.24 12.3533 27.7737M12.1455 26.2289L12.8982 25.5267V25.4424H12.4938L12.0275 26.2289H12.1455ZM9.83663 26.7232H10.1905L9.62877 28.2625C9.57821 28.3917 9.64563 28.5265 9.78045 28.5265C10.1007 28.5265 10.6175 28.2119 10.7972 27.7793H10.6961C10.5557 27.931 10.2804 28.1333 10.0445 28.1726L10.5613 26.7232H11.0894L11.1568 26.5041H10.6456L10.8422 25.948H10.64L10.2748 26.5041L9.83663 26.5659V26.7232ZM9.35913 26.6502C9.40407 26.5098 9.30295 26.4255 9.22992 26.4255C8.92095 26.4255 8.5558 26.7008 8.40974 27.094H8.51086C8.61198 26.9535 8.78051 26.7906 8.93781 26.7682L8.34794 28.3074C8.29176 28.4478 8.40412 28.5321 8.47715 28.5321C8.76927 28.5321 9.11195 28.2512 9.26362 27.8636H9.16251C9.06139 28.0041 8.89285 28.167 8.73556 28.1894L9.36475 26.6502H9.35913ZM9.46587 25.875C9.60631 25.875 9.71865 25.7626 9.71865 25.6222C9.71865 25.4817 9.60069 25.3694 9.46587 25.3694C9.33104 25.3694 9.21307 25.4873 9.21307 25.6222C9.21307 25.757 9.32543 25.875 9.46587 25.875ZM7.4098 28.1838L8.48838 25.3638L8.45468 25.3188L7.78057 25.3975V25.4817L7.90976 25.5828C8.02773 25.6727 7.99404 25.7626 7.88168 26.0491L7.03903 28.2681C6.97724 28.3861 7.05588 28.5321 7.1907 28.5321C7.49968 28.5321 7.82551 28.2568 7.97719 27.8636H7.87606C7.77494 28.0041 7.5671 28.167 7.4098 28.1894M5.36496 27.9254C5.36496 27.4535 5.89303 26.8075 6.19076 26.8075C6.25817 26.8075 6.31997 26.8131 6.37053 26.83L6.06157 27.6501C5.8818 27.8636 5.60654 28.1276 5.48295 28.1276C5.40992 28.1276 5.36496 28.0658 5.36496 27.9254ZM6.98848 26.3356L6.82556 26.3244L6.64579 26.5041H6.60648C5.72451 26.5041 4.96612 27.4928 4.96612 28.2119C4.96612 28.4141 5.0897 28.5265 5.2807 28.5265C5.51103 28.5265 5.73573 28.2007 5.98291 27.8524L5.97168 27.976C5.94359 28.3299 6.05033 28.5265 6.23571 28.5265C6.44918 28.5265 6.6458 28.1894 6.79748 27.858H6.69636C6.59525 28.0097 6.49412 28.0996 6.42109 28.0996C6.33682 28.0996 6.28065 27.9535 6.42109 27.6389L6.98848 26.3356ZM3.06174 28.8973C3.06174 28.695 3.25834 28.5658 3.53923 28.4535C3.62911 28.4984 3.76956 28.549 3.95494 28.6108C4.24706 28.7063 4.35942 28.7456 4.35942 28.8355C4.35942 29.0265 4.03921 29.1669 3.60103 29.1669C3.23588 29.1669 3.05612 29.0883 3.05612 28.8973M3.85944 27.6501C3.73023 27.6501 3.67967 27.5434 3.67967 27.4198C3.67967 27.0771 3.86505 26.5715 4.15155 26.5715C4.28076 26.5715 4.33132 26.6783 4.33132 26.8019C4.33132 27.1446 4.14594 27.6501 3.85944 27.6501ZM4.69646 28.7119C4.69646 28.4647 4.47737 28.3748 4.11784 28.2681C3.80887 28.1782 3.66844 28.1501 3.66844 28.049C3.66844 27.9647 3.73585 27.8692 3.86506 27.8018C4.37065 27.7737 4.69646 27.3187 4.69646 26.9367C4.69646 26.8524 4.67962 26.785 4.65153 26.7232H5.07848L5.14589 26.5041H4.46615C4.38189 26.4536 4.28638 26.4255 4.19088 26.4255C3.65158 26.4255 3.3089 26.8974 3.3089 27.2794C3.3089 27.5715 3.49429 27.7513 3.719 27.7906C3.4662 27.9029 3.33138 28.0321 3.33138 28.1894C3.33138 28.2793 3.35946 28.3411 3.43249 28.3973C2.85387 28.5658 2.62356 28.7624 2.62356 29.0321C2.62356 29.3017 2.97747 29.4085 3.39318 29.4085C4.101 29.4085 4.69086 29.0265 4.69086 28.7063M1.99999 27.0603C2.25279 27.0603 2.25841 27.1614 2.21909 27.4423H2.36514L2.70782 26.5098H2.56176C2.43255 26.7288 2.33144 26.8918 2.05617 26.8918H1.49441L1.77529 26.1165C1.86517 25.8581 1.92135 25.8075 2.26965 25.8075H2.51682C2.87636 25.8075 2.9213 25.903 2.9213 26.2626H3.06174L3.1797 25.6278H1.05061L1.01128 25.7458C1.42137 25.83 1.46632 25.8693 1.2697 26.403L0.803429 27.667C0.612428 28.1951 0.528171 28.24 0.0562876 28.3243L0.022583 28.4422H2.39324L2.81456 27.7681H2.65164C2.382 28.0209 2.03932 28.2681 1.56744 28.2681C0.938261 28.2681 0.994424 28.24 1.20228 27.667L1.427 27.0547H1.99437L1.99999 27.0603ZM2.30896 25.4424L3.06174 24.9256V24.8413H2.60669L2.19099 25.4424H2.30896Z" fill="black"/>
<path d="M11.741 21.8864C11.8814 21.8864 12.005 21.9931 11.9432 22.2684L11.2803 22.4201C11.3927 22.1111 11.5893 21.8864 11.741 21.8864ZM12.1061 22.9538H11.9769C11.8084 23.1504 11.6342 23.3077 11.4545 23.3077C11.2747 23.3077 11.1792 23.2009 11.1792 22.9538C11.1792 22.8526 11.1904 22.7515 11.2073 22.6616L12.2746 22.3077C12.4825 21.8134 12.2297 21.5999 11.9376 21.5999C11.432 21.5999 10.859 22.4482 10.859 23.1841C10.859 23.5155 11.0163 23.6953 11.2635 23.6953C11.5556 23.6953 11.8533 23.4144 12.1005 22.9481M11.8926 21.4033L12.6454 20.7011V20.6168H12.2409L11.7747 21.4033H11.8926ZM9.68489 21.8976H9.96578L9.40401 23.4369C9.35345 23.5661 9.42087 23.7009 9.5557 23.7009C9.8759 23.7009 10.3927 23.3863 10.5725 22.9538H10.4714C10.3309 23.1054 10.0557 23.3077 9.81973 23.347L10.3365 21.8976H10.8646L10.932 21.6786H10.4208L10.6174 21.1224H10.4152L10.05 21.6786L9.68489 21.7403V21.8976ZM9.40401 22.0718C9.47704 21.819 9.43772 21.5999 9.24672 21.5999C9.01639 21.5999 8.96023 21.7741 8.7299 22.274V21.9875C8.7299 21.7853 8.66248 21.5999 8.4771 21.5999C8.26363 21.5999 8.06701 21.937 7.91533 22.2684H8.01645C8.11757 22.1167 8.21869 22.0268 8.29172 22.0268C8.38161 22.0268 8.43217 22.1673 8.29172 22.4875L7.87601 23.4144C7.79736 23.5886 7.876 23.7009 8.05015 23.7009C8.15127 23.7009 8.20184 23.6728 8.24117 23.5605L8.65125 22.4763C8.76922 22.3358 8.87034 22.2122 9.00516 22.0718H9.40963H9.40401ZM7.03336 21.8864C7.1738 21.8864 7.2974 21.9931 7.2356 22.2684L6.57272 22.4201C6.68508 22.1111 6.88168 21.8864 7.03336 21.8864ZM7.39852 22.9538H7.26931C7.10078 23.1504 6.92663 23.3077 6.74687 23.3077C6.5671 23.3077 6.47159 23.2009 6.47159 22.9538C6.47159 22.8526 6.48284 22.7515 6.49969 22.6616L7.56704 22.3077C7.7749 21.8134 7.5221 21.5999 7.22998 21.5999C6.72439 21.5999 6.1514 22.4482 6.1514 23.1841C6.1514 23.5155 6.30869 23.6953 6.55587 23.6953C6.84799 23.6953 7.14572 23.4144 7.3929 22.9481M4.78069 23.3863C4.67957 23.3863 4.52789 23.2908 4.52789 23.2066C4.52789 23.1785 4.57282 23.0605 4.629 22.9088L4.80315 22.4482C4.98853 22.2291 5.26942 21.9931 5.42672 21.9931C5.52222 21.9931 5.59524 22.0549 5.59524 22.1954C5.59524 22.6167 5.20201 23.3863 4.77506 23.3863M5.9941 22.0268C5.9941 21.7123 5.87612 21.5999 5.66265 21.5999C5.393 21.5999 5.14021 21.8864 4.8818 22.2347L5.52783 20.5382L5.49412 20.4932L4.82 20.5719V20.6561L4.94921 20.7573C5.06718 20.8471 5.03348 20.9483 4.92113 21.2235L4.22453 23.0156C4.17397 23.1448 4.11219 23.3021 4.11219 23.3414C4.11219 23.5268 4.36498 23.7009 4.58969 23.7009C5.11213 23.7009 5.98848 22.7571 5.98848 22.0268M3.89309 21.8246C3.93803 21.6842 3.83692 21.5999 3.76389 21.5999C3.45492 21.5999 3.08976 21.8752 2.9437 22.2684H3.04483C3.14595 22.128 3.31447 21.9651 3.47176 21.9426L2.88192 23.4818C2.82574 23.6223 2.93808 23.7065 3.01111 23.7065C3.30323 23.7065 3.64592 23.4256 3.7976 23.038H3.69647C3.59535 23.1785 3.42683 23.3414 3.26954 23.3638L3.89871 21.8246H3.89309ZM4.00545 21.0494C4.14589 21.0494 4.25823 20.937 4.25823 20.7966C4.25823 20.6561 4.14027 20.5438 4.00545 20.5438C3.87062 20.5438 3.75265 20.6618 3.75265 20.7966C3.75265 20.9314 3.86501 21.0494 4.00545 21.0494ZM2.44935 20.8022H1.04493L1.00562 20.9202C1.41571 21.0044 1.46065 21.0438 1.26403 21.5774L0.809 22.8414C0.617999 23.3695 0.533725 23.4144 0.0618418 23.4987L0.0281372 23.6166H2.16846L2.63474 22.7908H2.47182C2.20779 23.083 1.89883 23.4425 1.42695 23.4425C1.06742 23.4425 1.02248 23.3807 1.2191 22.8414L1.67412 21.5774C1.86512 21.0494 1.94938 21.0044 2.42126 20.9202L2.45497 20.7966L2.44935 20.8022Z" fill="black"/>
<path d="M12.1622 3.49983C12.2128 3.51107 12.297 3.51107 12.297 3.53916C12.2689 3.64589 12.1117 3.67398 12.033 3.7751H11.9937C11.9544 3.80319 11.9656 3.86498 11.9263 3.86498C11.8869 3.85375 11.8476 3.86498 11.8083 3.87622C11.8588 3.92678 11.9263 3.9661 12.0049 3.95486C12.0161 3.95486 12.0442 3.98295 12.0442 4.00542C12.0442 4.00542 12.0555 4.00542 12.0723 3.99419C12.0836 3.99419 12.1004 3.99419 12.1004 4.00542V4.05598C12.0611 4.10654 11.9937 4.08407 11.9431 4.0953C12.0499 4.12339 12.1566 4.12339 12.2465 4.0953C12.3251 4.06722 12.2465 3.93801 12.297 3.8706C12.2689 3.8706 12.297 3.83127 12.2689 3.83127C12.297 3.80319 12.3195 3.76386 12.3476 3.75263C12.3757 3.75263 12.415 3.74139 12.4262 3.7133C12.4262 3.68522 12.3757 3.67398 12.3869 3.64589C12.4656 3.59533 12.533 3.51107 12.5049 3.43242C12.4937 3.3931 12.3869 3.3931 12.3195 3.36501C12.2521 3.33692 12.1734 3.36501 12.0948 3.37624C12.0274 3.37624 11.96 3.41557 11.8982 3.4268C11.8083 3.45489 11.724 3.50545 11.6454 3.56163C11.7353 3.5223 11.8308 3.51107 11.9375 3.48298C12.0161 3.48298 12.0836 3.46613 12.1622 3.48298V3.49983Z" fill="white"/>
<path d="M2.96606 15.2295V14.3082H5.58952V14.5553C5.58952 15.0048 5.51647 15.4092 5.3648 15.7631C5.21312 16.117 5.01089 16.4035 4.75248 16.617C4.36486 16.9428 4.20757 16.9934 3.88737 17.1058C3.56716 17.2181 3.22448 17.2743 2.86495 17.2743C2.47171 17.2743 2.10094 17.2069 1.75265 17.0664C1.40435 16.926 1.101 16.735 0.842589 16.4934C0.589795 16.2463 0.381949 15.9485 0.23589 15.5946C0.0842127 15.2407 0.0111694 14.8587 0.0111694 14.4542C0.0111694 14.1284 0.0617338 13.8194 0.157234 13.5217C0.252734 13.224 0.393182 12.9655 0.567329 12.7408C0.741477 12.5161 0.949316 12.3139 1.18526 12.151C1.4212 11.9825 1.68524 11.8589 1.97174 11.769C2.25824 11.6791 2.55598 11.6342 2.86495 11.6342C3.59525 11.6342 4.19071 11.8027 4.64574 12.1454C5.10077 12.488 5.38165 12.9543 5.48839 13.5498H4.26936C4.1851 13.2857 4.02218 13.0779 3.77501 12.9262C3.52783 12.7745 3.22447 12.7015 2.87056 12.7015C2.40429 12.7015 2.01667 12.8644 1.69647 13.1959C1.37626 13.5273 1.21898 13.943 1.21898 14.4542C1.21898 14.9654 1.37626 15.3811 1.69647 15.7126C2.01667 16.044 2.40991 16.2069 2.87056 16.2069C3.25256 16.2069 3.57277 16.1227 3.82556 15.9541C4.07836 15.7856 4.2525 15.544 4.348 15.2295H2.97169H2.96606Z" fill="black"/>
<path d="M9.72403 17.072C9.37011 17.2125 8.99374 17.2799 8.60612 17.2799C8.2185 17.2799 7.84212 17.2069 7.48259 17.072C7.12306 16.9372 6.81971 16.7406 6.55568 16.499C6.29165 16.2575 6.08378 15.9541 5.92648 15.6002C5.76919 15.2463 5.69055 14.8643 5.69055 14.4598C5.69055 14.0554 5.76919 13.6734 5.92648 13.3194C6.08378 12.9655 6.29165 12.6678 6.55568 12.4206C6.81971 12.1791 7.12867 11.9881 7.48259 11.8476C7.8365 11.7072 8.21288 11.6398 8.60612 11.6398C8.99935 11.6398 9.37011 11.7072 9.72403 11.8476C10.0779 11.9881 10.3869 12.1791 10.6509 12.4206C10.915 12.6622 11.1228 12.9655 11.2801 13.3194C11.4318 13.6734 11.5104 14.0554 11.5104 14.4598C11.5104 14.8643 11.4318 15.2463 11.2801 15.6002C11.1284 15.9541 10.915 16.2519 10.6509 16.499C10.3869 16.7406 10.0779 16.9316 9.72403 17.072ZM7.38708 15.7182C7.7129 16.044 8.11738 16.2125 8.60612 16.2125C9.09485 16.2125 9.49932 16.0496 9.82514 15.7182C10.151 15.3924 10.3139 14.971 10.3139 14.4598C10.3139 13.9486 10.151 13.5273 9.82514 13.2015C9.49932 12.8757 9.09485 12.7071 8.60612 12.7071C8.11738 12.7071 7.7129 12.87 7.38708 13.2015C7.06125 13.5273 6.89834 13.9486 6.89834 14.4598C6.89834 14.971 7.06125 15.3924 7.38708 15.7182Z" fill="black"/>
<path d="M15.061 17.0328C14.7352 17.1957 14.3644 17.2799 13.9431 17.2799C13.5218 17.2799 13.151 17.1957 12.8252 17.0328C12.4993 16.8699 12.2409 16.6227 12.0499 16.2912C11.8589 15.9598 11.7634 15.5666 11.7634 15.1115V11.7466H12.96V15.2126C12.96 15.516 13.0499 15.7632 13.2296 15.9486C13.4094 16.1339 13.6453 16.2294 13.9375 16.2294C14.2296 16.2294 14.4655 16.1396 14.6453 15.9486C14.8251 15.7632 14.9149 15.516 14.9149 15.2126V11.7466H16.1115V15.1115C16.1115 15.5666 16.016 15.9598 15.825 16.2912C15.634 16.6227 15.3756 16.8699 15.0498 17.0328" fill="black"/>
<path d="M20.0214 17.1676H18.6114L16.5891 11.7409H17.853L19.1563 15.4542C19.2406 15.7239 19.2968 15.8924 19.3192 15.9598C19.3417 15.8924 19.3923 15.7239 19.4821 15.4542L20.7798 11.7409H22.0438L20.0214 17.1676Z" fill="black"/>
<path d="M26.1331 17.1676H22.5715V11.7409H26.0376V12.7971H23.768V13.8026H25.678V14.8587H23.768V16.1115H26.1331V17.1676Z" fill="black"/>
<path d="M29.8074 15.1228L30.8579 17.1676H29.5714L28.6333 15.3531H27.8131V17.1676H26.6165V11.7409H28.6557C29.2849 11.7409 29.7961 11.8982 30.1725 12.2128C30.5489 12.5274 30.7455 12.9712 30.7455 13.5498C30.7455 13.9262 30.6612 14.2464 30.4983 14.5104C30.3354 14.7745 30.0995 14.9767 29.8074 15.1228ZM28.6108 12.7521H27.8187V14.3475H28.6108C28.9029 14.3475 29.1332 14.2801 29.3018 14.1397C29.4703 13.9992 29.5546 13.8026 29.5546 13.5498C29.5546 13.297 29.4703 13.0948 29.3018 12.96C29.1332 12.8251 28.9029 12.7521 28.6108 12.7521Z" fill="black"/>
<path d="M32.6836 17.1676H31.487V11.7409H32.6836L35.1272 15.2576C35.116 15.0554 35.1104 14.8306 35.1104 14.5779V11.7409H36.3069V17.1676H35.1104L32.6667 13.6509C32.6779 13.8532 32.6836 14.0779 32.6836 14.3307V17.1676Z" fill="black"/>
<path d="M40.9866 17.1676H37.425V11.7409H40.8911V12.7971H38.6215V13.8026H40.5315V14.8587H38.6215V16.1115H40.9866V17.1676Z" fill="black"/>
<path d="M44.5201 14.3812L45.4695 11.7409H46.9582V17.1676H45.8009V14.4262C45.8009 14.2352 45.8178 13.9487 45.8459 13.5667L44.6381 17.1676H43.7786L42.5708 13.5667C42.6045 13.9487 42.6157 14.2352 42.6157 14.4262V17.1676H41.4585V11.7409H42.9472L43.8965 14.3812C43.8965 14.3812 43.919 14.4374 43.9527 14.5273C43.9864 14.6172 44.0089 14.679 44.0201 14.7071C44.0314 14.7351 44.0482 14.7913 44.0763 14.8756C44.1044 14.9599 44.1212 15.0216 44.1381 15.0722C44.1549 15.1228 44.1606 15.1789 44.1774 15.252C44.1943 15.325 44.1999 15.3868 44.2055 15.4486C44.2055 15.3868 44.2224 15.325 44.2336 15.252C44.2449 15.1789 44.2617 15.1228 44.2729 15.0666C44.2898 15.016 44.3066 14.9486 44.3347 14.8756C44.3628 14.7969 44.3797 14.7408 44.3965 14.7014C44.4134 14.6621 44.4302 14.6059 44.4639 14.5273C44.4976 14.4486 44.5089 14.3981 44.5201 14.3756V14.3812Z" fill="black"/>
<path d="M51.4691 17.1676H47.9075V11.7409H51.3736V12.7971H49.104V13.8026H51.0141V14.8587H49.104V16.1115H51.4691V17.1676Z" fill="black"/>
<path d="M53.2161 17.1676H52.0195V11.7409H53.2161L55.6598 15.2576C55.6485 15.0554 55.6429 14.8306 55.6429 14.5779V11.7409H56.8395V17.1676H55.6429L53.1992 13.6509C53.2105 13.8532 53.2161 14.0779 53.2161 14.3307V17.1676Z" fill="black"/>
<path d="M7.9547 7.2187L8.1794 6.98838C8.31423 6.82546 8.46591 6.67379 8.6232 6.53335L8.76925 6.40414C8.76925 6.40414 8.79173 6.37044 8.79173 6.35358L8.61758 6.4547C8.61758 6.4547 8.59511 6.4547 8.61758 6.42661L8.74117 6.32549H8.71869C8.55578 6.31987 8.39849 6.3929 8.29737 6.52773H8.24681C8.05019 6.60638 7.89852 6.78052 7.7019 6.85917L7.45472 6.96029C7.34798 6.97152 7.24126 6.97152 7.13453 6.96029L6.64017 7.06141L6.39299 7.16252H6.37052C6.37052 7.16252 6.35928 7.19061 6.34804 7.19061L6.27503 7.26926C6.19638 7.31982 6.12333 7.38161 6.05031 7.44902H6.02785L5.80313 7.67935H5.78067C5.78067 7.67935 5.80314 7.65126 5.83123 7.62879C5.83123 7.61194 5.84247 7.58947 5.8537 7.57823C5.88179 7.55014 5.89864 7.51644 5.90426 7.47711L6.12896 7.32544C6.12896 7.32544 6.10649 7.3142 6.10649 7.29735H6.05593C6.03346 7.34791 6.00537 7.39847 5.95481 7.39847C5.95481 7.39847 5.96604 7.37038 5.97727 7.37038L6.0784 7.29173L6.22445 7.19061H6.24693L6.02222 7.29173H5.99975C5.99975 7.29173 5.99974 7.31982 5.97727 7.29173L6.05031 7.21308H6.07278C6.49411 6.88164 7.08396 6.96029 7.57831 6.78052L7.7019 6.70188C7.75246 6.67379 7.80302 6.60076 7.89852 6.57267C7.99964 6.48279 8.07828 6.37043 8.12322 6.24123H8.10076C7.921 6.31426 7.72999 6.35358 7.53338 6.37043C7.25249 6.48279 6.94913 6.53335 6.64578 6.52211H6.71881C6.71881 6.52211 6.74128 6.47155 6.76936 6.44346H6.81992C6.81992 6.44346 6.83116 6.41537 6.8424 6.41537H6.89295C6.8424 6.36482 6.76938 6.46593 6.69635 6.41537C6.62332 6.36482 6.71882 6.36482 6.74691 6.33673H6.79746C6.79746 6.33673 6.80869 6.2974 6.81992 6.28617C7.01654 6.15696 7.21316 6.08393 7.38731 5.95473C7.56146 5.82552 7.33676 6.00529 7.2862 5.98282C7.23564 5.96035 7.2862 5.93226 7.30867 5.93226C7.45473 5.8817 7.59517 5.82552 7.73 5.75249C7.67944 5.75249 7.62887 5.80305 7.58393 5.75249H7.65696V5.70193C7.65696 5.70193 7.6682 5.67384 7.67944 5.67384H7.65696L7.73 5.62328H7.70752C7.74685 5.56711 7.81426 5.53902 7.88167 5.54464C7.8592 5.51655 7.80864 5.54464 7.80864 5.51655C7.80864 5.48846 7.8311 5.48846 7.85919 5.48846H7.80864C7.80864 5.48846 7.78616 5.47723 7.78616 5.46037C7.78616 5.44352 7.7974 5.43228 7.80864 5.43228C7.85919 5.32555 7.90414 5.21881 7.93222 5.10084H7.90975C7.75245 5.23567 7.56707 5.32555 7.36484 5.38173H7.29182C7.21879 5.40981 7.13451 5.39858 7.0671 5.35364L6.94351 5.25252L6.59522 5.07275C6.27501 4.93793 5.93234 4.85367 5.58405 4.81996C5.73572 4.76378 5.89301 4.71884 6.05031 4.69075C6.25816 4.59525 6.48848 4.55593 6.71881 4.56155C6.66825 4.53346 6.61769 4.56155 6.59522 4.56155C6.40422 4.55031 6.20761 4.57278 6.02785 4.64019L5.6346 4.74131C5.56157 4.7694 5.51101 4.87052 5.43798 4.84243V4.79187C5.55595 4.61772 5.7301 4.49975 5.93234 4.46043C6.16266 4.43234 6.39861 4.43796 6.62332 4.48852L7.14013 4.58964C7.19069 4.58964 7.21316 4.69076 7.26372 4.71884C7.31428 4.74693 7.40978 4.71884 7.5109 4.7694C7.61202 4.81996 7.48843 4.71884 7.5109 4.69075C7.53337 4.66267 7.61202 4.69075 7.68505 4.66267C7.75808 4.63458 7.58394 4.4829 7.539 4.38178C7.6345 4.47728 7.74122 4.56717 7.85919 4.63458C7.93222 4.68514 8.0839 4.71323 8.05581 4.63458C7.97155 4.48852 7.87043 4.35369 7.75808 4.23011V4.17955H7.70752V4.05034C7.65696 4.02225 7.68505 3.97169 7.63449 3.94922C7.58393 3.92675 7.63448 3.76946 7.61201 3.69643C7.58393 3.6234 7.56707 3.54475 7.56146 3.4661C7.5109 3.24701 7.46596 3.02793 7.43787 2.80884C7.4154 2.55604 7.58393 2.35381 7.70752 2.12348C7.78055 1.94372 7.90976 1.79204 8.07829 1.69092C8.12323 1.52801 8.2075 1.37634 8.32547 1.25837C8.42659 1.12916 8.56702 1.02804 8.71869 0.977483L9.08946 0.825806H11.7298L11.7803 0.876365L11.9769 0.977483C12.0724 1.02242 12.1567 1.09545 12.2241 1.17972C12.2466 1.23028 12.2972 1.30892 12.2747 1.35948C12.2522 1.41004 12.2241 1.53925 12.1736 1.56172C12.0781 1.60104 11.9769 1.62351 11.8758 1.61228L11.7298 1.56172C11.9376 1.63475 12.1174 1.76395 12.2466 1.94372L12.3702 1.99428C12.3702 1.99428 12.3196 2.04484 12.3477 2.07292H12.3702C12.4432 2.04484 12.4207 1.92125 12.5162 1.97181C12.578 1.99428 12.6117 2.06731 12.5893 2.13472C12.5893 2.15157 12.578 2.16281 12.5668 2.17404L12.4207 2.30325C12.3983 2.33134 12.3983 2.37628 12.4207 2.40437L12.4938 2.55604L12.5668 2.8594C12.6342 3.05602 12.6679 3.25825 12.6679 3.4661C12.6679 3.56722 12.6174 3.66834 12.6454 3.76946C12.6904 3.87058 12.7409 3.97731 12.7915 4.07281C12.8533 4.12899 12.9095 4.1964 12.9376 4.27505C13.0106 4.40425 13.1623 4.55593 13.1117 4.70761C13.0611 4.85928 12.9151 4.78626 12.814 4.85928C12.7129 4.93231 12.814 5.03905 12.8645 5.08961C12.9151 5.14017 12.7634 5.29184 12.6904 5.3424C12.6174 5.39296 12.7634 5.37049 12.7634 5.39296C12.7634 5.41543 12.8645 5.49408 12.814 5.57273C12.7634 5.65137 12.5893 5.70193 12.6904 5.82552C12.7915 5.94911 12.6904 6.02776 12.6679 6.1064C12.6286 6.21314 12.5331 6.29179 12.4207 6.30864C12.3477 6.35358 12.2578 6.36482 12.1736 6.33673H12.1005C11.8814 6.29179 11.6567 6.25808 11.432 6.23561L11.2354 6.28617L11.0893 6.43785H11.0163L10.9152 6.58952C10.9152 6.58952 10.9152 6.61761 10.8927 6.61761L10.7916 6.87041C10.7186 7.17376 10.7411 7.45464 10.8141 7.5052C10.8871 7.55576 11.2579 7.65688 11.5275 7.80856L11.8477 7.96023H6.41547C6.69635 7.7917 6.98284 7.64003 7.28057 7.5052C7.52213 7.4097 7.74684 7.27488 7.94908 7.10073M5.93234 6.17943C5.93234 6.17943 5.85931 6.20752 5.85931 6.17943C5.85931 6.15135 5.96042 6.10079 6.03345 6.07832C6.10648 6.05585 6.08401 6.02776 6.10649 6.05023L6.2076 6.10079C6.13457 6.17943 6.03346 6.15135 5.93796 6.17943M3.90437 5.87608H3.8819C4.05043 5.66261 4.20211 5.4379 4.3257 5.19073C4.48299 5.09523 4.63466 4.98287 4.76948 4.85928C4.97733 4.60649 5.22451 4.40425 5.51101 4.25258C5.62337 4.22449 5.74695 4.23011 5.85931 4.28066C5.80875 4.33122 5.73572 4.33122 5.68516 4.35931H5.66269V4.30875C5.5391 4.46043 5.34248 4.53908 5.24136 4.71322C5.14024 4.88737 5.11777 5.01658 4.94363 5.04467C4.76948 5.07275 4.94364 5.01658 4.92117 5.01658C4.5504 5.28623 4.20771 5.60081 3.90998 5.95473M4.99418 5.06152C4.99418 5.06152 4.97172 5.08961 4.97172 5.11208C4.97172 5.13455 4.94926 5.16264 4.92117 5.16264H4.89869C4.89869 5.11208 4.94925 5.03343 4.99981 5.03343M5.61213 7.06702C5.61213 7.06702 5.58967 7.09511 5.58967 7.11758C5.58967 7.14005 5.61213 7.11758 5.61213 7.14567L5.51101 7.19623C5.51101 7.19623 5.48854 7.20747 5.48854 7.22432H5.43798C5.43798 7.22432 5.33686 7.25241 5.36495 7.22432L5.46608 7.1232C5.46608 7.1232 5.51664 7.09511 5.51664 7.07264H5.61775M5.38743 6.96591L5.21328 7.06702L5.03913 7.14567H5.01666L4.89307 7.24679H4.82004C4.82004 7.24679 4.80881 7.27488 4.79758 7.27488H4.7751C4.7751 7.27488 4.7751 7.30297 4.75263 7.30297H4.73017C4.73017 7.30297 4.67959 7.33105 4.67959 7.35353L4.60658 7.43217H4.53355L4.5841 7.38161H4.63466C4.63466 7.38161 4.65713 7.33105 4.68522 7.33105C4.68522 7.33105 4.69646 7.30297 4.70769 7.30297C4.70769 7.30297 4.73017 7.27488 4.73017 7.25241C4.73017 7.25241 4.78073 7.20185 4.78073 7.17376L4.73017 7.22432C4.73017 7.22432 4.70769 7.21308 4.70769 7.19623C4.71893 7.19623 4.73017 7.18499 4.73017 7.16814H4.75263L4.80318 7.08949H4.85374V7.03894C4.9998 6.90973 5.20204 6.93782 5.37057 6.8367C5.5391 6.73558 5.51664 6.86479 5.56719 6.8367H5.69078L5.37057 7.06702M5.6346 6.12888C5.6346 6.12888 5.65707 6.12887 5.68516 6.07832H5.58405L5.35934 6.15696L5.08969 6.25808C4.95487 6.34235 4.81442 6.42099 4.66837 6.4884C4.66837 6.4884 4.66087 6.47904 4.64589 6.46032L4.74702 6.38167C4.85376 6.24685 4.97733 6.12326 5.11777 6.02776V5.9772C5.17395 5.93226 5.22451 5.8817 5.26384 5.82552C5.28631 5.76373 5.33125 5.71879 5.38743 5.69632H5.33687C5.28631 5.69632 5.23575 5.7244 5.1908 5.66823L5.26384 5.61767H5.24136C5.21889 5.56711 5.26383 5.53902 5.31439 5.53902L5.46046 5.48846C5.35934 5.46037 5.26384 5.51655 5.16272 5.46037C5.2189 5.28623 5.3481 5.14017 5.51101 5.0559H5.53349C5.53349 5.13455 5.51102 5.18511 5.43238 5.18511L5.75257 5.28623C5.75257 5.28623 5.74135 5.31431 5.73011 5.31431C5.71888 5.31431 5.70764 5.30308 5.70764 5.28623C5.7582 5.33679 5.8537 5.31431 5.90426 5.36487C5.95482 5.41543 5.83122 5.36487 5.80313 5.36487C6.19636 5.49408 6.64017 5.56711 6.98846 5.84799C6.69073 5.93787 6.38175 5.98282 6.07278 5.9772H5.94919C5.89863 5.9772 5.84807 5.9772 5.8256 6.02776H5.65146" fill="white"/>
<path d="M7.95461 7.2187L8.17931 6.98837C8.31413 6.82546 8.46582 6.67379 8.62311 6.53335L8.76916 6.40414C8.76916 6.40414 8.79163 6.37043 8.79163 6.35358L8.61749 6.4547C8.61749 6.4547 8.59502 6.4547 8.61749 6.42661L8.74108 6.32549H8.7186C8.55569 6.31987 8.39839 6.3929 8.29728 6.52773H8.24672C8.0501 6.60637 7.89842 6.78052 7.70181 6.85917L7.45463 6.96029C7.34789 6.97152 7.24117 6.97152 7.13443 6.96029L6.64008 7.06141L6.3929 7.16252H6.37042C6.37042 7.16252 6.35918 7.19061 6.34795 7.19061L6.27493 7.26926L6.05021 7.44902C6.05021 7.44902 6.02775 7.46026 6.02775 7.47711L5.80303 7.67935H5.78058C5.78058 7.67935 5.80304 7.65126 5.83113 7.62879C5.83113 7.61193 5.84237 7.58947 5.85361 7.57823C5.8817 7.55014 5.89855 7.51644 5.90417 7.47711L6.12887 7.32544C6.12887 7.32544 6.10639 7.3142 6.10639 7.29735H6.05584C6.03337 7.34791 6.00528 7.39846 5.95472 7.39846C5.95472 7.39846 5.96595 7.37038 5.97718 7.37038L6.07831 7.29173L6.22436 7.19061H6.24683L6.02213 7.29173H5.99966C5.99966 7.29173 5.99965 7.31982 5.97718 7.29173L6.05021 7.21308H6.07269C6.49401 6.88164 7.08386 6.96029 7.57822 6.78052L7.70181 6.70188C7.75236 6.67379 7.80293 6.60076 7.89843 6.57267C7.99955 6.48279 8.07819 6.37043 8.12313 6.24123H8.10067C7.92091 6.31426 7.7299 6.35358 7.53328 6.37043C7.2524 6.48279 6.94904 6.53335 6.64568 6.52211H6.71872C6.71872 6.52211 6.74118 6.47155 6.76927 6.44346H6.81983C6.81983 6.44346 6.83107 6.41537 6.8423 6.41537H6.89286C6.8423 6.36481 6.76929 6.46593 6.69626 6.41537C6.62323 6.36481 6.71873 6.36481 6.74681 6.33673H6.79737C6.79737 6.33673 6.80859 6.2974 6.81983 6.28617C7.01645 6.15696 7.21307 6.08393 7.38722 5.95473C7.56137 5.82552 7.33666 6.00529 7.2861 5.98282C7.23555 5.96035 7.28611 5.93226 7.30858 5.93226C7.45464 5.8817 7.59508 5.82552 7.7299 5.75249C7.67935 5.75249 7.62878 5.80305 7.58384 5.75249H7.65687V5.70193C7.65687 5.70193 7.66811 5.67384 7.67935 5.67384H7.65687L7.7299 5.62328H7.70743C7.74675 5.56711 7.81416 5.53902 7.88158 5.54464C7.8591 5.51655 7.80854 5.54464 7.80854 5.51655C7.80854 5.48846 7.83101 5.48846 7.8591 5.48846H7.80854C7.80854 5.48846 7.78607 5.47723 7.78607 5.46037C7.78607 5.44352 7.79731 5.43228 7.80854 5.43228C7.8591 5.32555 7.90404 5.21881 7.93213 5.10084H7.90966C7.75236 5.23567 7.56698 5.32555 7.36474 5.38172H7.29173C7.2187 5.40981 7.13442 5.39858 7.06701 5.35364L6.94342 5.25252L6.59513 5.07275C6.27492 4.93793 5.93225 4.85366 5.58395 4.81996C5.73563 4.76378 5.89292 4.71884 6.05021 4.69075C6.25807 4.59525 6.48839 4.55593 6.71872 4.56155C6.66816 4.53346 6.6176 4.56155 6.59513 4.56155C6.40413 4.55031 6.20752 4.57278 6.02775 4.64019L5.63451 4.74131C5.56148 4.7694 5.51092 4.87052 5.43789 4.84243V4.79187C5.55586 4.61772 5.73001 4.49975 5.93225 4.46043C6.16257 4.43234 6.39852 4.43796 6.62322 4.48852L7.14004 4.58963C7.1906 4.58963 7.21307 4.69075 7.26363 4.71884C7.31419 4.74693 7.40969 4.71884 7.51081 4.7694C7.61193 4.81996 7.48834 4.71884 7.51081 4.69075C7.53328 4.66266 7.61192 4.69075 7.68495 4.66266C7.75798 4.63458 7.58385 4.4829 7.53891 4.38178C7.66249 4.46043 7.73551 4.58402 7.8591 4.63458C7.98269 4.68514 8.08381 4.71322 8.05572 4.63458C7.97146 4.48852 7.87034 4.35369 7.75799 4.2301V4.17955H7.70743V4.05034C7.65687 4.02225 7.68496 3.97169 7.65687 3.94922C7.62878 3.92675 7.6344 3.76946 7.60632 3.69643C7.57823 3.6234 7.56138 3.54475 7.55576 3.4661C7.5052 3.24701 7.46026 3.02793 7.43217 2.80884C7.4097 2.55604 7.57822 2.35381 7.70181 2.12348C7.77484 1.94372 7.90404 1.79204 8.07257 1.69092C8.11751 1.52801 8.20178 1.37634 8.31975 1.25837C8.42087 1.12916 8.56132 1.02804 8.71299 0.977483L9.08376 0.825806H0V8.01641H6.41537C6.69626 7.84788 6.98275 7.6962 7.28048 7.56138C7.52204 7.46588 7.74675 7.33105 7.94898 7.15691M5.93225 6.25246C5.93225 6.25246 5.85921 6.28055 5.85921 6.25246C5.85921 6.22437 5.96033 6.17382 6.03336 6.15135C6.10639 6.12887 6.08392 6.10079 6.10639 6.12326L6.20751 6.17382C6.13448 6.25246 6.03337 6.22437 5.93787 6.25246M3.90428 5.94911H3.8818C4.05033 5.73564 4.20202 5.51093 4.3256 5.26375C4.49413 5.1514 4.64018 5.01658 4.76939 4.85928C4.97724 4.60649 5.22442 4.40425 5.51092 4.25258C5.62328 4.22449 5.74686 4.23011 5.85921 4.28066C5.80866 4.33122 5.73563 4.33122 5.68507 4.35931H5.66259V4.30875C5.539 4.46043 5.34239 4.53908 5.24127 4.71322C5.14015 4.88737 5.11768 5.01658 4.94353 5.04467C4.76939 5.07275 4.94355 5.01658 4.92107 5.01658C4.55031 5.28623 4.20762 5.60081 3.90989 5.95473M4.99409 5.06152C4.99409 5.06152 4.97163 5.08961 4.97163 5.11208C4.97163 5.13455 4.94916 5.16264 4.92107 5.16264H4.8986C4.8986 5.11208 4.94915 5.03343 4.99971 5.03343M5.61204 7.06702C5.61204 7.06702 5.58958 7.09511 5.58958 7.11758C5.58958 7.14005 5.61204 7.11758 5.61204 7.14567L5.51092 7.19623H5.43789C5.43789 7.19623 5.33677 7.22432 5.36486 7.19623L5.46599 7.09511C5.46599 7.09511 5.51655 7.06702 5.51655 7.04455C5.52778 7.04455 5.539 7.03332 5.539 7.01646H5.61204M5.38733 6.90973L5.21319 7.01085L5.03904 7.08949H5.01657L4.89298 7.19061H4.81994C4.81994 7.19061 4.80872 7.2187 4.79749 7.2187H4.77501C4.77501 7.2187 4.77501 7.24679 4.75253 7.24679H4.73008C4.73008 7.24679 4.6795 7.27488 4.6795 7.29735L4.60649 7.37599H4.53345L4.58401 7.32544H4.63457C4.63457 7.32544 4.65704 7.27488 4.68513 7.27488C4.68513 7.27488 4.69637 7.24679 4.7076 7.24679C4.7076 7.24679 4.73008 7.2187 4.73008 7.19623C4.73008 7.19623 4.78063 7.14567 4.78063 7.11758L4.73008 7.16814C4.73008 7.16814 4.7076 7.1569 4.7076 7.14005C4.71884 7.14005 4.73008 7.12882 4.73008 7.11196H4.75253L4.80309 7.03332H4.85365V6.98276C4.99971 6.85355 5.20195 6.88164 5.37048 6.78052C5.53901 6.6794 5.51654 6.80861 5.5671 6.78052H5.69069L5.37048 7.01085M5.63451 6.07831C5.63451 6.07831 5.65698 6.07831 5.68507 6.02776H5.58395L5.35925 6.1064L5.0896 6.20752C4.95477 6.29179 4.81433 6.37043 4.66827 6.43784C4.66827 6.43784 4.66078 6.42848 4.6458 6.40976L4.74693 6.33111C4.85366 6.19629 4.97724 6.0727 5.11768 5.9772V5.92664C5.17386 5.8817 5.22442 5.83114 5.26374 5.77496C5.28621 5.71317 5.33116 5.66823 5.38733 5.64575H5.33678C5.28622 5.64575 5.23565 5.67384 5.19071 5.61767L5.26374 5.56711H5.24127C5.2188 5.51655 5.26374 5.48846 5.3143 5.48846L5.46037 5.4379C5.35925 5.40981 5.26375 5.46599 5.16263 5.40981C5.21881 5.23567 5.34801 5.08961 5.51092 5.00534H5.5334C5.5334 5.08399 5.51093 5.13455 5.43228 5.13455L5.75248 5.23567C5.75248 5.23567 5.74125 5.26375 5.73002 5.26375C5.71878 5.26375 5.70754 5.25252 5.70754 5.23567C5.7581 5.28623 5.85361 5.26375 5.90417 5.31431C5.95472 5.36487 5.83112 5.31431 5.80303 5.31431C6.19627 5.44352 6.64007 5.51655 6.98837 5.79743C6.69625 5.90417 6.38728 5.96596 6.07269 5.9772H5.9491C5.89854 5.9772 5.84798 5.9772 5.82551 6.02776H5.65136" fill="#293273"/>
<path d="M19.2347 0.881989H11.7295L11.78 0.932548L11.9767 1.03367C12.0722 1.07861 12.1564 1.15164 12.2238 1.2359C12.2463 1.28646 12.2969 1.36511 12.2744 1.41567C12.2519 1.46623 12.2238 1.59543 12.1733 1.6179C12.0778 1.65723 11.9767 1.6797 11.8755 1.66846L11.7295 1.6179C11.9373 1.69093 12.1171 1.82014 12.2463 1.9999L12.3699 2.05046C12.3699 2.05046 12.3193 2.10102 12.3474 2.12911H12.3699C12.4429 2.10102 12.4205 1.97743 12.516 2.02799C12.5778 2.05046 12.6115 2.12349 12.589 2.1909C12.589 2.20776 12.5778 2.21899 12.5665 2.23023L12.4205 2.35943C12.398 2.38752 12.398 2.43246 12.4205 2.46055L12.4935 2.61223L12.5665 2.91558C12.6339 3.1122 12.6676 3.31444 12.6676 3.52229C12.6676 3.62341 12.6171 3.72453 12.6676 3.82564C12.6957 3.93238 12.735 4.03349 12.7912 4.129C12.853 4.18517 12.9092 4.25258 12.9373 4.33123C13.0384 4.46044 13.162 4.61211 13.1114 4.76379C13.0609 4.91547 12.9148 4.84244 12.8137 4.91547C12.7126 4.9885 12.8137 5.09523 12.8642 5.14579C12.9148 5.19635 12.7631 5.34803 12.6901 5.39859C12.6171 5.44915 12.7631 5.42668 12.7631 5.44915C12.7631 5.47162 12.8643 5.55026 12.8137 5.62891C12.7631 5.70756 12.589 5.75812 12.6901 5.88171C12.7912 6.00529 12.6901 6.08394 12.6676 6.16259C12.6283 6.26933 12.5328 6.34797 12.4205 6.36482C12.3474 6.40976 12.2576 6.421 12.1733 6.39291H12.1003C11.8812 6.34797 11.6565 6.31427 11.4318 6.2918L11.2351 6.34235L11.0891 6.49403H11.016L10.9149 6.64571C10.9149 6.64571 10.9149 6.6738 10.8924 6.6738L10.7913 6.92659C10.7183 7.22994 10.7408 7.51083 10.8138 7.56139C10.8868 7.61194 11.2576 7.71306 11.5272 7.86474L11.8475 8.01642H19.2291V0.898841L19.2347 0.881989Z" fill="#E00814"/>
<path d="M12.1735 3.51665H12.2971C12.2746 3.64586 12.1229 3.66833 12.0274 3.76945H12.005C11.9544 3.79753 11.9825 3.87056 11.9319 3.87056H11.8083C11.8533 3.93797 11.9263 3.9773 12.005 3.97168L12.0555 4.02224H12.1061V4.10089C12.0555 4.15145 12.005 4.12898 11.96 4.15145H12.2578C12.3308 4.10089 12.2578 3.97168 12.3083 3.89865C12.3589 3.82562 12.3083 3.87056 12.2859 3.87056C12.2634 3.87056 12.3364 3.79192 12.3589 3.79192C12.3814 3.79192 12.4319 3.76383 12.4319 3.74136C12.4319 3.71889 12.3814 3.6908 12.4094 3.66271C12.4375 3.63462 12.5555 3.5335 12.533 3.46047C12.5106 3.38744 12.4094 3.40992 12.3364 3.38183C12.2634 3.36497 12.1847 3.37621 12.1117 3.40992L11.9151 3.46047L11.6679 3.58968C11.7634 3.55036 11.8645 3.52227 11.9656 3.51103C12.0387 3.4998 12.1117 3.4998 12.1904 3.51103" fill="#9C9B9B"/>
<path d="M199.927 8.5332C199.197 8.24108 198.635 7.80291 198.635 6.87037C198.635 5.65696 199.573 4.93228 200.753 4.93228C201.933 4.93228 202.747 5.69067 202.764 6.9434L201.831 7.16249C201.736 6.29737 201.337 5.90975 200.73 5.90975C200.197 5.90975 199.685 6.20187 199.685 6.77487C199.685 7.34788 200.197 7.55573 200.607 7.71302L201.567 8.09502C202.41 8.42647 202.989 8.8815 202.989 9.85335C202.989 11.1061 202 11.8083 200.758 11.8083C199.421 11.8083 198.444 10.9937 198.433 9.62303L199.365 9.43203C199.478 10.3028 199.905 10.8252 200.742 10.8252C201.32 10.8252 201.927 10.578 201.927 9.91515C201.927 9.2972 201.404 9.11744 200.843 8.89835L199.921 8.52758L199.927 8.5332Z" fill="black"/>
<path d="M206.427 11.7521L206.41 11.3982C206.028 11.6341 205.64 11.8083 205.241 11.8083C204.444 11.8083 203.522 11.2858 203.522 9.80278V6.93777H204.528V9.71852C204.528 10.6679 204.994 10.8589 205.354 10.8589C205.764 10.8589 206.247 10.623 206.376 9.85334V6.93777H207.37V11.7521H206.421H206.427Z" fill="black"/>
<path d="M208.994 9.6736C209.106 10.6679 209.656 10.8589 210.106 10.8589C210.555 10.8589 210.949 10.6679 211.224 10.2635L212.095 10.4938C211.836 11.3027 211.1 11.8139 210.123 11.8139C209.01 11.8139 207.949 11.1567 207.949 9.36463C207.949 7.57259 209.039 6.88724 210.095 6.88724C211.151 6.88724 212.229 7.54451 212.229 9.35339V9.6736H208.994ZM211.168 8.86465C211.027 7.99953 210.522 7.831 210.123 7.831C209.656 7.831 209.173 8.07818 209.005 8.86465H211.168Z" fill="black"/>
<path d="M216.623 10.4882C216.387 11.3252 215.752 11.8083 214.831 11.8083C213.746 11.8083 212.685 11.151 212.685 9.34777C212.685 7.54451 213.758 6.88162 214.842 6.88162C215.712 6.88162 216.398 7.30856 216.634 8.16245C216.319 8.2411 216.066 8.32536 215.763 8.39839C215.527 8.01639 215.213 7.83101 214.802 7.83101C214.319 7.83101 213.701 8.09504 213.701 9.34777C213.701 10.6005 214.308 10.8589 214.791 10.8589C215.207 10.8589 215.521 10.6623 215.757 10.2635L216.623 10.4938V10.4882Z" fill="black"/>
<path d="M216.976 11.7521V10.8309H217.943V7.85911H216.976V6.93781H218.931V10.8309H219.898V11.7521H216.976ZM218.426 6.33111C218.044 6.33111 217.763 6.02775 217.763 5.66822C217.763 5.30869 218.049 5.00534 218.426 5.00534C218.802 5.00534 219.1 5.30869 219.1 5.66822C219.1 6.02775 218.797 6.33111 218.426 6.33111Z" fill="black"/>
<path d="M223.117 11.7521L223.1 11.3982C222.712 11.6735 222.291 11.8083 221.858 11.8083C220.948 11.8083 220.19 11.3645 220.19 10.387C220.19 9.40957 220.881 8.95454 221.909 8.88713L223.066 8.80848V8.66804C223.066 8.11751 222.763 7.831 222.212 7.831C221.824 7.831 221.482 7.97145 221.223 8.26918L220.409 8.03324C220.628 7.35912 221.358 6.88724 222.257 6.88724C223.375 6.88724 224.072 7.61753 224.072 8.57815V11.7577H223.122L223.117 11.7521ZM223.06 9.62304L221.92 9.70169C221.414 9.74101 221.201 9.9601 221.201 10.3477C221.201 10.5949 221.296 10.8589 221.942 10.8589C222.291 10.8589 222.701 10.7803 223.06 10.3927V9.62304Z" fill="black"/>
<path d="M200.612 22.274C199.416 21.7909 198.5 21.0774 198.5 19.5607C198.5 17.5776 200.039 16.3979 201.961 16.3979C203.882 16.3979 205.219 17.6394 205.247 19.6842L203.725 20.0382C203.567 18.6281 202.916 17.9933 201.927 17.9933C201.056 17.9933 200.219 18.4765 200.219 19.4034C200.219 20.3303 201.056 20.673 201.725 20.937L203.292 21.5549C204.674 22.0998 205.618 22.8414 205.618 24.4256C205.618 26.4704 204.005 27.622 201.972 27.622C199.787 27.622 198.186 26.2906 198.169 24.0548L199.691 23.7458C199.876 25.1727 200.573 26.0266 201.944 26.0266C202.888 26.0266 203.882 25.6221 203.882 24.5379C203.882 23.5267 203.028 23.2346 202.112 22.8751L200.607 22.2684L200.612 22.274Z" fill="black"/>
<path d="M214.724 24.1334C214.909 25.7626 215.808 26.0715 216.538 26.0715C217.268 26.0715 217.92 25.7626 218.37 25.0941L219.796 25.4648C219.375 26.785 218.167 27.622 216.572 27.622C214.757 27.622 213.021 26.5546 213.021 23.6222C213.021 20.6898 214.808 19.5719 216.527 19.5719C218.246 19.5719 220.015 20.6449 220.015 23.6054V24.1334H214.724ZM218.274 22.8189C218.044 21.4089 217.218 21.128 216.566 21.128C215.808 21.128 215.016 21.5325 214.735 22.8189H218.274Z" fill="black"/>
<path d="M225.897 27.5321V26.0266H227.481V21.1729H225.897V19.6674H229.094V26.0266H230.678V27.5321H225.897ZM228.268 18.6619C227.661 18.6619 227.184 18.1506 227.184 17.5159C227.184 16.8811 227.667 16.353 228.268 16.353C228.869 16.353 229.386 16.8642 229.386 17.5159C229.386 18.1675 228.892 18.6619 228.268 18.6619Z" fill="black"/>
<path d="M236.234 26.8524C235.503 27.4872 234.897 27.6276 234.324 27.6276C232.756 27.6276 230.925 26.5603 230.925 23.5942C230.925 20.628 232.756 19.5775 234.307 19.5775C235.003 19.5775 235.576 19.7966 236.279 20.3977L236.324 19.6674H237.874V27.5321C237.874 29.4084 236.543 30.8072 234.447 30.8072C232.835 30.8072 231.639 29.9983 231.251 28.6501L232.678 28.2793C233.127 28.9478 233.779 29.2568 234.509 29.2568C235.61 29.2568 236.234 28.577 236.234 27.5321V26.8524ZM236.234 23.0661C236.032 21.701 235.239 21.128 234.357 21.128C233.599 21.128 232.605 21.5606 232.605 23.611C232.605 25.6615 233.582 26.0772 234.391 26.0772C235.133 26.0772 236.037 25.7064 236.239 24.4481V23.0661H236.234Z" fill="black"/>
<path d="M240.593 24.1334C240.778 25.7626 241.677 26.0715 242.407 26.0715C243.138 26.0715 243.789 25.7626 244.239 25.0941L245.666 25.4648C245.244 26.785 244.037 27.622 242.441 27.622C240.627 27.622 238.891 26.5546 238.891 23.6222C238.891 20.6898 240.677 19.5719 242.396 19.5719C244.115 19.5719 245.885 20.6449 245.885 23.6054V24.1334H240.593ZM244.149 22.8189C243.919 21.4089 243.093 21.128 242.441 21.128C241.683 21.128 240.891 21.5325 240.61 22.8189H244.149Z" fill="black"/>
<path d="M225.217 19.6843C224.925 19.6056 224.628 19.5775 224.459 19.5775C223.841 19.5775 223.173 19.982 222.583 20.5719L222.521 19.673H220.987V27.5378H222.633V22.9931C222.852 21.7347 223.611 21.319 224.307 21.319C224.543 21.319 224.819 21.364 225.223 21.4426V19.6899L225.217 19.6843Z" fill="black"/>
<path d="M208.606 27.5321L205.814 19.6674H207.516L209.409 25.2738L211.308 19.6674H213.01L210.218 27.5321H208.606Z" fill="black"/>
<path d="M173.715 4.99405H169.21V14.0104H157.941V18.5158H169.21V27.5321H173.715V18.5158H194.006V14.0104H173.715V4.99405Z" fill="#FFD600"/>
<path d="M169.21 4.99405H157.941V14.0104H169.21V4.99405Z" fill="#005694"/>
<path d="M194 4.99405H173.715V14.0104H194V4.99405Z" fill="#005694"/>
<path d="M169.21 18.5158H157.941V27.5321H169.21V18.5158Z" fill="#005694"/>
<path d="M194 18.5158H173.715V27.5321H194V18.5158Z" fill="#005694"/>
</svg>
