<svg width="351" height="34" viewBox="0 0 351 34" fill="none" xmlns="http://www.w3.org/2000/svg">
<g clip-path="url(#clip0_86_709)">
<path d="M263.904 26.7822C258.687 26.7822 255.139 23.2573 255.139 17.6494C255.139 12.4006 259.016 8.70659 263.834 8.70659C266.349 8.70659 268.251 9.44836 270.013 11.2969L267.899 13.813C266.748 12.638 265.433 12.0624 263.834 12.0624C260.897 12.0624 259.018 14.4361 259.018 17.6494C259.018 21.2456 260.734 23.4264 263.907 23.4264C266.067 23.4264 267.126 22.4917 268.231 21.4355L270.391 23.9516C268.795 25.7021 266.89 26.7792 263.907 26.7792L263.904 26.7822Z" fill="#040314"/>
<path d="M291.18 26.4944V16.4003C291.18 15.8247 291.226 15.2728 291.249 15.2016C291.226 15.2728 291.084 15.6081 290.944 15.8721L287.114 23.0407H285.681L281.781 15.8721C281.642 15.6318 281.499 15.2965 281.476 15.2016C281.476 15.2728 281.546 15.8247 281.546 16.4003V26.4944H277.786V8.9944H281.473L286.102 17.5278C286.268 17.8393 286.408 18.2458 286.431 18.32C286.431 18.2725 286.573 17.8393 286.736 17.5278L291.107 8.9944H294.936V26.4944H291.177H291.18Z" fill="#040314"/>
<path d="M298.275 26.4944V8.9944H302.034V26.4944H298.275Z" fill="#040314"/>
<path d="M317.071 26.4944L309.505 16.3053C309.292 15.9938 309.106 15.6585 309.08 15.611C309.08 15.6348 309.127 16.068 309.127 16.4745V26.4944H305.367V8.9944H308.609L316.175 19.0885C316.411 19.4 316.574 19.7353 316.6 19.8065C316.6 19.7828 316.553 19.3496 316.553 18.9194V8.9944H320.313V26.4944H317.071Z" fill="#040314"/>
<path d="M328.842 26.4944H323.651V8.9944H328.842C333.73 8.9944 337.769 12.0624 337.769 17.7206C337.769 23.3789 333.399 26.4944 328.842 26.4944ZM328.842 12.2315H327.408V23.2602H328.842C332.038 23.2602 333.893 20.6699 333.893 17.7236C333.893 14.7773 331.849 12.2345 328.842 12.2345V12.2315Z" fill="#040314"/>
<path d="M344.984 26.7822C342.611 26.7822 340.872 25.895 339.226 24.6014L341.177 21.9161C342.186 22.7321 343.643 23.4264 345.053 23.4264C346.769 23.4264 347.237 22.827 347.237 21.7737C347.237 20.0231 344.111 19.4238 342.681 18.6078C340.965 17.6494 339.601 16.5457 339.601 13.7655C339.601 10.1694 342.681 8.70659 345.711 8.70659C347.333 8.70659 349.281 9.16352 350.669 10.2168L348.976 13.0682C348.223 12.4926 346.955 12.0624 345.711 12.0624C343.972 12.0624 343.361 13.0682 343.361 13.7655C343.361 15.347 345.545 15.8276 347.543 16.7148C349.212 17.4566 350.997 18.6553 350.997 21.5334C350.997 24.8417 348.694 26.7822 344.984 26.7822Z" fill="#040314"/>
<path d="M222.775 15.7149C224.409 15.5695 224.601 18.0441 222.987 18.2162C221.429 18.3022 221.234 15.9641 222.749 15.7208H222.775V15.7149Z" fill="#040314"/>
<path d="M223.185 12.822C224.334 12.5757 225.02 14.0058 224.197 14.8307C223.726 15.344 222.859 15.2936 222.458 14.7239C221.961 14.0711 222.394 13.003 223.159 12.8249L223.185 12.819V12.822Z" fill="#040314"/>
<path d="M223.255 18.768C224.365 18.5633 225.037 20.029 224.237 20.8094C223.752 21.3197 222.865 21.2248 222.487 20.6343C222.004 19.9608 222.417 18.9075 223.228 18.774L223.255 18.768Z" fill="#040314"/>
<path d="M224.799 21.4266C225.502 21.3257 226.183 22.0615 225.988 22.7796C225.848 23.465 225.052 23.8863 224.441 23.5658C223.452 23.1059 223.737 21.5779 224.772 21.4295H224.799V21.4266Z" fill="#040314"/>
<path d="M224.703 10.2673C225.383 10.113 226.093 10.7628 225.976 11.4779C225.898 12.1692 225.139 12.6855 224.511 12.4422C223.438 12.0624 223.624 10.5165 224.677 10.2732L224.703 10.2673Z" fill="#040314"/>
<path d="M227.113 23.4026C228.099 23.3344 228.614 24.6399 227.867 25.3045C227.404 25.7585 226.605 25.6013 226.299 25.0375C225.907 24.4055 226.363 23.462 227.087 23.4056H227.113V23.4026Z" fill="#040314"/>
<path d="M227.212 8.3446C227.936 8.37428 228.425 9.28518 228.041 9.9231C227.75 10.4839 226.974 10.6708 226.497 10.2465C225.715 9.61749 226.209 8.30603 227.186 8.34164H227.212V8.3446Z" fill="#040314"/>
<path d="M229.864 24.5034C230.556 24.3877 231.161 25.1354 230.931 25.809C230.777 26.3698 230.117 26.6872 229.603 26.4588C228.672 26.0819 228.858 24.6548 229.838 24.5064H229.864V24.5034Z" fill="#040314"/>
<path d="M229.89 7.34469C230.547 7.30612 231.056 8.02416 230.859 8.65615C230.707 9.24957 229.978 9.57595 229.46 9.28517C228.582 8.82527 228.873 7.39513 229.864 7.34766H229.89V7.34469Z" fill="#040314"/>
<path d="M233.575 26.1383C233.182 26.5745 232.359 26.5389 232.129 25.9484C231.9 25.4173 232.246 24.7497 232.792 24.6162C233.691 24.3699 234.194 25.4737 233.595 26.1176L233.575 26.1383Z" fill="#040314"/>
<path d="M232.792 7.43668C233.688 7.3536 234.066 8.54638 233.377 9.08936C232.979 9.43354 232.333 9.29112 232.097 8.82232C231.804 8.29121 232.176 7.51086 232.766 7.43965H232.792V7.43668Z" fill="#040314"/>
<path d="M225.782 16.0324C226.997 15.9404 227.064 17.7236 225.86 17.7711C224.819 17.7207 224.732 16.2252 225.755 16.0383H225.782V16.0324Z" fill="#040314"/>
<path d="M226.552 13.2581C227.337 13.1958 227.692 14.2046 227.052 14.6764C226.68 14.9672 226.072 14.807 225.895 14.356C225.7 13.8961 226.04 13.3115 226.526 13.2611H226.552V13.2581Z" fill="#040314"/>
<path d="M227.201 20.2813C226.462 21.0497 225.337 19.9905 226.09 19.2042C226.802 18.501 227.872 19.4772 227.218 20.2605L227.198 20.2813H227.201Z" fill="#040314"/>
<path d="M235.532 8.6057C236.262 8.45438 236.695 9.39495 236.189 9.92013C235.875 10.291 235.293 10.2406 235.04 9.83705C234.738 9.40682 235.017 8.72735 235.506 8.61164L235.532 8.6057Z" fill="#040314"/>
<path d="M235.741 23.6845C236.741 23.7379 236.683 25.2482 235.677 25.2096C234.726 25.1325 234.761 23.7142 235.712 23.6845H235.738H235.741Z" fill="#040314"/>
<path d="M228.541 21.1061C229.033 20.9785 229.509 21.5067 229.355 21.9992C229.251 22.4265 228.762 22.6787 228.378 22.4888C227.753 22.2188 227.887 21.2634 228.515 21.1091L228.541 21.1031V21.1061Z" fill="#040314"/>
<path d="M228.622 11.2197C229.082 11.1752 229.474 11.6707 229.344 12.1247C229.233 12.6142 228.608 12.8605 228.23 12.5282C227.73 12.1425 227.986 11.282 228.596 11.2227H228.622V11.2197Z" fill="#040314"/>
<path d="M231.327 10.5314C231.894 10.4067 232.345 11.1337 231.955 11.5936C231.679 11.9674 231.065 11.8844 230.876 11.4601C230.693 11.107 230.931 10.6233 231.301 10.5373L231.327 10.5314Z" fill="#040314"/>
<path d="M231.414 21.9309C232.234 21.8805 232.374 23.097 231.559 23.2335C230.707 23.3403 230.539 22.0615 231.385 21.9339H231.414V21.9309Z" fill="#040314"/>
<path d="M228.986 17.3646C228.692 17.5901 228.23 17.4091 228.146 17.0471C228.044 16.7059 228.317 16.3201 228.666 16.332C229.172 16.3142 229.405 17.0441 229.009 17.3497L228.989 17.3675L228.986 17.3646Z" fill="#040314"/>
<path d="M234.261 21.2426C235.223 21.3524 234.802 22.7974 233.953 22.2752C233.531 21.9814 233.717 21.2515 234.235 21.2426H234.261Z" fill="#040314"/>
<path d="M233.868 11.5283C234.22 11.1782 234.869 11.4482 234.816 11.9704C234.796 12.3502 234.36 12.6261 234.014 12.4718C233.653 12.3324 233.583 11.8102 233.851 11.5491L233.871 11.5283H233.868Z" fill="#040314"/>
<path d="M237.887 21.9636C238.704 21.836 238.748 23.0169 237.971 23.0614C237.332 23.0496 237.273 22.1387 237.861 21.9695L237.887 21.9636Z" fill="#040314"/>
<path d="M242.996 14.5162C243.345 14.4687 243.674 14.8455 243.584 15.1986C243.517 15.5547 243.092 15.7416 242.796 15.525C242.397 15.2817 242.502 14.5904 242.97 14.5191H242.996V14.5162Z" fill="#040314"/>
<path d="M243.467 18.5574C243.93 19.0796 243.208 19.8154 242.705 19.3169C242.199 18.8066 242.935 18.0411 243.447 18.5366L243.467 18.5574Z" fill="#040314"/>
<path d="M219.256 18.5188C219.8 18.053 220.486 18.8481 219.957 19.3377C219.431 19.8095 218.747 19.0321 219.236 18.5396L219.256 18.5218V18.5188Z" fill="#040314"/>
<path d="M219.544 14.4153C219.893 14.3975 220.187 14.7951 220.071 15.1363C219.98 15.4716 219.568 15.6288 219.285 15.4152C218.884 15.1541 219.035 14.4509 219.518 14.4182H219.544V14.4153Z" fill="#040314"/>
<path d="M221.373 22.29C221.873 21.8331 222.574 22.5541 222.109 23.0555C221.606 23.5688 220.867 22.836 221.356 22.3108L221.376 22.29H221.373Z" fill="#040314"/>
<path d="M241.347 22.3315C241.807 22.8834 241.03 23.5747 240.554 23.0347C240.114 22.5125 240.853 21.8301 241.327 22.3107L241.347 22.3315Z" fill="#040314"/>
<path d="M241.312 11.7152C240.937 12.0861 240.292 11.6826 240.449 11.1752C240.766 10.3266 241.9 11.0031 241.333 11.6945L241.312 11.7152Z" fill="#040314"/>
<path d="M231.673 4.6743C232.388 4.70694 232.345 5.784 231.621 5.72762C231.025 5.63267 231.027 4.72474 231.647 4.67727H231.673V4.6743Z" fill="#040314"/>
<path d="M221.676 10.6768C222.548 10.7391 222.179 12.0832 221.408 11.6589C220.998 11.4067 221.184 10.7064 221.649 10.6768H221.676Z" fill="#040314"/>
<path d="M226.942 4.97694C227.262 4.90276 227.593 5.21134 227.547 5.54365C227.518 5.89377 227.116 6.11927 226.814 5.94718C226.395 5.74245 226.477 5.08969 226.919 4.9799L226.945 4.97397L226.942 4.97694Z" fill="#040314"/>
<path d="M223.941 25.3965C224.482 25.263 224.784 25.9365 224.38 26.3015C224.159 26.5181 223.766 26.4884 223.598 26.2273C223.406 25.9365 223.589 25.4915 223.915 25.4025L223.941 25.3965Z" fill="#040314"/>
<path d="M238.541 25.3936C239.001 25.2927 239.335 25.8742 239.024 26.2392C238.812 26.5211 238.355 26.4914 238.181 26.1828C238.003 25.892 238.198 25.4737 238.515 25.3995L238.541 25.3936Z" fill="#040314"/>
<path d="M231.33 28.1174C231.658 28.0758 231.996 28.423 231.903 28.7642C231.827 29.1084 231.405 29.2716 231.118 29.0668C230.725 28.8235 230.853 28.1886 231.304 28.1203H231.33V28.1174Z" fill="#040314"/>
<path d="M238.509 7.59095C239.23 7.42776 239.402 8.45437 238.698 8.60273C238.07 8.68284 237.899 7.80755 238.483 7.59985L238.509 7.59095Z" fill="#040314"/>
<path d="M235.517 5.07783C235.811 5.01552 236.116 5.27959 236.102 5.59114C236.107 5.96796 235.68 6.24687 235.36 6.04807C234.956 5.83741 235.058 5.17574 235.491 5.08376L235.517 5.07783Z" fill="#040314"/>
<path d="M235.523 27.8919C235.974 27.8088 236.288 28.42 235.977 28.7612C235.79 28.9897 235.41 28.9867 235.218 28.7553C234.962 28.4734 235.122 27.9631 235.494 27.8948L235.52 27.8889L235.523 27.8919Z" fill="#040314"/>
<path d="M226.985 27.8859C227.416 27.785 227.765 28.3339 227.506 28.6989C227.34 28.957 226.945 29.0015 226.732 28.782C226.447 28.5149 226.578 27.9749 226.959 27.8919L226.985 27.8859Z" fill="#040314"/>
<path d="M223.825 7.49603C224.653 7.26756 224.784 8.53155 223.938 8.51375C223.423 8.47221 223.33 7.69779 223.801 7.50493L223.827 7.49603H223.825Z" fill="#040314"/>
<path d="M237.887 10.8132C238.329 10.7479 238.599 11.377 238.265 11.6737C237.617 12.2048 237.07 11.0358 237.861 10.8162H237.887V10.8132Z" fill="#040314"/>
<path d="M229.975 18.8956C230.292 18.8185 230.614 19.1478 230.521 19.4742C230.457 19.7472 230.149 19.9074 229.896 19.7828C229.509 19.6196 229.547 19.0113 229.949 18.9015L229.975 18.8956Z" fill="#040314"/>
<path d="M229.771 14.0444C230.103 13.7685 230.62 14.1038 230.498 14.531C230.431 14.8366 230.039 14.988 229.786 14.804C229.544 14.6438 229.539 14.2491 229.751 14.0622L229.771 14.0444Z" fill="#040314"/>
<path d="M239.178 19.587C239.512 19.2725 240.047 19.7502 239.751 20.1211C239.414 20.5246 238.812 19.9964 239.158 19.6048L239.178 19.587Z" fill="#040314"/>
<path d="M239.367 13.543C239.728 13.4747 239.952 13.9702 239.675 14.2135C239.199 14.5874 238.762 13.7418 239.344 13.5489L239.37 13.543H239.367Z" fill="#040314"/>
<path d="M239.818 16.5486C240.05 16.4418 240.347 16.6436 240.33 16.9077C240.33 17.151 240.074 17.3379 239.847 17.2607C239.527 17.1747 239.507 16.697 239.795 16.5605L239.818 16.5486Z" fill="#040314"/>
<path d="M232.804 19.0024C233.086 18.9579 233.29 19.3347 233.106 19.5602C232.694 20.0083 232.214 19.1983 232.781 19.0054L232.807 18.9995L232.804 19.0024Z" fill="#040314"/>
<path d="M233.043 14.7209C232.755 14.9167 232.403 14.5963 232.554 14.2818C232.638 14.0889 232.912 13.9999 233.072 14.1245C233.249 14.261 233.249 14.5725 233.066 14.7031L233.043 14.7179V14.7209Z" fill="#040314"/>
<path d="M236.273 19.4504C236.724 19.4386 236.645 20.1091 236.209 19.9816C235.962 19.8866 235.988 19.5098 236.247 19.4564L236.273 19.4504Z" fill="#040314"/>
<path d="M236.215 13.7566C236.552 13.6557 236.724 14.1304 236.407 14.2818C236.058 14.436 235.849 13.9198 236.189 13.7655L236.215 13.7566Z" fill="#040314"/>
<path d="M237.006 16.605C237.433 16.5872 237.378 17.2578 236.956 17.1361C236.715 17.0531 236.727 16.6644 236.98 16.611L237.006 16.605Z" fill="#040314"/>
<path d="M234.444 16.7623C234.584 17.0827 234.086 17.1747 234.063 16.8513C234.063 16.6406 234.325 16.5842 234.43 16.7385L234.444 16.7623Z" fill="#040314"/>
<path d="M231.498 16.7593C231.635 16.7949 231.612 17.0056 231.472 17.0175C231.274 17.0323 231.286 16.7415 231.472 16.7563L231.495 16.7623L231.498 16.7593Z" fill="#040314"/>
<path d="M227.986 1.87633C227.986 2.47271 227.369 2.98899 226.785 2.8436C226.099 2.71305 225.729 1.81995 226.174 1.25323C226.727 0.461018 227.983 0.897181 227.986 1.84962V1.87633Z" fill="#040314"/>
<path d="M223.217 5.29145C223.211 5.87301 222.612 6.37741 222.042 6.2617C221.338 6.15488 220.954 5.24695 221.405 4.67133C221.961 3.87318 223.22 4.30044 223.217 5.26475V5.29145Z" fill="#040314"/>
<path d="M219.992 9.08636C219.992 9.68275 219.376 10.199 218.791 10.0536C218.105 9.92309 217.736 9.02999 218.18 8.46327C218.733 7.67105 219.989 8.10722 219.992 9.05966V9.08636Z" fill="#040314"/>
<path d="M217.195 14.347C217.189 14.9286 216.59 15.433 216.02 15.3173C215.316 15.2105 214.932 14.3025 215.383 13.7269C215.938 12.9288 217.198 13.356 217.195 14.3203V14.347Z" fill="#040314"/>
<path d="M217.16 20.121C217.154 20.7026 216.555 21.207 215.985 21.0913C215.281 20.9845 214.897 20.0765 215.348 19.5009C215.903 18.7028 217.162 19.13 217.16 20.0943V20.121Z" fill="#040314"/>
<path d="M219.983 24.6162C219.977 25.1977 219.378 25.7022 218.808 25.5864C218.105 25.4796 217.721 24.5717 218.172 23.9961C218.727 23.1979 219.986 23.6252 219.983 24.5895V24.6162Z" fill="#040314"/>
<path d="M223.304 28.7138C223.298 29.2953 222.699 29.7997 222.129 29.684C221.426 29.5772 221.042 28.6692 221.492 28.0936C222.048 27.2955 223.307 27.7227 223.304 28.6871V28.7138Z" fill="#040314"/>
<path d="M227.742 31.6601C227.742 32.2565 227.125 32.7727 226.541 32.6274C225.854 32.4968 225.485 31.6037 225.93 31.037C226.482 30.2448 227.739 30.6809 227.742 31.6334V31.6601Z" fill="#040314"/>
<path d="M233.054 31.9212C233.048 32.5027 232.449 33.0071 231.879 32.8914C231.176 32.7846 230.792 31.8767 231.243 31.3011C231.798 30.5029 233.057 30.9302 233.054 31.8945V31.9212Z" fill="#040314"/>
<path d="M238.047 31.666C238.041 32.2476 237.442 32.752 236.872 32.6363C236.168 32.5295 235.785 31.6215 236.235 31.0459C236.791 30.2478 238.05 30.675 238.047 31.6393V31.666Z" fill="#040314"/>
<path d="M241.897 28.9393C241.897 29.5356 241.28 30.0519 240.696 29.9065C240.01 29.776 239.64 28.8829 240.085 28.3162C240.638 27.5239 241.894 27.9601 241.897 28.9125V28.9393Z" fill="#040314"/>
<path d="M244.642 24.5658C244.625 25.1354 243.869 25.3876 243.531 24.9218C243.229 24.5628 243.479 23.9664 243.938 23.916C244.293 23.8596 244.651 24.18 244.645 24.5391V24.5658H244.642Z" fill="#040314"/>
<path d="M246.96 20.0409C246.948 20.3673 246.573 20.6136 246.273 20.4741C245.959 20.3495 245.863 19.9074 246.11 19.6671C246.398 19.3436 246.971 19.5869 246.96 20.0142V20.0409Z" fill="#040314"/>
<path d="M246.974 14.8366C246.962 15.2461 246.422 15.4597 246.142 15.1571C245.898 14.9286 245.977 14.4924 246.282 14.3619C246.587 14.2046 246.983 14.4657 246.974 14.8099V14.8366Z" fill="#040314"/>
<path d="M244.523 9.52552C244.398 10.4008 243.153 9.93795 243.624 9.19321C243.892 8.80749 244.531 9.03892 244.523 9.49882V9.52552Z" fill="#040314"/>
<path d="M241.693 5.52883C241.693 6.0184 241.17 6.43083 240.699 6.28544C240.161 6.15785 239.902 5.44871 240.26 5.01255C240.699 4.39539 241.699 4.75441 241.696 5.50212V5.52883H241.693Z" fill="#040314"/>
<path d="M238.067 1.92083C238.062 2.50239 237.463 3.00679 236.893 2.89108C236.189 2.78426 235.805 1.87633 236.256 1.30071C236.811 0.502558 238.07 0.929821 238.067 1.89413V1.92083Z" fill="#040314"/>
<path d="M233.019 1.88522C233.013 2.46677 232.414 2.97118 231.844 2.85546C231.141 2.74865 230.757 1.84071 231.208 1.26509C231.763 0.466944 233.022 0.894207 233.019 1.85852V1.88522Z" fill="#040314"/>
</g>
<path d="M75.7674 7.93851C75.8117 9.02062 76.0395 10.0078 76.5647 10.919C77.2988 12.2037 78.4125 13.0959 79.6529 13.83C81.2349 14.7665 82.9498 15.412 84.6394 16.1208C85.6139 16.5258 86.5632 17.013 87.4871 17.5256C88.0629 17.842 88.3603 18.4685 87.9364 19.1709C87.2403 20.3163 87.4048 21.063 88.2654 22.0692C88.721 22.6071 89.1893 23.145 89.6007 23.7208C90.436 24.8852 90.5942 26.1761 90.2018 27.5304C90.05 28.0429 89.8728 28.5555 89.6639 29.0491C89.6007 29.1947 89.4045 29.3655 89.2526 29.3845C87.9996 29.549 86.7467 29.5933 85.4747 29.4225C83.9054 29.2136 82.4246 28.7707 81.0197 28.0682C79.3111 27.2139 77.862 26.0432 76.628 24.5878C75.5522 23.3222 74.7422 21.9047 74.198 20.3479C73.7487 19.057 73.5019 17.7344 73.426 16.3612C73.2741 13.4693 74.0018 10.8368 75.4953 8.3878C75.5839 8.23593 75.6788 8.09038 75.7674 7.93851Z" fill="black"/>
<path d="M105.199 8.05241H105.642C108.389 8.05241 111.142 8.01445 113.888 8.09038C115.837 8.14101 117.887 9.10288 118.539 11.1469C119.014 12.634 118.868 14.0388 117.849 15.2791C117.603 15.5829 117.33 15.8613 117.109 16.1081C117.577 16.4625 118.153 16.8358 118.64 17.2978C119.242 17.8673 119.507 18.6204 119.64 19.4494C119.76 20.2087 119.716 20.9491 119.495 21.6642C119.083 23.0121 118.166 23.898 116.856 24.4233C115.748 24.8599 114.603 25.0308 113.426 25.0244C110.831 25.0244 108.243 25.0244 105.649 25.0244H105.193V8.05241H105.199ZM109.237 18.228C109.237 19.1836 109.249 20.0822 109.237 20.9744C109.237 21.2655 109.325 21.3541 109.616 21.3541C110.825 21.3415 112.034 21.3604 113.242 21.3415C113.647 21.3351 114.065 21.2782 114.457 21.1833C115.116 21.0251 115.559 20.4619 115.571 19.829C115.584 19.1456 115.248 18.633 114.514 18.4685C113.831 18.3166 113.116 18.266 112.413 18.2407C111.376 18.2027 110.338 18.2344 109.237 18.2344M109.237 11.7037C109.237 12.6783 109.23 13.5515 109.249 14.4185C109.249 14.5134 109.42 14.6906 109.509 14.6906C110.73 14.6906 111.945 14.6843 113.16 14.6147C113.597 14.5894 114.059 14.4438 114.35 14.0641C114.938 13.2858 114.73 12.0138 113.388 11.8493C112.034 11.6784 110.654 11.7417 109.237 11.7037Z" fill="black"/>
<path d="M90.9929 28.9289C91.36 28.3783 91.6954 27.7898 92.113 27.2646C93.3913 25.6636 94.7075 24.0942 95.9985 22.4995C96.53 21.8414 97.0869 21.1896 97.5362 20.4808C98.245 19.3671 97.9222 18.3736 96.7515 17.7597C95.5239 17.1143 94.195 16.8105 92.8597 16.5068C90.5943 15.9879 88.2782 15.6082 86.1519 14.6147C85.1331 14.1401 84.2092 13.5073 83.8042 12.3492C83.5384 11.5835 83.6397 10.8811 84.0573 10.2166C84.7344 9.14718 85.7469 8.46375 86.8037 7.83093C88.8161 6.61594 90.9993 5.75531 93.1635 4.85672C93.6444 4.65422 94.1254 4.43273 94.6126 4.24289C94.7265 4.19859 94.91 4.21758 95.0113 4.28086C96.4541 5.21742 97.6375 6.42609 98.612 7.84359C99.7827 9.54585 100.555 11.4126 100.858 13.4566C100.966 14.178 101.093 14.9121 101.08 15.6398C101.048 17.3927 100.757 19.1076 100.099 20.7466C99.3081 22.74 98.1374 24.4739 96.549 25.9167C94.9607 27.3595 93.1318 28.3973 91.0625 28.9922C91.0562 28.9922 91.0436 28.9795 90.9739 28.9289H90.9929ZM89.1515 13.0706C89.2527 13.0706 89.3666 13.0959 89.4615 13.0706C89.6704 12.9947 89.9361 12.9441 90.0374 12.7858C90.1007 12.6846 89.9551 12.3682 89.8159 12.2416C88.93 11.4253 87.8985 11.1026 86.7151 11.4823C86.2405 11.6341 86.2089 11.8176 86.5696 12.1847C87.2783 12.9124 88.2086 13.0137 89.1515 13.0769V13.0706ZM90.7714 12.7669C91.0119 13.4566 91.708 13.8869 92.2965 13.7667C92.3978 13.7477 92.5307 13.6655 92.5623 13.5769C92.5876 13.5009 92.5243 13.3364 92.4484 13.2921C92.1447 13.1149 91.8282 12.9441 91.4992 12.8238C91.2904 12.7479 91.0436 12.7858 90.7778 12.7669M94.3405 14.7729C94.195 14.3362 93.5495 14.1401 93.0939 14.4312C93.4609 14.7729 93.8786 14.8235 94.3405 14.7729Z" fill="black"/>
<path d="M126.873 25.0244V8.68522C126.873 8.26123 127.082 8.05241 127.493 8.05241C129.81 8.05241 132.132 8.00811 134.448 8.09038C136.309 8.15366 137.992 8.81811 139.473 9.9635C140.377 10.6659 141.099 11.5202 141.624 12.5264C142.061 13.368 142.358 14.2603 142.466 15.2158C142.63 16.7219 142.554 18.1901 142.004 19.6265C141.466 21.0377 140.586 22.1768 139.422 23.1197C138.169 24.1321 136.714 24.6511 135.163 24.9422C134.783 25.0118 134.391 25.0244 134.005 25.0244C131.778 25.0307 129.55 25.0244 127.323 25.0244H126.873ZM131.069 21.1959C131.303 21.1959 131.518 21.1959 131.74 21.1959C132.72 21.1706 133.72 21.2465 134.682 21.0947C136.049 20.8795 137.119 20.1201 137.745 18.8355C138.239 17.823 138.352 16.7536 138.169 15.6398C137.947 14.3172 137.334 13.2541 136.176 12.5454C135.524 12.1467 134.809 11.9126 134.037 11.8999C133.056 11.8872 132.075 11.8999 131.075 11.8999V21.2022L131.069 21.1959Z" fill="black"/>
<path d="M194.514 8.69788C194.831 8.53968 195.166 8.5903 195.369 8.81811C195.571 9.04593 195.717 9.38132 195.755 9.68506C195.831 10.2356 195.805 10.8051 195.824 11.362C195.989 11.3367 196.134 11.3177 196.299 11.2924C196.375 10.7229 196.248 10.0901 196.622 9.50155C196.9 9.67241 197.16 9.82429 197.413 9.98882C197.451 10.0141 197.47 10.0964 197.47 10.1533C197.482 10.6912 197.451 11.2355 197.501 11.7733C197.546 12.3049 197.666 12.8238 197.849 13.3554C197.913 12.7352 197.976 12.1151 198.052 11.4063C198.311 12.2733 198.419 13.0453 198.071 13.8616C197.97 13.7477 197.881 13.6465 197.792 13.5389L197.717 13.5769C197.78 13.7477 197.843 13.9186 197.906 14.1021C197.963 14.0451 198.02 13.9945 198.071 13.9439C198.248 14.3552 197.989 14.7159 197.539 14.7349C197.444 14.8805 197.356 15.0197 197.267 15.1589C197.229 15.1589 197.198 15.1589 197.16 15.1526C197.147 14.8235 197.16 14.4881 197.115 14.1654C197.096 13.9819 196.995 13.8047 196.907 13.5452C196.565 14.1337 196.558 15.3614 196.843 15.6208C196.748 15.7347 196.653 15.8487 196.533 15.9942C196.286 15.469 196.419 14.9564 196.388 14.4565C196.35 13.9692 196.267 13.4883 196.204 13.0073C196.166 13.0073 196.122 13.0073 196.084 13.0073C196.065 13.368 196.04 13.7287 196.021 14.0894C195.989 14.0894 195.964 14.0894 195.938 14.0894C195.926 13.9565 195.913 13.8237 195.907 13.6908C195.875 13.6908 195.843 13.6908 195.812 13.6971C195.862 14.7412 195.907 15.7917 195.957 16.8232C196.248 16.7599 196.47 16.7156 196.767 16.6523C196.584 17.8483 196.577 19.0697 196.837 20.3036C196.938 20.2847 197.071 20.2657 197.147 20.253C197.305 19.9493 197.185 19.5949 197.305 19.2975C197.362 19.3101 197.419 19.3291 197.47 19.3418C197.444 19.443 197.425 19.5443 197.394 19.6582C197.482 19.6582 197.546 19.6518 197.615 19.6455C197.47 20.3036 197.21 20.9554 197.976 21.525V19.5126L198.14 19.4936C198.204 19.8607 198.299 20.2277 198.324 20.5947C198.356 21.0061 198.305 21.4174 198.343 21.8287C198.362 22.0375 198.514 22.2337 198.571 22.4425C198.634 22.6704 198.653 22.9045 198.691 23.1386C198.691 23.1513 198.653 23.1956 198.64 23.1893C198.21 23.107 198.046 23.6259 197.609 23.6006C197.242 23.0184 197.387 22.297 197.217 21.6452C197.084 22.2084 196.944 22.7653 196.805 23.3285L196.634 23.3095C196.577 22.8792 196.495 22.4489 196.464 22.0122C196.432 21.5946 196.495 21.1706 196.438 20.7656C196.356 20.1581 196.464 19.5633 196.502 18.9684C196.533 18.5191 196.546 18.0698 196.527 17.6205C196.521 17.4307 196.407 17.2472 196.337 17.0573C196.293 17.051 196.255 17.0447 196.21 17.032C196.109 17.3611 195.951 17.6838 195.919 18.0129C195.843 18.8419 195.805 19.6835 195.78 20.5188C195.767 21.0314 195.774 21.5566 195.843 22.0629C195.881 22.3223 196.103 22.5438 196.217 22.7969C196.267 22.9045 196.261 23.0374 196.198 23.2019C196.103 23.1323 196.008 23.0627 195.869 22.9551C195.919 23.6133 195.964 24.2207 196.014 24.9042C195.786 24.7207 195.597 24.6447 195.552 24.5182C195.489 24.3157 195.514 24.0815 195.521 23.8664C195.533 23.493 195.597 23.1197 195.571 22.7526C195.559 22.6071 195.369 22.4679 195.217 22.3413C195.337 22.8159 195.223 23.2779 195.204 23.7398C195.179 24.2461 195.293 24.7713 195.09 25.3155C194.97 25.0687 194.907 24.8915 194.799 24.7523C194.635 24.5372 194.445 24.4612 194.217 24.7017C194.166 24.7523 193.989 24.6954 193.882 24.6574C193.742 24.6131 193.61 24.4929 193.477 24.5055C193.401 24.5055 193.344 24.708 193.268 24.8283C193.198 24.7397 193.11 24.6321 192.958 24.4359C192.806 24.7017 192.673 24.9295 192.54 25.151C192.553 25.1826 192.572 25.2079 192.584 25.2396C192.306 25.3155 192.42 25.0561 192.388 24.9168C192.344 24.7523 192.287 24.5878 192.249 24.4549V17.2598C191.857 17.418 191.781 17.7344 191.774 18.0192C191.768 18.709 191.806 19.3987 191.857 20.0885C191.863 20.2087 192.034 20.3163 192.141 20.4555H192.034C191.958 20.7023 191.888 20.9238 191.819 21.1453L191.92 21.1833C191.952 21.0947 191.977 21.0061 192.009 20.9238H192.097C192.11 21.2275 192.129 21.5313 192.148 21.949C191.996 21.8161 191.939 21.7654 191.882 21.7148C192.091 22.1325 192.148 22.5375 192.034 22.7716C192.11 22.8855 192.186 22.9931 192.293 23.1513C191.838 23.4614 191.717 23.7272 191.952 24.0815C191.996 24.1511 191.971 24.2777 191.952 24.379C191.901 24.6637 191.838 24.9485 191.698 25.2649C191.61 25.0624 191.515 24.8662 191.445 24.6574C191.414 24.5561 191.42 24.4296 191.439 24.322C191.49 23.9613 191.369 23.7018 190.977 23.5563C191.11 23.8854 191.237 24.1954 191.376 24.5498C191.186 24.6131 191.085 24.6447 190.983 24.6764V25.2775C190.395 25.0118 190.616 24.5625 190.604 24.1828C190.591 23.8917 190.578 23.6006 190.566 23.3095C190.521 23.3095 190.477 23.3095 190.433 23.3158C190.433 23.4424 190.446 23.569 190.433 23.6955C190.382 24.1701 190.325 24.6384 190.256 25.113C190.249 25.17 190.148 25.2522 190.097 25.2459C190.022 25.2396 189.901 25.1763 189.889 25.1193C189.838 24.8599 189.806 24.5878 189.794 24.322C189.781 23.9993 189.794 23.6765 189.794 23.3285C189.648 23.3601 189.541 23.3854 189.433 23.4107C189.433 23.4487 189.42 23.4867 189.433 23.493C189.61 23.6069 189.73 23.7145 189.56 23.955C189.496 24.0372 189.572 24.2144 189.579 24.3536C189.579 24.4549 189.579 24.5625 189.579 24.6637C189.465 24.6447 189.351 24.6257 189.249 24.6068C189.212 24.6637 189.161 24.7333 189.117 24.8029C189.104 24.2144 188.826 23.7904 188.446 23.3918C188.414 23.4614 188.389 23.512 188.364 23.5626C188.117 22.9298 187.876 22.297 187.636 21.6642C187.667 21.6452 187.699 21.6262 187.731 21.6072C187.876 21.7401 188.028 21.873 188.269 22.0882C188.218 20.9491 188.167 19.905 188.123 18.8545C188.167 18.8482 188.212 18.8355 188.256 18.8292C188.319 18.9431 188.376 19.057 188.433 19.1519C188.566 18.8419 188.762 18.5254 188.832 18.1901C188.92 17.7597 188.92 17.3104 188.92 16.8675C188.92 15.6778 188.889 14.4881 188.908 13.3047C188.92 12.2986 188.99 11.2861 189.028 10.2799C189.028 10.1533 189.015 10.0331 189.009 9.87491C188.788 10.0837 188.496 10.223 188.433 10.4381C188.345 10.7482 188.326 11.1405 188.433 11.4443C188.674 12.1024 188.674 12.7605 188.648 13.4376C188.642 13.6844 188.648 13.9312 188.629 14.178C188.579 14.9374 188.515 15.6968 188.477 16.4562C188.471 16.6333 188.079 16.8105 188.541 17.0004C188.003 17.0004 187.87 16.8422 187.971 16.4055C188.003 16.2536 188.06 16.1081 188.072 15.9562C188.098 15.6525 188.129 15.3487 187.838 15.1083C187.478 14.8172 187.478 14.4438 187.699 14.0198C187.788 14.0768 187.864 14.1211 187.971 14.1844C188.034 13.2288 188.091 12.3176 188.148 11.3683C188.016 11.5519 187.895 11.7164 187.699 11.9885C187.699 11.438 187.693 11.0013 187.699 10.571C187.712 10.223 187.731 9.87491 187.775 9.52686C187.838 9.07124 187.933 8.61561 188.016 8.16632C188.218 8.15366 188.307 8.16632 188.395 8.14101C189.117 7.98913 189.319 8.19796 189.237 8.92569C189.205 9.1978 189.287 9.48257 189.319 9.76733C189.325 9.83061 189.357 9.91921 189.332 9.95717C189.085 10.3115 189.275 10.6596 189.332 11.014C189.414 11.5455 189.439 12.0898 189.496 12.6276C189.509 12.7479 189.553 12.8681 189.648 12.982V11.9252C189.648 11.5076 189.711 11.0773 189.623 10.6849C189.56 10.3938 189.547 10.2103 189.68 9.91921C189.825 9.59647 189.718 9.1535 189.711 8.76749C189.711 8.55866 189.68 8.34983 189.654 8.08405C189.844 8.08405 190.041 8.0714 190.23 8.09038C190.268 8.09038 190.338 8.22327 190.325 8.2739C190.275 8.42577 190.186 8.55866 190.116 8.69788C190.148 8.71054 190.18 8.72319 190.211 8.73585C190.338 8.52702 190.458 8.31819 190.597 8.07772C190.863 8.07772 191.186 8.03976 191.49 8.09038C191.774 8.13468 191.838 8.36882 191.838 8.64725C191.825 9.93186 191.838 11.2101 191.825 12.4948C191.825 12.7732 191.92 12.9504 192.179 13.0896V8.20429C192.357 8.17264 192.452 8.30554 192.464 8.61561C192.705 8.55233 192.578 8.07772 192.97 8.17897C193.198 8.23593 193.445 8.25491 193.704 8.29288C193.432 9.26108 193.42 10.1976 193.477 11.1469C193.496 11.4633 193.35 11.7797 193.344 12.1024C193.318 12.8744 193.179 13.6908 193.369 14.4122C193.508 14.9247 193.439 15.4626 193.648 15.9499C193.717 16.1144 193.629 16.3422 193.616 16.5447C193.565 16.5447 193.515 16.5384 193.458 16.5384V15.7474C193.458 15.7474 193.407 15.7474 193.375 15.7537V17.2725L193.527 17.3294C193.641 17.1396 193.837 16.9497 193.844 16.7536C193.882 15.9562 193.875 15.1589 193.85 14.3615C193.844 14.0451 193.704 13.7287 193.711 13.4187C193.736 12.4125 193.812 11.4063 193.844 10.4001C193.863 9.81796 193.844 9.23577 193.844 8.65991L193.958 8.64725C193.977 8.82444 193.996 8.9953 194.015 9.17249C194.04 9.30538 194.065 9.43827 194.097 9.56483C194.122 9.95717 194.35 10.3558 194.059 10.7039C194.154 10.8178 194.325 10.938 194.312 11.0266C194.249 11.419 194.059 11.748 194.28 12.2226C194.439 12.558 194.312 12.7289 194.565 12.9251C194.565 12.191 194.685 11.3937 194.527 10.6469C194.401 10.0331 194.356 9.48889 194.527 8.90671C194.546 8.84975 194.496 8.76749 194.477 8.69155V8.70421V8.69788H194.514ZM194.983 14.5514C195.033 14.659 195.116 14.7476 195.109 14.8362C195.097 14.9754 195.008 15.1083 194.995 15.2475C194.9 16.0954 195.109 16.9371 195.008 17.7914C194.938 18.3862 194.989 18.9937 194.995 19.6012C194.995 19.7278 195.033 19.8543 195.046 19.9746C195.078 20.234 195.185 20.5125 195.122 20.7466C194.989 21.2529 195.299 21.4997 195.635 21.892C195.635 19.7784 195.552 17.7787 195.597 15.779C195.641 13.773 195.527 11.7607 195.476 9.73569C195.438 9.76733 195.407 9.78632 195.388 9.81796C195.192 10.0837 195.217 10.3495 195.274 10.6723C195.356 11.0962 195.306 11.5392 195.299 11.9758C195.299 12.2037 195.337 12.4948 195.211 12.6403C195.078 12.7985 195.04 12.8808 195.128 13.0516C195.16 13.1086 195.122 13.2035 195.128 13.2794C195.166 13.5326 195.204 13.7857 195.268 14.0325C195.324 14.254 195.426 14.4628 195.508 14.678L195.4 14.7539C195.268 14.7033 195.141 14.6463 194.97 14.5767L194.983 14.5514ZM194.325 15.5765C194.559 16.1461 194.496 16.6397 194.331 17.1522C194.236 17.4433 194.236 17.7661 194.192 18.0698C194.236 18.0698 194.28 18.0698 194.325 18.0761V17.5699C194.73 17.9433 194.711 18.5001 194.293 19.1709L194.249 19.057C194.236 19.9176 194.249 20.7719 194.375 21.6072C194.489 22.3983 194.451 23.1829 194.401 23.9676C194.394 24.0815 194.527 24.2018 194.597 24.322L194.666 24.2777C194.609 23.8727 194.559 23.4614 194.502 23.0564C194.527 23.0564 194.546 23.0564 194.571 23.05C194.603 23.1323 194.641 23.2083 194.673 23.2905C194.749 23.2083 194.774 23.1386 194.761 23.069C194.679 22.5501 194.856 22.0312 194.571 21.4807C194.388 21.12 194.609 20.5504 194.66 20.0758C194.704 19.6898 194.825 19.3038 194.825 18.9115C194.825 18.0572 194.787 17.1965 194.723 16.3422C194.704 16.0575 194.711 15.817 194.806 15.5386C194.901 15.2601 194.749 14.9058 194.768 14.5894C194.799 14.1401 194.578 13.868 194.192 13.6085V15.779C194.192 15.779 194.236 15.779 194.261 15.7854C194.274 15.7411 194.287 15.7031 194.331 15.5765H194.325ZM193.091 21.835V18.3546C193.091 18.247 193.097 18.1394 193.091 18.0255C193.091 17.5066 193.091 16.9877 193.091 16.4688C193.091 16.1777 193.053 15.8803 193.103 15.5955C193.205 15.0323 193.059 14.6969 192.439 14.3552C192.641 15.1905 192.306 16.0069 192.66 16.8105C192.819 17.1586 192.774 17.6015 192.8 18.0065C192.819 18.3356 192.8 18.6583 192.8 18.9874C192.8 19.0317 192.755 19.076 192.724 19.114C192.673 19.1709 192.584 19.2215 192.578 19.2848C192.559 19.5063 192.578 19.7341 192.572 19.9556C192.559 20.6074 192.54 21.2655 193.097 21.835H193.091ZM191.325 9.19147C191.287 9.19147 191.256 9.17882 191.218 9.17882C191.199 9.22311 191.167 9.26108 191.161 9.30538C191.129 9.95717 191.104 10.609 191.078 11.2544C191.053 11.9822 191.015 12.7036 191.002 13.4313C191.002 13.6844 191.11 13.9565 191.066 14.197C190.914 14.988 191.3 15.779 191.021 16.5764C190.914 16.8801 191.002 17.2535 191.002 17.5952V18.0888C191.04 18.0888 191.085 18.0888 191.123 18.0888C191.218 17.7534 191.357 17.4244 191.388 17.0826C191.433 16.6144 191.388 16.1334 191.388 15.6588C191.388 15.469 191.414 15.2728 191.407 15.083C191.382 13.7477 191.35 12.4125 191.325 11.0709C191.312 10.4444 191.325 9.81163 191.325 9.18515V9.19147ZM188.427 19.4494V20.7213C188.427 20.8225 188.433 20.9301 188.439 21.0314C188.452 21.2845 188.515 21.5503 188.477 21.7908C188.402 22.259 188.477 22.6261 188.984 22.8792V19.2658C188.876 19.5316 188.8 19.7151 188.693 19.9683C188.585 19.7531 188.528 19.6455 188.427 19.443V19.4494ZM193.92 22.1135V18.8861C193.888 18.8798 193.856 18.8735 193.825 18.8672C193.73 19.0697 193.629 19.2658 193.534 19.462C193.515 19.3924 193.489 19.3038 193.464 19.2152C193.439 19.2215 193.413 19.2279 193.382 19.2342C193.432 19.9619 193.477 20.696 193.521 21.3731C193.989 21.487 193.723 21.892 193.92 22.1135ZM193.021 10.3938C192.869 10.5204 192.749 10.571 192.736 10.6406C192.692 10.919 192.667 11.1975 192.66 11.4759C192.66 12.0075 192.755 12.5517 192.667 13.0643C192.584 13.5326 192.755 13.83 193.015 14.1527V10.3938H193.021ZM191.863 13.7034C191.819 13.7161 191.781 13.7287 191.736 13.7414C191.863 14.6906 191.99 15.6462 192.116 16.5954C192.16 16.5954 192.205 16.5827 192.255 16.5827C192.255 16.4182 192.255 16.2473 192.255 16.0828C192.249 15.5449 192.179 15.007 192.243 14.4755C192.287 14.0831 192.148 13.8806 191.869 13.7097L191.863 13.7034ZM196.957 12.7479C197.008 12.1277 197.058 11.5582 197.096 10.9887C197.096 10.9254 197.052 10.8558 197.014 10.7988C196.856 10.5837 196.691 10.3685 196.571 10.204C196.508 10.8811 196.704 12.3555 196.957 12.7415V12.7479ZM190.477 14.0008V10.9064C190.211 11.9315 190.249 12.963 190.477 14.0008ZM190.534 15.9056L190.42 15.9183V18.1394C190.458 18.1394 190.49 18.1394 190.528 18.1394C190.566 17.3927 190.648 16.6523 190.534 15.9056ZM192.951 24.4865C193.262 23.9866 193.021 23.569 193.072 23.145C192.578 23.5373 192.787 23.9613 192.951 24.4865ZM189.522 18.8988H189.408C189.382 19.3861 189.351 19.8797 189.319 20.4808C189.737 19.905 189.458 19.3861 189.522 18.8988ZM197.71 22.2907C197.217 22.664 197.944 22.7463 197.83 23.0754C198.141 22.6767 198.128 22.5944 197.71 22.2907ZM193.736 24.1638C193.799 24.1511 193.863 24.1385 193.926 24.1258C193.882 23.8537 193.831 23.5879 193.787 23.3158C193.723 23.3285 193.667 23.3348 193.603 23.3475C193.648 23.6196 193.692 23.8917 193.736 24.1638ZM191.382 22.5881C191.477 22.2717 191.585 21.9426 191.078 21.911C191.18 22.1388 191.281 22.3666 191.382 22.5881Z" fill="black"/>
<path d="M175.752 24.2714C175.701 24.3473 175.632 24.4169 175.606 24.4929C175.505 24.8409 175.416 25.2016 175.239 25.5497C175.125 25.2966 174.986 25.0498 174.904 24.784C174.809 24.4866 174.771 24.1765 174.708 23.8727C174.663 23.8791 174.619 23.8854 174.568 23.898V25.132C174.36 25.0118 174.239 24.9485 174.119 24.8789C173.828 25.1257 173.391 25.0624 173.176 24.7587C173.132 24.7017 173.037 24.6764 172.898 24.6005C172.948 24.4739 173.062 24.322 173.081 24.1512C173.107 23.9234 173.081 23.6892 173.05 23.4614C173.005 23.1893 172.885 22.9235 172.872 22.6514C172.847 21.9173 172.853 21.1833 172.866 20.4492C172.866 20.2341 172.942 20.0126 172.98 19.7974L173.081 19.8101V20.2214C173.423 20.2657 173.644 19.9683 173.619 19.6266C173.569 19.0064 173.366 18.3609 173.834 17.7028V18.8229C174.157 18.266 174.106 17.5952 174.587 17.1396C174.638 18.0952 174.689 18.9684 174.733 19.8417C174.777 19.8417 174.822 19.8417 174.866 19.8417C174.866 19.5127 174.866 19.1773 174.866 18.8482C174.866 18.6457 174.822 18.4369 174.834 18.2407C174.872 17.6522 175.043 17.0447 174.948 16.4815C174.872 16.0195 175.018 15.6019 174.885 15.1526H175.271V17.2915C175.309 17.3105 175.347 17.3231 175.385 17.3421C175.511 17.127 175.739 16.9181 175.745 16.703C175.771 15.9689 175.714 15.2285 175.695 14.4881C175.695 14.3173 175.695 14.1527 175.764 13.9566C175.815 14.0705 175.859 14.1781 175.923 14.3236C175.967 14.2603 176.005 14.2097 176.043 14.1654H176.125V16.1714C176.188 16.1714 176.245 16.1651 176.309 16.1651L176.245 15.064C176.562 15.412 176.517 16.2094 176.283 16.5448C176.144 16.7409 176.15 17.0637 176.169 17.3231C176.207 17.937 176.29 18.5508 176.353 19.1583C176.391 19.4937 176.423 19.8354 176.454 20.1708C176.486 20.1708 176.524 20.1708 176.555 20.1708V19.5443C176.555 19.1456 176.536 18.747 176.606 18.342C176.638 18.1711 176.441 17.9749 176.397 17.7851C176.334 17.513 176.321 17.2282 176.296 17.0384C176.448 16.9181 176.612 16.8485 176.612 16.7789C176.6 15.9436 176.562 15.1146 176.524 14.2793C176.524 14.2097 176.467 14.1464 176.429 14.0705C176.347 14.0895 176.264 14.1084 176.144 14.1401C176.423 13.7604 175.758 13.425 176.144 13.058C175.973 12.6909 176.258 12.3935 176.22 12.0518L176.321 12.0392C176.442 12.1784 176.562 12.3176 176.682 12.4568C176.72 12.4568 176.752 12.4441 176.783 12.4441V10.8685C176.853 10.8685 176.916 10.8684 176.979 10.8621L177.074 13.1592C177.119 13.1592 177.163 13.1592 177.201 13.1529C177.226 13.0263 177.251 12.8998 177.296 12.6656C177.429 13.1782 177.568 13.5832 177.625 13.9945C177.675 14.3932 177.638 14.8045 177.638 15.2791C177.726 15.1842 177.783 15.1273 177.878 15.026C177.91 15.6715 177.935 16.2853 177.967 16.9118C178.131 16.7663 178.131 16.7599 178.099 15.7981C178.087 15.4247 178.106 15.0577 178.099 14.6843C178.087 14.2856 178.055 13.887 178.03 13.4883C178.005 13.1086 177.973 12.7289 177.853 12.3366C177.815 12.8428 177.777 13.3491 177.732 13.849C177.707 13.849 177.682 13.8553 177.657 13.8616C177.644 13.7224 177.631 13.5769 177.619 13.4377C177.587 13.039 177.562 12.6467 177.524 12.248C177.505 12.0328 177.353 11.824 177.65 11.6278C177.751 11.5582 177.669 11.2102 177.657 10.9887C177.657 10.8748 177.625 10.7609 177.593 10.5647C177.562 10.7356 177.543 10.8242 177.524 10.9064C177.233 10.4761 177.283 10.0142 177.403 9.56486C177.486 9.2358 177.631 8.91939 177.758 8.584C178.346 9.44462 179.017 10.2736 178.897 11.4443C178.865 11.7607 178.909 12.0961 178.979 12.4125C179.011 12.5581 179.169 12.6783 179.264 12.8175C179.352 12.9504 179.428 13.0896 179.511 13.2288C179.587 13.3554 179.669 13.482 179.789 13.6781C179.77 13.2795 179.751 12.9757 179.738 12.672C179.789 12.672 179.833 12.6656 179.884 12.6593C179.89 12.8681 179.89 13.0706 179.916 13.2795C179.935 13.4187 179.776 13.6845 180.074 13.6402C180.15 13.9313 180.257 14.2097 180.289 14.5008C180.327 14.8488 180.289 15.2095 180.308 15.5576C180.314 15.6968 180.409 15.8234 180.441 15.9626C180.46 16.0575 180.46 16.1714 180.435 16.2663C180.39 16.4245 180.314 16.5701 180.251 16.722C180.283 16.7346 180.308 16.7473 180.34 16.7599C180.365 16.6966 180.39 16.6334 180.416 16.5701C180.447 16.627 180.473 16.6777 180.504 16.7283H180.599C180.669 16.2157 180.745 15.6968 180.827 15.0956C180.934 15.431 181.036 15.6652 181.074 15.9056C181.099 16.0448 181.004 16.2031 181.004 16.3486C181.01 16.6334 181.023 16.9181 181.093 17.1902C181.131 17.3421 181.301 17.456 181.466 17.6648C181.694 16.8675 181.618 16.2094 181.504 15.5449C181.915 16.2031 181.631 16.9941 181.884 17.7218C182.074 17.5446 182.238 17.3991 182.491 17.1649C182.567 17.532 182.637 17.8484 182.713 18.2407C182.732 18.0572 182.744 17.9306 182.757 17.8041L182.884 17.7788C182.953 18.0762 183.016 18.3736 183.099 18.6647C183.206 19.038 183.326 19.4051 183.453 19.7974C184.162 19.7088 184.168 20.4492 184.516 20.6517C184.491 20.8859 184.396 21.1137 184.466 21.1833C184.693 21.4111 184.598 21.6389 184.592 21.892C184.579 22.5059 184.624 23.1197 184.636 23.7335C184.649 24.1132 184.668 24.4992 184.649 24.8789C184.649 24.9738 184.523 25.1257 184.434 25.1384C184.32 25.1573 184.111 25.1067 184.073 25.0244C183.934 24.7144 183.839 24.6448 183.687 25.0118C183.668 25.0561 183.491 25.0877 183.478 25.0687C183.314 24.784 182.858 24.7017 182.928 24.2524C182.953 24.0879 182.928 23.9107 182.928 23.7398H182.808V24.2018C182.542 23.9423 182.542 23.9423 182.542 23.1387C182.542 22.7716 182.516 22.4046 182.529 22.0376C182.542 21.6769 182.592 21.3162 182.63 20.9555C182.58 20.9555 182.529 20.9491 182.479 20.9428C182.447 21.487 182.422 22.0249 182.384 22.5691C182.384 22.6514 182.339 22.7337 182.314 22.8096C182.257 22.74 182.175 22.683 182.156 22.6071C182.105 22.3666 182.086 22.1262 182.055 21.8794C181.567 21.892 181.447 22.0629 181.618 22.5059C181.694 22.702 181.884 22.8855 181.586 23.126L180.232 21.4364C180.751 20.2277 180.27 19.0444 180.397 17.88C180.352 17.88 180.302 17.88 180.257 17.8737V20.753C180.207 20.753 180.162 20.753 180.112 20.7593L179.998 19.6835C179.7 20.1265 179.947 20.6011 179.935 21.1137C179.542 20.753 179.587 20.3416 179.606 19.9177C179.258 20.1834 179.511 20.6264 179.283 20.9871C179.239 20.5695 179.194 20.2087 179.156 19.8607C179.049 20.1012 178.935 20.3543 178.796 20.6644C178.707 20.4998 178.669 20.4239 178.625 20.3416C178.606 20.3416 178.587 20.348 178.568 20.348V21.4807C178.568 21.4807 178.517 21.4934 178.492 21.4997C178.435 21.3921 178.372 21.2782 178.302 21.1516C178.264 21.2212 178.232 21.2655 178.175 21.3668C178.169 21.1706 178.163 21.0251 178.156 20.8795C177.84 20.9365 177.694 21.0504 177.815 21.4111C177.878 21.6073 177.777 21.8604 177.739 22.1705C177.675 21.8857 177.625 21.6832 177.555 21.3541C177.492 21.5883 177.46 21.7212 177.422 21.8541C177.403 21.8541 177.384 21.8541 177.365 21.8541V20.7087C177.302 20.8479 177.277 20.9048 177.239 20.9871C177.195 20.9555 177.131 20.9175 176.998 20.8289C177.144 21.2529 177.106 21.6009 177.068 21.949C177.03 22.335 177.169 22.7463 176.96 23.1323C176.777 22.8412 177.182 22.297 176.593 22.2907C176.524 22.0439 176.473 21.8287 176.416 21.6136C176.378 21.6136 176.334 21.6262 176.296 21.6262C176.34 22.2211 176.391 22.8223 176.423 23.4171C176.448 23.8221 176.454 24.2334 176.435 24.6384C176.429 24.7776 176.321 24.9169 176.188 25.0308C176.176 24.9422 176.169 24.8599 176.15 24.7397C176.018 24.8346 175.91 24.9105 175.726 25.0434V24.2904C175.714 23.8411 175.809 23.3791 175.6 22.9488C175.575 23.3159 175.6 23.6766 175.638 24.0373C175.644 24.1195 175.695 24.2018 175.726 24.2841L175.752 24.2714ZM180.89 20.8542V18.8355C180.852 18.8355 180.821 18.8355 180.789 18.8355C180.745 19.3671 180.675 19.8923 180.656 20.4239C180.637 20.9934 180.966 21.4111 181.339 21.8414C181.39 21.4554 181.403 21.1073 181.485 20.7783C181.536 20.5884 181.738 20.4619 181.782 20.2341C181.865 19.7974 181.763 19.1266 181.529 18.8798V20.4619H181.403L181.264 18.9115C181.245 18.9115 181.219 18.9115 181.2 18.9115V20.7846C181.112 20.8036 181.029 20.8226 180.89 20.8479V20.8542ZM178.34 13.5199C178.574 12.191 178.454 10.8811 178.315 9.57751C178.264 9.57751 178.213 9.56486 178.156 9.56486L177.802 12.1024C177.802 12.1024 177.865 12.1341 177.897 12.1531C177.96 12.0645 178.024 11.9822 178.144 11.8177C178.213 12.4252 178.277 12.9757 178.34 13.5263M177.011 14.5198C177.011 14.5198 176.96 14.5831 176.929 14.6147C176.935 14.6653 176.941 14.7159 176.948 14.7666C177.017 15.1336 177.125 15.5006 177.144 15.874C177.157 16.1398 177.036 16.4182 176.998 16.6903C176.941 17.0953 177.074 17.437 177.391 17.7471C177.422 17.513 177.479 17.2978 177.467 17.0953C177.429 16.3233 177.378 15.5576 177.302 14.7919C177.296 14.697 177.106 14.6147 177.005 14.5261L177.011 14.5198ZM175.739 17.5636C175.442 17.8673 175.163 18.2723 175.321 18.8229C175.41 19.1203 175.695 19.3671 175.594 19.7278C175.594 19.7278 175.638 19.7468 175.739 19.7974V17.5699V17.5636ZM182.808 20.2024C182.858 20.0379 182.865 20.0189 182.865 20.0189C182.82 19.9683 182.763 19.924 182.732 19.867C182.7 19.8037 182.668 19.7152 182.687 19.6582C182.858 19.2026 182.827 18.7659 182.618 18.2027C182.485 18.4369 182.339 18.5824 182.352 18.709C182.39 19.076 182.479 19.443 182.573 19.7974C182.605 19.9113 182.7 20.0126 182.814 20.2024H182.808ZM175.707 22.8349C175.79 22.3413 175.638 21.3731 175.41 21.1327V22.2907C175.53 22.5059 175.606 22.6451 175.707 22.8286M179.681 16.646H179.745C179.745 16.4688 179.745 16.2853 179.745 16.1018C179.732 15.7221 179.618 15.3108 179.719 14.9627C179.808 14.6653 179.789 14.5641 179.511 14.4312C179.568 15.1969 179.625 15.9183 179.681 16.6397V16.646ZM182.263 18.8798C182.225 18.8672 182.181 18.8545 182.143 18.8355C182.093 18.9241 182.004 19.0127 182.004 19.1077C181.991 19.5127 182.004 19.9177 182.017 20.3227C182.017 20.3986 182.061 20.4682 182.08 20.5441C182.105 20.5441 182.13 20.5378 182.156 20.5315C182.194 19.9809 182.232 19.4304 182.263 18.8798ZM178.916 14.3679L178.72 14.3806C178.758 15.0577 178.796 15.7284 178.827 16.4056H178.909V14.3742L178.916 14.3679ZM178.821 13.3491C178.865 13.5959 178.346 13.9945 178.985 14.1717C178.922 13.8616 178.871 13.6022 178.821 13.3491ZM182.915 22.2527H182.846C182.827 22.6198 182.808 22.9994 182.789 23.3728C182.827 23.3728 182.871 23.3728 182.909 23.3791V22.2527H182.915Z" fill="black"/>
<path d="M125.07 25.0244C123.747 25.0244 122.431 25.0244 121.121 25.0118C121.039 25.0118 120.944 24.8789 120.893 24.784C120.855 24.7143 120.887 24.6068 120.887 24.5119V8.49538C120.887 7.98913 120.887 7.97648 121.406 7.98913C122.064 8.00179 122.728 8.00812 123.387 8.06507C124.31 8.14734 125.095 9.01429 125.101 10.0458C125.12 15.007 125.101 19.9683 125.101 24.9295C125.101 24.9422 125.095 24.9548 125.076 25.0244H125.07Z" fill="black"/>
<path d="M165.823 22.74C165.804 23.1513 165.76 23.5689 165.772 23.9803C165.772 24.0879 165.949 24.1954 166.057 24.3157C166 24.341 165.886 24.3916 165.703 24.4739C165.88 24.5561 166.019 24.6194 166.158 24.689C165.968 24.8093 165.823 24.8979 165.753 24.9358C165.399 25.0244 165.102 25.1003 164.709 25.1953C164.678 24.3789 164.64 23.5247 164.608 22.6324C164.519 22.6893 164.418 22.7526 164.342 22.8096L164.102 22.1831C164.07 22.1957 164.038 22.2084 164 22.2274C164.083 23.2082 164.171 24.1828 164.266 25.2839C163.716 24.9358 163.412 25.2016 163.077 25.4547C163.026 25.2712 162.982 25.1193 162.931 24.9422C162.001 25.2712 161.039 25.2269 160.096 25.2712C160.045 25.3914 159.995 25.5243 159.938 25.6572C159.906 25.6509 159.874 25.6446 159.843 25.6319C159.83 25.499 159.818 25.3661 159.799 25.2079C159.672 25.1953 159.533 25.1763 159.337 25.1573C159.292 24.6447 159.223 24.1258 159.197 23.6006C159.153 22.683 159.134 21.7591 159.115 20.8352C159.109 20.4492 159.128 20.0632 159.128 19.6772C159.128 18.8355 159.109 17.9939 159.096 17.1522C159.077 16.1524 159.039 15.1462 159.039 14.1464C159.039 13.4756 159.102 12.8048 159.109 12.134C159.109 11.6658 159.064 11.2038 159.039 10.7355C159.039 10.6849 159.064 10.6279 159.09 10.4887C159.387 11.1342 158.862 11.8999 159.577 12.3745C159.602 11.7986 159.659 11.2481 159.647 10.7039C159.64 10.2419 159.514 9.77998 159.52 9.32436C159.52 8.93201 159.628 8.53967 159.691 8.15366C159.691 8.12202 159.767 8.07139 159.811 8.07139C160.159 8.06506 160.507 8.07139 160.824 8.07139C160.849 8.31186 160.862 8.46373 160.881 8.61561C160.925 8.61561 160.969 8.60928 161.014 8.60928C161.02 8.40678 161.033 8.21061 161.039 8.00178H161.419C161.463 8.64725 161.507 9.28639 161.551 9.92553C161.589 9.92553 161.627 9.92553 161.665 9.92553C161.665 9.60912 161.722 9.28006 161.653 8.98264C161.564 8.5903 161.899 8.37514 161.944 8.05241C161.944 8.02077 162.121 8.01444 162.222 7.99545C162.197 8.1853 162.178 8.32451 162.146 8.546C162.304 8.41311 162.406 8.33084 162.501 8.24858C162.501 8.27389 162.501 8.2992 162.507 8.32452C162.785 8.32452 163.064 8.31819 163.342 8.32452C163.418 8.32452 163.551 8.40678 163.545 8.42577C163.513 8.55866 163.463 8.68522 163.393 8.80545C163.387 8.81811 163.241 8.75483 163.108 8.71053C163.077 8.87506 163.051 9.05225 163.02 9.22311C162.956 9.20412 162.861 9.17881 162.76 9.15983C162.754 9.15983 162.709 9.28006 162.722 9.28006C162.804 9.32436 162.887 9.356 162.975 9.38764C162.975 9.88756 162.994 10.4191 162.963 10.957C162.956 11.0709 162.779 11.1722 162.672 11.2924C163.292 11.4316 162.893 11.9822 163.001 12.3492C163.077 12.6023 162.874 12.9251 162.836 13.2225C162.785 13.5895 162.76 13.9629 162.741 14.3362C162.722 14.7665 162.716 15.2032 162.716 15.6398C162.716 15.7411 162.779 15.8486 162.804 15.9436C163.007 15.8107 163.178 15.6968 163.355 15.5765C163.817 16.2853 163.418 16.9497 163.336 17.6142C163.273 18.1394 163.171 18.6647 163.108 19.1899C163.096 19.3038 163.171 19.424 163.292 19.5253C163.323 19.4304 163.355 19.3354 163.393 19.2279C163.488 19.7404 163.475 20.2783 163.703 20.6833C163.924 21.0757 164.393 21.3351 164.848 21.7275C164.899 22.702 164.956 23.7968 165.019 24.9738C165.076 24.8472 165.127 24.7903 165.133 24.727C165.158 24.1638 165.196 23.5943 165.19 23.0311C165.19 22.6007 165.108 22.1768 165.089 21.7465C165.076 21.5186 165.121 21.2908 165.139 21.0693H165.253C165.323 21.3668 165.393 21.6642 165.469 21.9869C165.5 22.0249 165.576 22.0882 165.614 22.1704C165.696 22.3603 165.766 22.5628 165.842 22.7589V22.7463H165.836L165.823 22.74ZM159.514 12.6023C159.21 12.8428 159.159 17.5383 159.514 18.0508V12.6023ZM163.766 24.5308C163.804 23.86 163.849 23.2019 163.861 22.5311C163.861 22.4362 163.684 22.3413 163.589 22.2464C163.532 22.2654 163.475 22.2843 163.425 22.3033C163.349 22.8159 163.273 23.3285 163.19 23.8917C163.349 23.8474 163.412 23.8284 163.475 23.8094C163.494 24.2524 163.589 24.4929 163.766 24.5308ZM162.615 18.0635C162.779 18.8861 162.469 19.7404 162.811 20.5504C162.988 19.7088 162.899 18.8798 162.615 18.0635ZM162.842 21.7718H162.709V24.3789C162.754 24.3789 162.798 24.3789 162.842 24.3789V21.7781V21.7718ZM161.906 18.7469V20.8795C162.184 20.3922 162.165 19.1456 161.906 18.7469ZM165.45 22.9108H165.374C165.348 23.3981 165.323 23.8854 165.291 24.4549C165.424 24.284 165.576 24.1701 165.576 24.0689C165.563 23.6829 165.5 23.2968 165.45 22.9108ZM162.368 15.045C162.184 15.3677 162.197 16.241 162.368 16.4625V15.045ZM161.988 23.3032C161.988 23.3032 161.931 23.3095 161.899 23.3158V24.8852C161.963 24.8282 162.064 24.7776 162.064 24.7333C162.045 24.2587 162.013 23.7841 161.988 23.3032ZM161.539 17.899L161.596 17.8863C161.621 17.4876 161.653 17.0953 161.665 16.6966C161.665 16.6333 161.621 16.5637 161.583 16.5068C161.577 16.4941 161.469 16.5194 161.457 16.5511C161.425 16.608 161.412 16.684 161.425 16.7409C161.45 16.9118 161.513 17.0763 161.526 17.2472C161.545 17.4623 161.526 17.6838 161.526 17.899H161.539ZM162.482 14.0072C162.431 14.0072 162.38 14.0072 162.323 14.0008V14.8615C162.361 14.8615 162.393 14.8615 162.431 14.8615C162.45 14.5767 162.463 14.2919 162.482 14.0072ZM159.463 22.0375C159.615 21.6325 159.628 21.2402 159.463 20.8415V22.0375Z" fill="black"/>
<path d="M167.639 24.0119C167.538 23.974 167.443 23.9423 167.335 23.9044C167.278 23.9803 167.215 24.0626 167.101 24.2208C167.069 24.0689 167.057 23.9803 167.038 23.898C167.069 23.3981 167.101 22.8982 167.133 22.3983C167.095 22.3983 167.063 22.3983 167.025 22.3983C166.962 22.8982 166.74 23.3918 167.038 23.9044C166.57 23.8031 166.829 23.3791 166.702 23.1197C166.639 22.9931 166.709 22.8096 166.69 22.6577C166.671 22.5375 166.601 22.4299 166.538 22.278V24.2144C166.5 24.2144 166.462 24.2144 166.424 24.2144C166.247 23.5943 166.506 22.9045 166.095 22.3097C166.089 22.4109 166.101 22.5312 166.057 22.6134C166.019 22.683 165.905 22.702 165.823 22.7463V22.759C165.861 22.354 165.911 21.9426 165.899 21.5376C165.892 21.3415 165.741 21.1516 165.639 20.9238C165.962 20.9491 166.285 20.8922 166.506 21.0124C166.734 21.1327 166.873 21.4364 167.063 21.6769C167.133 21.6326 167.202 21.5819 167.272 21.5376C167.348 21.6389 167.424 21.7402 167.5 21.8414C167.557 21.7655 167.614 21.6832 167.702 21.5693C167.759 21.7148 167.797 21.8098 167.835 21.9047L167.943 21.892C167.93 21.6389 167.911 21.3921 167.898 21.1263C168.493 20.8226 169.082 20.8985 169.341 21.3731C169.423 21.177 169.487 21.0061 169.575 20.7846C169.664 21.0694 169.803 21.3035 169.81 21.544C169.841 22.278 169.822 23.0121 169.822 23.7462C169.822 24.1512 169.847 24.5562 169.81 24.9612C169.797 25.1384 169.727 25.5813 169.461 25.0498C169.436 24.9928 169.303 24.9928 169.221 24.9612C169.537 24.2271 169.379 23.5563 169.025 22.8919V25.3282C168.905 25.3409 168.689 25.4105 168.639 25.3535C168.531 25.2269 168.493 25.0308 168.462 24.8536C168.405 24.6005 168.379 24.3473 168.329 24.0436C168.544 23.936 168.455 23.7398 168.392 23.4614C168.278 22.9362 168.297 22.3856 168.265 21.8857C168.082 22.1135 168.057 22.4552 168.133 22.9805C168.221 23.5943 168.284 24.2144 168.278 24.8283C168.278 24.9422 167.905 25.132 167.696 25.151C167.493 25.1637 167.272 24.9991 167.114 24.9359C167.266 24.6511 167.443 24.322 167.62 23.993C167.791 24.0942 167.987 24.0942 168 23.8791C168.019 23.5943 167.93 23.3032 167.879 22.9109C167.791 23.1703 167.74 23.3285 167.645 23.5943C167.55 23.2526 167.487 23.0248 167.392 22.7084C167.209 23.2526 167.392 23.6323 167.633 24.0056L167.639 24.0119Z" fill="black"/>
<path d="M150.458 8.08408H150.882V25.1637H150.458V8.08408Z" fill="black"/>
<path d="M171.91 24.9168V22.0565C172.081 21.911 172.252 21.7591 172.486 21.5566V22.4679C172.486 22.5058 172.474 22.5438 172.48 22.5818C172.524 23.1197 172.575 23.6575 172.619 24.1954C172.626 24.2714 172.632 24.3473 172.638 24.4233C172.638 24.9042 172.518 24.9801 171.917 24.9105" fill="black"/>
<path d="M199.507 21.0314C199.419 20.9554 199.362 20.9048 199.223 20.7846C199.223 21.506 199.267 22.1641 198.868 22.7336C198.9 21.5883 198.64 20.4302 199.045 19.3165H199.166V19.7404C199.514 20.0062 199.672 20.5504 199.501 21.0314H199.507Z" fill="black"/>
<path d="M185.497 24.4739C185.155 24.3916 185.035 23.1386 185.307 22.7147C185.554 22.8918 185.579 23.0944 185.503 23.5436C185.459 23.8347 185.497 24.1448 185.497 24.4676" fill="black"/>
<path d="M186.402 25.3408C185.75 25.0371 186.104 24.4992 186.035 24.0815L186.104 24.2524C186.067 23.9866 186.326 23.6196 185.851 23.493C185.839 23.493 185.845 23.3981 185.845 23.3475C185.915 23.3475 186.022 23.3158 186.041 23.3475C186.142 23.493 186.275 23.6449 186.294 23.8094C186.351 24.303 186.364 24.8029 186.396 25.3408H186.402Z" fill="black"/>
<path d="M198.02 19.038C197.647 18.5951 197.641 18.4369 197.932 17.4687C198.305 17.9623 198.052 18.4748 198.02 19.038Z" fill="black"/>
<path d="M196.862 19.5696V17.7155C196.907 17.7155 196.951 17.7155 196.989 17.7155C197.014 18.3293 197.229 18.9431 196.862 19.5696Z" fill="black"/>
<path d="M196.767 23.3411C196.881 23.5246 196.995 23.7082 197.09 23.86C197.16 23.879 197.223 23.8917 197.286 23.9043C197.16 24.0815 197.027 24.2587 196.9 24.4359C196.856 24.4169 196.812 24.3916 196.761 24.3726C196.717 24.0435 196.672 23.7208 196.634 23.3918C196.679 23.3728 196.723 23.3538 196.767 23.3411Z" fill="black"/>
<path d="M194.135 9.55851C194.109 9.42562 194.084 9.29273 194.052 9.16617C194.065 8.97632 194.052 8.78648 194.097 8.60297C194.128 8.4764 194.236 8.36882 194.363 8.17265C194.438 8.43843 194.476 8.57133 194.514 8.69789V8.68523C194.47 8.84343 194.394 9.00164 194.369 9.15984C194.344 9.3307 194.407 9.53953 194.135 9.55218V9.55851Z" fill="black"/>
<path d="M176.771 10.4381L176.967 8.951C177.46 9.52053 176.865 9.9635 176.916 10.4444H176.771V10.4381Z" fill="black"/>
<path d="M163.589 10.0521L163.69 8.65358H163.804V10.0521C163.735 10.0521 163.665 10.0521 163.589 10.0521Z" fill="black"/>
<path d="M163.469 12.6213L163.184 11.7544C163.602 11.8176 163.722 12.1657 163.469 12.6213Z" fill="black"/>
<path d="M197.368 17.07C197.413 17.475 197.451 17.8547 197.495 18.2787C197.096 17.5383 197.065 17.1586 197.368 17.07Z" fill="black"/>
<path d="M182.27 22.8729C182.327 23.3348 182.384 23.7398 182.434 24.1511C182.137 23.879 182.067 23.3981 182.27 22.8729Z" fill="black"/>
<path d="M187.762 12.4505V13.8047C187.547 13.3617 187.706 12.9061 187.762 12.4505Z" fill="black"/>
<rect x="55.6875" y="1.68752" width="0.84375" height="30.375" fill="black"/>
<g clip-path="url(#clip1_86_709)">
<path d="M8.34078 27.635C7.88017 27.3848 7.41609 27.1581 6.97636 26.8903C4.73483 25.523 3.06993 23.6178 1.87142 21.2745C0.836514 19.2518 0.342264 17.0823 0.156629 14.8318C0.0823757 13.9261 0.0522102 13.017 -0.00115967 12.0691C0.479169 12.1219 0.910768 12.1631 1.34005 12.2194C2.91098 12.4238 4.46566 12.7187 5.96814 13.232C6.73388 13.4939 7.47526 13.8322 8.22243 14.147C8.28741 14.174 8.36166 14.2821 8.36282 14.3525C8.37094 16.0616 8.36862 17.7695 8.36746 19.4785C8.36746 19.4914 8.3547 19.5055 8.33497 19.5443C8.21663 19.4174 8.10293 19.3012 7.99387 19.179C7.08659 18.163 6.18162 17.1446 5.27085 16.1321C5.16759 16.0181 5.14207 15.9253 5.18848 15.7703C5.30566 15.3815 5.12466 14.9774 4.765 14.7578C4.40649 14.5393 3.97141 14.5886 3.66512 14.8835C3.38318 15.1548 3.31473 15.5929 3.49804 15.95C3.69296 16.327 4.07351 16.5267 4.46914 16.4375C4.62113 16.4034 4.71743 16.4281 4.81953 16.5502C5.07013 16.8486 5.33698 17.134 5.6224 17.4523C5.00052 17.4523 4.41693 17.4582 3.83451 17.4453C3.76373 17.4441 3.68252 17.3513 3.62799 17.2832C3.32285 16.8991 2.84948 16.831 2.49214 17.1281C2.13247 17.4277 2.09303 17.9504 2.4028 18.311C2.72882 18.6904 3.3507 18.6563 3.61523 18.2264C3.70224 18.0854 3.79158 18.0537 3.93544 18.0525C4.58864 18.0478 5.24068 18.0314 5.89388 18.0302C5.99598 18.0302 6.13057 18.0549 6.19438 18.123C6.89167 18.8736 7.57968 19.6347 8.2642 20.3982C8.32105 20.4617 8.36166 20.5662 8.36282 20.652C8.36862 22.9495 8.36746 25.2458 8.36746 27.5434C8.36746 27.5586 8.35934 27.5739 8.33961 27.6385L8.34078 27.635ZM2.20441 20.7588C2.20209 21.0725 2.3738 21.3567 2.65457 21.4624C2.92026 21.5623 3.22655 21.5505 3.37622 21.3168C3.5607 21.029 3.79274 21.0572 4.04799 21.0572C4.2545 21.0572 4.46218 21.0654 4.6687 21.0501C4.91002 21.0325 5.08754 21.0736 5.243 21.3086C5.48201 21.6703 5.91709 21.7561 6.30576 21.5869C6.68631 21.4225 6.88703 21.0795 6.84758 20.6602C6.81277 20.2878 6.49139 19.9284 6.12593 19.852C5.71521 19.7675 5.32422 19.9601 5.11886 20.3289C5.08174 20.3947 4.98428 20.4617 4.91234 20.4652C4.50743 20.4805 4.10019 20.484 3.69528 20.4734C3.61987 20.4711 3.52705 20.4065 3.476 20.343C3.27992 20.0952 2.97711 19.9871 2.69054 20.0834C2.39932 20.1809 2.20789 20.4476 2.20557 20.7577L2.20441 20.7588ZM5.7825 24.5011C6.20018 24.5011 6.50764 24.1899 6.50416 23.7705C6.49952 23.3641 6.17118 23.0211 5.78366 23.0188C5.37875 23.0164 5.04577 23.3488 5.05157 23.7482C5.05737 24.1875 5.36135 24.5 5.78366 24.5011H5.7825Z" fill="black"/>
<path d="M31.9895 12.2805C31.9419 12.6834 31.9059 13.0311 31.8561 13.3764C31.8479 13.4305 31.7853 13.4786 31.74 13.5233C30.545 14.6943 29.3453 15.8619 28.1561 17.0389C28.0645 17.1293 28.0053 17.2796 27.9833 17.4112C27.9485 17.6238 27.9566 17.8423 27.9473 18.0537C27.0481 18.3227 26.8288 18.8877 27.3823 19.4914C27.0748 19.8368 26.7697 20.1845 26.4553 20.5239C26.4147 20.5685 26.33 20.5803 26.2627 20.5897C25.7649 20.6672 25.3542 21.0537 25.4006 21.6245C25.4076 21.7032 25.3565 21.8089 25.2985 21.8688C24.5049 22.6723 23.7079 23.4722 22.9062 24.2662C22.7948 24.3766 22.6428 24.4459 22.5198 24.5469C22.2309 24.783 22.1729 25.1859 22.3736 25.5042C22.5697 25.8143 22.9479 25.9224 23.2728 25.7568C23.47 25.6558 23.6023 25.496 23.6209 25.2705C23.6348 25.1002 23.7195 25.0321 23.8703 24.9769C25.2301 24.4776 26.5875 23.9702 27.945 23.4663C27.9867 23.451 28.032 23.444 28.0714 23.4334C25.476 26.9126 21.9699 28.5946 17.6991 28.8307C17.9381 28.5864 18.1551 28.3562 18.3813 28.1354C19.132 27.4036 19.885 26.6718 20.6437 25.9483C20.7099 25.8848 20.8317 25.8472 20.9234 25.8531C21.2923 25.8778 21.5603 25.7004 21.6137 25.3727C21.6694 25.0274 21.4768 24.7396 21.1461 24.6715C20.805 24.601 20.5254 24.8089 20.4337 25.1824C20.4105 25.2764 20.356 25.375 20.2887 25.442C19.1842 26.5226 18.089 27.6138 16.9566 28.6651C16.7222 28.8824 16.6955 29.0927 16.6955 29.3546C16.6967 30.676 16.7002 31.9987 16.7037 33.3201C16.7048 33.7723 16.6665 33.804 16.1572 33.7054C16.1479 33.5621 16.1305 33.4117 16.1305 33.2614C16.1259 30.8111 16.1236 28.3609 16.1247 25.9107C16.1247 25.8308 16.1537 25.7309 16.2059 25.6757C16.5934 25.2717 16.9891 24.8735 17.3882 24.48C17.4334 24.4354 17.5216 24.4377 17.5819 24.4036C17.7258 24.3249 17.9149 24.2709 17.9961 24.1464C18.2247 23.7928 18.6064 23.9009 18.9115 23.787C18.9464 23.7741 19.0148 23.8492 19.067 23.8856C19.4255 24.1382 19.8467 24.0466 20.081 23.6789C20.1298 23.6037 20.2226 23.5344 20.3073 23.5098C20.5509 23.4393 20.8027 23.3958 21.0498 23.3347C21.2958 23.2748 21.5 23.2384 21.746 23.4322C22.1161 23.7224 22.7112 23.4205 22.7542 22.9424C22.7751 22.7122 22.869 22.5654 23.0222 22.4139C23.9306 21.5223 24.831 20.6214 25.7394 19.7299C25.8009 19.67 25.9007 19.6347 25.9877 19.6183C26.4181 19.5396 26.6838 19.1332 26.5759 18.7021C26.4657 18.2604 26.0271 18.0185 25.6095 18.17C25.2173 18.311 25.0201 18.7702 25.2057 19.1614C25.2707 19.2988 25.2521 19.3669 25.1512 19.4656C24.2729 20.3195 23.4016 21.1805 22.5198 22.0309C22.4548 22.0932 22.3261 22.1261 22.2344 22.1132C21.8898 22.065 21.6009 22.2059 21.435 22.5078C21.3921 22.5853 21.2993 22.6593 21.2157 22.6852C20.9965 22.7533 20.7691 22.7968 20.544 22.8473C20.3015 22.9013 20.0973 22.9483 19.8594 22.7322C19.5311 22.435 19.0113 22.6335 18.8396 23.047C18.8095 23.1198 18.7259 23.1891 18.6505 23.2185C18.5345 23.2654 18.4011 23.2678 18.2804 23.3054C18.1365 23.35 18.0379 23.33 17.9288 23.2055C17.698 22.9424 17.3244 22.9178 17.0424 23.121C16.7791 23.3101 16.6909 23.6507 16.8278 23.9596C16.8475 24.0031 16.8707 24.0442 16.8939 24.0877C16.6538 24.3379 16.4183 24.5834 16.1491 24.8629C16.141 24.6797 16.1294 24.534 16.1282 24.3884C16.1259 23.7435 16.1317 23.0987 16.1236 22.4538C16.1224 22.3058 16.1676 22.2471 16.3104 22.2083C16.6944 22.1038 17.0691 21.9699 17.4532 21.8641C17.5599 21.8348 17.6933 21.8359 17.7954 21.8747C18.3303 22.0803 18.8234 21.8841 19.0705 21.3661C19.103 21.298 19.2016 21.2369 19.2793 21.2205C19.7678 21.1112 20.262 21.0266 20.7482 20.9068C20.9071 20.8681 21.0753 20.7812 21.1937 20.6672C22.731 19.1931 24.2625 17.7131 25.7893 16.2284C25.954 16.0686 26.0956 16.0087 26.33 16.0874C26.7697 16.2354 27.2744 15.95 27.4008 15.4872C27.453 15.2957 27.5401 15.2534 27.7129 15.2523C28.0865 15.2476 28.4613 15.2358 28.8337 15.2065C28.9393 15.1982 29.0623 15.1454 29.1388 15.0714C30.0554 14.1763 30.965 13.2742 31.8769 12.3745C31.8978 12.3545 31.9199 12.3357 31.9872 12.2758L31.9895 12.2805Z" fill="black"/>
<path d="M17.2709 21.2839C16.9055 21.4037 16.5446 21.5223 16.1525 21.6516V19.0486C17.1932 18.8078 18.2443 18.56 19.2978 18.3262C19.3721 18.3098 19.4962 18.3638 19.5473 18.4261C19.8199 18.7561 20.154 18.8971 20.5648 18.7796C20.9558 18.6669 21.1658 18.3826 21.2226 17.975C21.2307 17.9116 21.2713 17.8423 21.3177 17.7977C23.8876 15.3427 26.461 12.8902 29.0332 10.4376C29.09 10.3824 29.1503 10.3307 29.2176 10.2673C29.2664 10.3025 29.3116 10.3307 29.3522 10.3659C29.7072 10.6737 30.1922 10.6972 30.5902 10.427C30.9533 10.1792 31.1157 9.69288 30.9742 9.27472C30.8164 8.81075 30.4045 8.54059 29.8975 8.56995C29.4613 8.59462 29.0668 8.92586 28.9984 9.36633C28.9659 9.57776 28.8777 9.72342 28.7269 9.86672C26.7197 11.7755 24.7183 13.6912 22.7146 15.6023C22.1357 16.1544 21.5521 16.7018 20.9592 17.262C20.7005 17.0177 20.4151 16.9073 20.0763 16.9942C19.7816 17.0706 19.5647 17.2339 19.4452 17.5299C19.415 17.6039 19.3291 17.6873 19.2549 17.706C18.2362 17.9562 17.2141 18.1959 16.1629 18.4461C16.1548 18.3544 16.142 18.271 16.1409 18.1888C16.1386 17.6168 16.1409 17.0447 16.1374 16.4727C16.1374 16.3517 16.1629 16.2942 16.2998 16.2648C16.7976 16.1603 17.2895 16.0275 17.7872 15.9218C17.8649 15.9054 17.9856 15.9465 18.0448 16.004C18.4648 16.4152 19.0669 16.2719 19.2259 15.7022C19.2653 15.5612 19.3233 15.4966 19.4602 15.4872C19.5229 15.4825 19.5855 15.4649 19.6459 15.4449C19.8768 15.3674 20.0624 15.3721 20.2933 15.5354C20.8258 15.9124 21.5625 15.5048 21.6206 14.8482C21.631 14.7355 21.6902 14.6004 21.7714 14.524C24.897 11.5617 28.0273 8.60401 31.1575 5.64635C31.393 5.42318 31.6286 5.2 31.907 4.93571C31.9604 5.62169 32.0404 6.24305 32.0509 6.86677C32.0741 8.29979 32.0648 9.73399 32.059 11.1682C32.059 11.2586 32.0068 11.3714 31.9418 11.436C30.9243 12.4462 29.9033 13.4516 28.8765 14.4512C28.7988 14.5276 28.6747 14.5769 28.5656 14.5945C28.3301 14.6309 28.0899 14.6368 27.8521 14.6591C27.5933 14.6826 27.3706 14.7038 27.1641 14.4406C26.9193 14.127 26.418 14.1082 26.0653 14.3114C25.6894 14.5287 25.5084 14.9164 25.6001 15.3286C25.6291 15.4567 25.6198 15.5436 25.5142 15.6446C23.9421 17.1516 22.377 18.6657 20.8084 20.1751C20.7411 20.2397 20.6611 20.3125 20.5752 20.3325C20.1262 20.4382 19.6737 20.5251 19.2236 20.6273C19.0681 20.6625 19.0368 20.5486 18.9776 20.457C18.7374 20.0917 18.3882 19.9707 17.9798 20.0506C17.6039 20.1246 17.3545 20.3689 17.2767 20.753C17.2442 20.9139 17.2709 21.0877 17.2709 21.2827V21.2839ZM29.2513 12.6834C29.2536 12.331 28.9868 12.0621 28.6306 12.0609C28.2709 12.0597 27.9994 12.3346 28.0017 12.7022C28.0029 13.0617 28.2686 13.3436 28.6062 13.3436C28.9752 13.3436 29.249 13.064 29.2513 12.6834Z" fill="black"/>
<path d="M9.00674 14.5052C9.65762 14.9774 10.2772 15.3838 10.8492 15.8501C12.1091 16.8791 13.1336 18.1113 13.8263 19.6054C14.4006 20.8446 14.7417 22.1449 14.7684 23.5168C14.7904 24.628 14.7742 25.7403 14.7742 26.8527C14.7742 26.8915 14.7684 26.9302 14.7614 27.0359C14.5038 26.7575 14.2857 26.5121 14.0548 26.2771C13.9249 26.1456 13.8518 26.0222 13.875 25.8167C13.9075 25.5289 13.672 25.2834 13.3947 25.2587C13.0686 25.2294 12.8041 25.4232 12.7496 25.7333C12.6974 26.0269 12.8621 26.3347 13.1359 26.3887C13.3378 26.4287 13.4712 26.5367 13.6023 26.6824C13.9028 27.0148 14.2091 27.3437 14.5259 27.6608C14.6999 27.8347 14.8113 28.012 14.78 28.2728C14.7591 28.4466 14.7765 28.6252 14.7765 28.8108C14.5502 28.873 14.382 28.8343 14.2207 28.6569C13.6766 28.0578 13.1162 27.4741 12.5709 26.8774C12.5164 26.8175 12.492 26.707 12.4932 26.6201C12.499 26.2607 12.3644 25.9835 12.0732 25.7744C12.014 25.7321 11.9548 25.6405 11.9548 25.57C11.9398 24.4342 11.9316 23.2983 11.9328 22.1613C11.9328 22.0885 12.014 22.0016 12.0778 21.9464C12.3899 21.6785 12.5141 21.2428 12.3737 20.8775C12.224 20.4887 11.8342 20.2514 11.4026 20.2843C11.0162 20.3148 10.6844 20.6038 10.5916 20.9926C10.4883 21.426 10.7413 21.9182 11.1647 22.0603C11.3086 22.1085 11.3469 22.1719 11.3469 22.3128C11.3446 23.3688 11.3504 24.4236 11.3446 25.4796C11.3446 25.5536 11.29 25.6663 11.2309 25.6957C10.7343 25.9353 10.5081 26.424 10.6902 26.9044C10.8758 27.3954 11.3887 27.6268 11.9084 27.4541C11.9827 27.4294 12.0535 27.3977 12.1486 27.3601C12.5941 27.83 13.042 28.3022 13.5351 28.8213C12.4769 28.7579 11.5093 28.5923 10.5568 28.3421C10.0881 28.2188 9.62861 28.059 9.16453 27.9181C9.04619 27.8816 8.98818 27.8264 8.98934 27.6808C8.99398 23.3535 8.99398 19.0263 8.99398 14.6979C8.99398 14.6661 8.99978 14.6344 9.01138 14.5029L9.00674 14.5052ZM11.4142 18.5482C11.8272 18.5517 12.1219 18.264 12.1324 17.8446C12.1416 17.4723 11.8156 17.134 11.4409 17.1281C11.0545 17.1222 10.725 17.4335 10.7192 17.8117C10.7134 18.2099 11.029 18.5447 11.4142 18.5482ZM13.2728 22.4925C12.9178 22.4867 12.6266 22.7639 12.6185 23.1151C12.6104 23.4804 12.8923 23.7975 13.2369 23.8105C13.5965 23.8234 13.8994 23.5192 13.904 23.1421C13.9075 22.7897 13.6255 22.4984 13.274 22.4925H13.2728Z" fill="black"/>
<path d="M30.4917 0.711812C30.393 0.647209 30.3095 0.592002 30.226 0.53797C30.3524 0.500383 30.4696 0.431081 30.5787 0.444002C30.6587 0.453399 30.726 0.56851 30.7608 0.601399C30.8827 0.552066 30.9975 0.518002 31.0996 0.461621C31.153 0.432256 31.2075 0.370001 31.2238 0.311271C31.2516 0.213779 31.2481 0.106889 31.2818 0C31.3467 0.446351 31.4222 0.891527 31.4697 1.33905C31.4802 1.43537 31.4187 1.57163 31.3456 1.64093C29.8605 3.0763 28.3696 4.5058 26.8799 5.93647C26.4124 6.38517 25.9448 6.83504 25.4703 7.27669C25.4204 7.32368 25.3136 7.34365 25.244 7.32838C24.5757 7.18273 24.042 7.73949 24.237 8.39845C24.2718 8.51591 24.2671 8.57933 24.1755 8.66625C23.3308 9.46264 22.4932 10.2661 21.6497 11.0636C21.6056 11.1059 21.5255 11.14 21.4698 11.1318C20.8979 11.0507 20.5776 11.3009 20.515 11.8823C20.5115 11.914 20.5034 11.9446 20.4953 11.9892C19.9314 12.1231 19.3687 12.2641 18.8025 12.3851C18.7248 12.4015 18.6122 12.3428 18.5426 12.2852C18.2247 12.0186 17.7421 12.0656 17.5042 12.3968C17.2641 12.7327 17.3639 13.2284 17.7166 13.4563C18.0588 13.6771 18.5206 13.5397 18.7201 13.1732C18.7619 13.0957 18.8536 13.0158 18.9371 12.9947C19.5381 12.8432 20.1426 12.7034 20.7482 12.5671C20.8282 12.5495 20.9245 12.5566 21.0011 12.5847C21.5255 12.7797 22.0047 12.4732 21.985 11.9164C21.9769 11.6909 22.0604 11.5581 22.2043 11.4219C23.035 10.6349 23.8622 9.84321 24.6964 9.05857C24.7509 9.00689 24.8472 8.97753 24.9238 8.97635C25.5086 8.97048 25.8253 8.63689 25.8148 8.05781C25.8125 7.94974 25.8787 7.80997 25.9587 7.73362C27.2988 6.44742 28.6458 5.16945 29.9916 3.88913C30.5126 3.39344 31.0323 2.89658 31.5916 2.36449C31.6356 2.67928 31.6762 2.95179 31.7111 3.2243C31.7343 3.39931 31.7366 3.57903 31.7714 3.7517C31.8224 4.00776 31.7354 4.17925 31.5463 4.35779C28.7711 6.97952 26.0028 9.61064 23.2334 12.2394C22.6637 12.7797 22.0917 13.3165 21.5232 13.8557C21.4002 13.9731 21.2993 14.0225 21.1125 13.9297C20.5533 13.6525 19.95 14.0131 19.8676 14.6438C19.8618 14.6896 19.8572 14.746 19.8293 14.7766C19.7353 14.8811 19.0705 14.9481 18.9487 14.8729C18.5716 14.6415 18.1296 14.7648 17.9126 15.1571C17.8825 15.2123 17.8221 15.2746 17.7653 15.2887C17.242 15.4226 16.7176 15.5471 16.1503 15.6845C16.1712 15.2887 16.1828 14.914 16.2141 14.5416C16.2895 13.6243 16.4658 12.7257 16.7234 11.8424C16.7687 11.6873 16.8418 11.6098 17.0065 11.5722C17.9602 11.3573 18.9116 11.1306 19.8618 10.898C19.9778 10.8698 20.095 10.7935 20.1832 10.7077C20.7424 10.1698 21.2912 9.61886 21.8516 9.08207C21.9351 9.00219 22.0569 8.94111 22.1695 8.91645C22.5929 8.8213 22.7762 8.63806 22.8691 8.20346C22.8865 8.12359 22.9329 8.03784 22.9909 7.98028C23.5756 7.39885 24.1639 6.82095 24.7579 6.25009C24.8113 6.1984 24.9134 6.16669 24.9876 6.17609C25.5596 6.24774 26.1061 5.80374 26.0956 5.15888C26.0956 5.0931 26.1467 5.01205 26.1977 4.96272C27.4914 3.7329 28.7885 2.50661 30.0844 1.27915C30.183 1.18635 30.2852 1.09473 30.3733 0.992543C30.407 0.953781 30.4035 0.885654 30.4232 0.832797C30.4383 0.79286 30.465 0.757622 30.4928 0.708288L30.4917 0.711812Z" fill="black"/>
<path d="M30.3129 0.0669556V0.272512C30.0379 0.325369 29.7734 0.36883 29.5135 0.431084C29.4404 0.448703 29.3824 0.526227 29.3174 0.576735C29.3882 0.626069 29.459 0.677751 29.5309 0.72591C29.5495 0.738831 29.5738 0.742355 29.6295 0.762323C29.3267 1.04893 29.039 1.31909 28.7535 1.59277C27.8103 2.49487 26.867 3.39579 25.9273 4.30024C25.8147 4.40831 25.7312 4.46234 25.5641 4.36602C25.2126 4.16281 24.752 4.24856 24.4596 4.52929C24.1997 4.77831 24.1255 5.20939 24.2786 5.58174C24.2995 5.63342 24.3262 5.68393 24.354 5.74501C23.7867 6.29355 23.2193 6.84092 22.6195 7.42235C22.6195 6.91844 22.616 6.45682 22.6241 5.9952C22.6241 5.95057 22.6845 5.89418 22.7309 5.86364C23.0917 5.63107 23.195 5.19412 22.9641 4.86053C22.7251 4.51637 22.2668 4.44472 21.9593 4.70431C21.6275 4.98386 21.5939 5.43021 21.9036 5.74383C22.0115 5.85307 22.0429 5.95644 22.0394 6.09974C22.0313 6.42981 22.0394 6.76104 22.0289 7.09111C22.0266 7.15219 21.9744 7.24263 21.9234 7.26495C21.262 7.55038 21.1309 7.89924 21.4628 8.57816C21.1193 8.91058 20.74 9.22302 20.4255 9.59302C19.9487 10.1557 19.3535 10.4329 18.6469 10.5539C18.1388 10.6408 17.641 10.7911 17.1387 10.9121C17.1247 10.9156 17.1085 10.9098 17.054 10.9027C17.1746 10.6243 17.2825 10.3518 17.409 10.0899C18.3685 8.08953 19.7375 6.41219 21.3514 4.91926C23.282 3.13151 25.5131 1.86293 27.9426 0.929118C28.728 0.627243 29.5239 0.354734 30.314 0.0693048L30.3129 0.0669556ZM19.9464 8.83893C19.9522 8.51708 19.7027 8.25515 19.3837 8.24692C19.0634 8.2387 18.7954 8.48889 18.7838 8.80721C18.7711 9.17251 19.0112 9.43915 19.3558 9.4415C19.6737 9.44502 19.9406 9.17251 19.9475 8.83893H19.9464Z" fill="black"/>
<path d="M23.7287 24.3778C24.3808 23.7048 25.0514 23.0117 25.7185 22.3222C26.2487 22.6394 26.7859 22.556 27.1049 22.1507C27.4031 21.7725 27.3683 21.3344 26.9924 20.8317C27.185 20.6167 27.3788 20.3947 27.5772 20.1786C27.7872 19.9495 27.9345 19.6618 28.2628 19.5502C28.3777 19.5102 28.4821 19.3575 28.5343 19.2318C28.597 19.0803 28.6724 19.0286 28.8313 19.031C29.3546 19.0404 29.879 19.0345 30.4348 19.0345C30.3106 19.3329 30.2132 19.6289 30.0705 19.9014C29.6191 20.76 29.1539 21.6104 28.6875 22.4597C28.6457 22.536 28.5622 22.6088 28.4821 22.6394C26.9089 23.2232 25.3333 23.7999 23.7589 24.3766C23.738 24.3837 23.7148 24.3837 23.731 24.3813L23.7287 24.3778Z" fill="black"/>
<path d="M28.5215 18.4108C28.5401 18.1266 28.5529 17.8552 28.5807 17.5839C28.5877 17.5216 28.6387 17.4547 28.6863 17.4077C29.6667 16.4445 30.6494 15.4837 31.6309 14.5229C31.6402 14.5135 31.6576 14.5111 31.7086 14.4888C31.5984 15.0092 31.5149 15.5131 31.3826 16.0017C31.1819 16.7452 30.9452 17.4782 30.7306 18.2182C30.6888 18.3615 30.6297 18.419 30.4672 18.4167C29.8326 18.4038 29.198 18.4108 28.5204 18.4108H28.5215Z" fill="black"/>
</g>
<defs>
<clipPath id="clip0_86_709">
<rect width="135.844" height="32.0625" fill="white" transform="translate(215.156 0.84375)"/>
</clipPath>
<clipPath id="clip1_86_709">
<rect width="32.0625" height="33.75" fill="white"/>
</clipPath>
</defs>
</svg>
